<svg xmlns="http://www.w3.org/2000/svg" xmlns:xlink="http://www.w3.org/1999/xlink" viewBox="0 0 200 215.6"><defs><style>.cls-1{isolation:isolate;}.cls-2{opacity:0.2;}.cls-27,.cls-3{fill:#afb6e5;}.cls-3{opacity:0;}.cls-4{fill:#abb2e2;opacity:0.05;}.cls-5{fill:#a7addf;opacity:0.1;}.cls-6{fill:#a3a9dc;opacity:0.14;}.cls-7{fill:#9fa4d8;opacity:0.19;}.cls-8{fill:#9ba0d5;opacity:0.24;}.cls-9{fill:#979bd2;opacity:0.29;}.cls-10{fill:#9397cf;opacity:0.33;}.cls-11{fill:#8f92cc;opacity:0.38;}.cls-12{fill:#8b8ec9;opacity:0.43;}.cls-13{fill:#8789c6;opacity:0.48;}.cls-14{fill:#8385c2;opacity:0.52;}.cls-15{fill:#7f80bf;opacity:0.57;}.cls-16{fill:#7b7cbc;opacity:0.62;}.cls-17{fill:#7777b9;opacity:0.67;}.cls-18{fill:#7373b6;opacity:0.71;}.cls-19{fill:#6f6eb3;opacity:0.76;}.cls-20{fill:#6b6ab0;opacity:0.81;}.cls-21{fill:#6765ac;opacity:0.86;}.cls-22{fill:#6361a9;opacity:0.9;}.cls-23{fill:#5f5ca6;opacity:0.95;}.cls-24{fill:#5b58a3;}.cls-25{fill:url(#linear-gradient);}.cls-26{fill:url(#linear-gradient-2);}.cls-28{fill:url(#linear-gradient-3);}.cls-29{fill:url(#linear-gradient-4);}.cls-30{fill:url(#linear-gradient-5);}.cls-31{fill:url(#linear-gradient-6);}.cls-32{fill:url(#linear-gradient-7);}.cls-33{fill:url(#linear-gradient-8);}.cls-34{fill:url(#linear-gradient-9);}.cls-35{fill:url(#linear-gradient-10);}.cls-36{fill:url(#linear-gradient-11);}.cls-37{fill:url(#linear-gradient-12);}.cls-38{fill:url(#linear-gradient-13);}.cls-39{fill:url(#linear-gradient-14);}.cls-40{fill:url(#linear-gradient-15);}.cls-41{fill:url(#linear-gradient-16);}.cls-42{fill:url(#linear-gradient-17);}.cls-43{fill:url(#linear-gradient-18);}.cls-44{fill:url(#linear-gradient-19);}.cls-45{fill:url(#linear-gradient-20);}.cls-46{fill:url(#linear-gradient-21);}.cls-47{fill:url(#linear-gradient-22);}.cls-48{fill:url(#linear-gradient-23);}.cls-49{fill:url(#linear-gradient-24);}.cls-50{fill:#fff;}.cls-51{fill:#a9b0de;opacity:0.09;}.cls-52{fill:#a2a9d7;opacity:0.18;}.cls-53{fill:#9ca3cf;opacity:0.27;}.cls-54{fill:#969cc8;opacity:0.36;}.cls-55{fill:#8f96c1;opacity:0.45;}.cls-56{fill:#898fba;opacity:0.55;}.cls-57{fill:#8289b3;opacity:0.64;}.cls-58{fill:#7c82ac;opacity:0.73;}.cls-59{fill:#767ca4;opacity:0.82;}.cls-60{fill:#6f759d;opacity:0.91;}.cls-61{fill:#696f96;}.cls-62,.cls-65{mix-blend-mode:multiply;}.cls-62{opacity:0.3;fill:url(#radial-gradient);}.cls-63{fill:url(#linear-gradient-25);}.cls-64,.cls-86{mix-blend-mode:screen;opacity:0.5;}.cls-64{fill:url(#radial-gradient-2);}.cls-65{fill:url(#radial-gradient-3);}.cls-66{fill:url(#linear-gradient-26);}.cls-67{fill:url(#linear-gradient-27);}.cls-68{fill:url(#linear-gradient-28);}.cls-69{fill:url(#linear-gradient-29);}.cls-70{fill:url(#linear-gradient-30);}.cls-71{fill:url(#linear-gradient-31);}.cls-72{fill:url(#linear-gradient-32);}.cls-73{fill:url(#linear-gradient-33);}.cls-74{fill:url(#linear-gradient-34);}.cls-75{fill:url(#linear-gradient-35);}.cls-102,.cls-104,.cls-107,.cls-76,.cls-81,.cls-84,.cls-85,.cls-93,.cls-94{mix-blend-mode:color-dodge;}.cls-77{fill:url(#Radial_Gradient_1);}.cls-78{fill:url(#Radial_Gradient_1-2);}.cls-79{fill:url(#linear-gradient-36);}.cls-80{fill:url(#linear-gradient-37);}.cls-81{fill:url(#radial-gradient-4);}.cls-82{fill:url(#linear-gradient-38);}.cls-83{fill:url(#linear-gradient-39);}.cls-84{fill:url(#radial-gradient-5);}.cls-85{opacity:0.7;fill:url(#radial-gradient-6);}.cls-86{fill:url(#White_Black_Radial);}.cls-87{fill:#0cb073;}.cls-88{fill:#1f45cc;}.cls-89{fill:url(#linear-gradient-40);}.cls-90{fill:#caff82;}.cls-91{fill:#51a245;}.cls-92{fill:url(#linear-gradient-41);}.cls-93{fill:url(#Radial_Gradient_1-3);}.cls-94{fill:url(#Radial_Gradient_1-4);}.cls-95{fill:#ffe585;}.cls-96{fill:#ff9e6e;}.cls-97{fill:url(#linear-gradient-42);}.cls-98{fill:#00c7c5;}.cls-99{opacity:0.95;}.cls-100{fill:#e5e9ff;}.cls-101{fill:url(#linear-gradient-43);}.cls-102{fill:url(#Radial_Gradient_1-5);}.cls-103{fill:url(#linear-gradient-44);}.cls-104{fill:url(#Radial_Gradient_1-6);}.cls-105{fill:url(#linear-gradient-45);}.cls-106{fill:url(#linear-gradient-46);}.cls-107{fill:url(#Radial_Gradient_1-7);}.cls-108{fill:url(#linear-gradient-47);}.cls-109{fill:url(#linear-gradient-48);}.cls-110{fill:url(#linear-gradient-49);}.cls-111{fill:url(#linear-gradient-50);}.cls-112{fill:url(#linear-gradient-51);}.cls-113{fill:url(#linear-gradient-52);}</style><linearGradient id="linear-gradient" x1="-18.68" y1="81.56" x2="273.04" y2="145.57" gradientUnits="userSpaceOnUse"><stop offset="0" stop-color="#afb6e5"/><stop offset="0.14" stop-color="#b6bce8"/><stop offset="0.35" stop-color="#c8cdf1"/><stop offset="0.58" stop-color="#e5e9ff"/><stop offset="0.86" stop-color="#f5f6ff"/><stop offset="1" stop-color="#fff"/></linearGradient><linearGradient id="linear-gradient-2" x1="-3114.28" y1="27.19" x2="-2987.09" y2="218.44" gradientTransform="translate(3195.8)" gradientUnits="userSpaceOnUse"><stop offset="0.01" stop-color="#273b98"/><stop offset="0.23" stop-color="#2f2ba2"/><stop offset="0.4" stop-color="#361cac"/><stop offset="0.77" stop-color="#440b89"/><stop offset="1" stop-color="#4e0070"/></linearGradient><linearGradient id="linear-gradient-3" x1="116.22" y1="1.07" x2="219.62" y2="208.21" gradientUnits="userSpaceOnUse"><stop offset="0" stop-color="#b3bae7"/><stop offset="0.19" stop-color="#b7bde9"/><stop offset="0.28" stop-color="#bac0e9"/><stop offset="0.41" stop-color="#afb6e5"/><stop offset="0.91" stop-color="#afb6e5"/><stop offset="1" stop-color="#b3bae7"/></linearGradient><linearGradient id="linear-gradient-4" x1="116.18" y1="1.1" x2="219.57" y2="208.24" gradientUnits="userSpaceOnUse"><stop offset="0" stop-color="#b4bbe8"/><stop offset="0.19" stop-color="#b9beea"/><stop offset="0.28" stop-color="#bcc2ea"/><stop offset="0.41" stop-color="#b2b8e6"/><stop offset="0.43" stop-color="#b2b8e6"/><stop offset="0.54" stop-color="#b3b9e6"/><stop offset="0.72" stop-color="#afb6e5"/><stop offset="0.91" stop-color="#afb6e5"/><stop offset="1" stop-color="#b4bbe8"/></linearGradient><linearGradient id="linear-gradient-5" x1="116.14" y1="1.14" x2="219.52" y2="208.26" gradientUnits="userSpaceOnUse"><stop offset="0" stop-color="#b5bce8"/><stop offset="0.19" stop-color="#bac0ea"/><stop offset="0.28" stop-color="#bdc3eb"/><stop offset="0.41" stop-color="#b4bbe7"/><stop offset="0.43" stop-color="#b4bbe7"/><stop offset="0.54" stop-color="#b7bde7"/><stop offset="0.72" stop-color="#afb6e5"/><stop offset="0.91" stop-color="#afb6e5"/><stop offset="1" stop-color="#b5bce8"/></linearGradient><linearGradient id="linear-gradient-6" x1="116.1" y1="1.17" x2="219.48" y2="208.28" gradientUnits="userSpaceOnUse"><stop offset="0" stop-color="#b7bde9"/><stop offset="0.19" stop-color="#bcc1eb"/><stop offset="0.28" stop-color="#bfc5ec"/><stop offset="0.41" stop-color="#b7bde9"/><stop offset="0.43" stop-color="#b7bde9"/><stop offset="0.54" stop-color="#bac0e9"/><stop offset="0.72" stop-color="#afb6e5"/><stop offset="0.91" stop-color="#afb6e5"/><stop offset="1" stop-color="#b7bde9"/></linearGradient><linearGradient id="linear-gradient-7" x1="116.06" y1="1.21" x2="219.43" y2="208.31" gradientUnits="userSpaceOnUse"><stop offset="0" stop-color="#b8bfe9"/><stop offset="0.19" stop-color="#bdc3ec"/><stop offset="0.28" stop-color="#c1c6ec"/><stop offset="0.41" stop-color="#b9c0ea"/><stop offset="0.43" stop-color="#b9c0ea"/><stop offset="0.54" stop-color="#bec4ea"/><stop offset="0.72" stop-color="#afb6e5"/><stop offset="0.91" stop-color="#afb6e5"/><stop offset="1" stop-color="#b8bfe9"/></linearGradient><linearGradient id="linear-gradient-8" x1="116.02" y1="1.24" x2="219.39" y2="208.33" gradientUnits="userSpaceOnUse"><stop offset="0" stop-color="#b9c0ea"/><stop offset="0.19" stop-color="#bfc4ed"/><stop offset="0.28" stop-color="#c2c8ed"/><stop offset="0.41" stop-color="#bcc2eb"/><stop offset="0.43" stop-color="#bcc2eb"/><stop offset="0.54" stop-color="#c2c7eb"/><stop offset="0.72" stop-color="#afb6e5"/><stop offset="0.91" stop-color="#afb6e5"/><stop offset="1" stop-color="#b9c0ea"/></linearGradient><linearGradient id="linear-gradient-9" x1="115.98" y1="1.28" x2="219.34" y2="208.35" gradientUnits="userSpaceOnUse"><stop offset="0" stop-color="#bac1ea"/><stop offset="0.19" stop-color="#c0c6ed"/><stop offset="0.28" stop-color="#c4c9ee"/><stop offset="0.41" stop-color="#bec4ec"/><stop offset="0.43" stop-color="#bec5ec"/><stop offset="0.54" stop-color="#c6cbec"/><stop offset="0.7" stop-color="#b2b9e6"/><stop offset="0.72" stop-color="#afb6e5"/><stop offset="0.91" stop-color="#afb6e5"/><stop offset="1" stop-color="#bac1ea"/><stop offset="1" stop-color="#bac1ea"/></linearGradient><linearGradient id="linear-gradient-10" x1="115.94" y1="1.31" x2="219.29" y2="208.37" gradientUnits="userSpaceOnUse"><stop offset="0" stop-color="#bcc2eb"/><stop offset="0.19" stop-color="#c2c7ee"/><stop offset="0.28" stop-color="#c6cbef"/><stop offset="0.41" stop-color="#c1c7ed"/><stop offset="0.43" stop-color="#c1c7ee"/><stop offset="0.54" stop-color="#caceee"/><stop offset="0.68" stop-color="#b6bde7"/><stop offset="0.72" stop-color="#afb6e5"/><stop offset="0.91" stop-color="#afb6e5"/><stop offset="0.99" stop-color="#bac0ea"/><stop offset="1" stop-color="#bcc2eb"/></linearGradient><linearGradient id="linear-gradient-11" x1="115.9" y1="1.34" x2="219.25" y2="208.4" gradientUnits="userSpaceOnUse"><stop offset="0" stop-color="#bdc3ec"/><stop offset="0.19" stop-color="#c4c9ef"/><stop offset="0.28" stop-color="#c7cdf0"/><stop offset="0.41" stop-color="#c3c9ef"/><stop offset="0.43" stop-color="#c4c9ef"/><stop offset="0.54" stop-color="#cdd2ef"/><stop offset="0.66" stop-color="#b9c0e8"/><stop offset="0.72" stop-color="#afb6e5"/><stop offset="0.91" stop-color="#afb6e5"/><stop offset="0.98" stop-color="#bac0ea"/><stop offset="1" stop-color="#bdc3ec"/></linearGradient><linearGradient id="linear-gradient-12" x1="115.86" y1="1.38" x2="219.2" y2="208.42" gradientUnits="userSpaceOnUse"><stop offset="0" stop-color="#bec4ec"/><stop offset="0.19" stop-color="#c5caef"/><stop offset="0.28" stop-color="#c9cef1"/><stop offset="0.41" stop-color="#c6cbf0"/><stop offset="0.43" stop-color="#c6ccf0"/><stop offset="0.53" stop-color="#d0d4f0"/><stop offset="0.54" stop-color="#d1d5f0"/><stop offset="0.65" stop-color="#bdc3ea"/><stop offset="0.72" stop-color="#afb6e5"/><stop offset="0.91" stop-color="#afb6e5"/><stop offset="0.98" stop-color="#bac0ea"/><stop offset="1" stop-color="#bec4ec"/></linearGradient><linearGradient id="linear-gradient-13" x1="115.82" y1="1.41" x2="219.15" y2="208.44" gradientUnits="userSpaceOnUse"><stop offset="0" stop-color="#bfc5ed"/><stop offset="0.19" stop-color="#c7ccf0"/><stop offset="0.28" stop-color="#cbd0f2"/><stop offset="0.41" stop-color="#c8cef1"/><stop offset="0.43" stop-color="#c9cef1"/><stop offset="0.52" stop-color="#d3d7f1"/><stop offset="0.54" stop-color="#d5d9f1"/><stop offset="0.64" stop-color="#c1c7eb"/><stop offset="0.72" stop-color="#afb6e5"/><stop offset="0.91" stop-color="#afb6e5"/><stop offset="0.98" stop-color="#bac0ea"/><stop offset="1" stop-color="#bfc5ed"/></linearGradient><linearGradient id="linear-gradient-14" x1="115.78" y1="1.45" x2="219.11" y2="208.47" gradientUnits="userSpaceOnUse"><stop offset="0" stop-color="#c1c7ed"/><stop offset="0.19" stop-color="#c8cdf1"/><stop offset="0.28" stop-color="#ccd1f2"/><stop offset="0.41" stop-color="#cbd0f2"/><stop offset="0.43" stop-color="#cbd1f3"/><stop offset="0.51" stop-color="#d5d9f3"/><stop offset="0.54" stop-color="#d9dcf3"/><stop offset="0.63" stop-color="#c5caec"/><stop offset="0.72" stop-color="#afb6e5"/><stop offset="0.91" stop-color="#afb6e5"/><stop offset="0.97" stop-color="#bac0ea"/><stop offset="1" stop-color="#c1c7ed"/></linearGradient><linearGradient id="linear-gradient-15" x1="115.74" y1="1.48" x2="219.06" y2="208.49" gradientUnits="userSpaceOnUse"><stop offset="0" stop-color="#c2c8ee"/><stop offset="0.19" stop-color="#cacff2"/><stop offset="0.28" stop-color="#ced3f3"/><stop offset="0.41" stop-color="#cdd3f3"/><stop offset="0.43" stop-color="#ced3f4"/><stop offset="0.51" stop-color="#d8dcf4"/><stop offset="0.54" stop-color="#dde0f4"/><stop offset="0.62" stop-color="#c9ceee"/><stop offset="0.72" stop-color="#afb6e5"/><stop offset="0.91" stop-color="#afb6e5"/><stop offset="0.97" stop-color="#bac0ea"/><stop offset="1" stop-color="#c2c8ee"/></linearGradient><linearGradient id="linear-gradient-16" x1="115.7" y1="1.52" x2="219.01" y2="208.51" gradientUnits="userSpaceOnUse"><stop offset="0" stop-color="#c3c9ee"/><stop offset="0.19" stop-color="#cbd0f2"/><stop offset="0.28" stop-color="#d0d4f4"/><stop offset="0.41" stop-color="#d0d5f4"/><stop offset="0.43" stop-color="#d0d6f5"/><stop offset="0.5" stop-color="#dadef5"/><stop offset="0.54" stop-color="#e1e3f5"/><stop offset="0.62" stop-color="#cdd1ef"/><stop offset="0.72" stop-color="#afb6e5"/><stop offset="0.91" stop-color="#afb6e5"/><stop offset="0.97" stop-color="#bac0ea"/><stop offset="1" stop-color="#c3c9ee"/></linearGradient><linearGradient id="linear-gradient-17" x1="115.66" y1="1.55" x2="218.97" y2="208.54" gradientUnits="userSpaceOnUse"><stop offset="0" stop-color="#c4caef"/><stop offset="0.19" stop-color="#cdd2f3"/><stop offset="0.28" stop-color="#d1d6f5"/><stop offset="0.41" stop-color="#d2d7f6"/><stop offset="0.43" stop-color="#d3d8f6"/><stop offset="0.5" stop-color="#dde1f6"/><stop offset="0.54" stop-color="#e4e7f6"/><stop offset="0.61" stop-color="#d0d5f0"/><stop offset="0.72" stop-color="#afb6e5"/><stop offset="0.91" stop-color="#afb6e5"/><stop offset="0.96" stop-color="#bac0ea"/><stop offset="1" stop-color="#c4caef"/></linearGradient><linearGradient id="linear-gradient-18" x1="115.61" y1="1.58" x2="218.92" y2="208.56" gradientUnits="userSpaceOnUse"><stop offset="0" stop-color="#c6cbf0"/><stop offset="0.19" stop-color="#cfd3f4"/><stop offset="0.28" stop-color="#d3d8f6"/><stop offset="0.41" stop-color="#d5daf7"/><stop offset="0.43" stop-color="#d6daf8"/><stop offset="0.5" stop-color="#e0e3f8"/><stop offset="0.54" stop-color="#e8eaf8"/><stop offset="0.61" stop-color="#d4d8f1"/><stop offset="0.72" stop-color="#afb6e5"/><stop offset="0.91" stop-color="#afb6e5"/><stop offset="0.96" stop-color="#bac0ea"/><stop offset="1" stop-color="#c6cbf0"/></linearGradient><linearGradient id="linear-gradient-19" x1="115.57" y1="1.62" x2="218.88" y2="208.58" gradientUnits="userSpaceOnUse"><stop offset="0" stop-color="#c7ccf0"/><stop offset="0.19" stop-color="#d0d5f4"/><stop offset="0.28" stop-color="#d5d9f7"/><stop offset="0.41" stop-color="#d7dcf8"/><stop offset="0.43" stop-color="#d8ddf9"/><stop offset="0.49" stop-color="#e2e6f9"/><stop offset="0.54" stop-color="#eceef9"/><stop offset="0.61" stop-color="#d8dcf3"/><stop offset="0.72" stop-color="#afb6e5"/><stop offset="0.91" stop-color="#afb6e5"/><stop offset="0.96" stop-color="#bac0ea"/><stop offset="1" stop-color="#c7ccf0"/></linearGradient><linearGradient id="linear-gradient-20" x1="115.53" y1="1.65" x2="218.83" y2="208.6" gradientUnits="userSpaceOnUse"><stop offset="0" stop-color="#c8cdf1"/><stop offset="0.19" stop-color="#d2d6f5"/><stop offset="0.28" stop-color="#d6dbf8"/><stop offset="0.41" stop-color="#dadef9"/><stop offset="0.43" stop-color="#dbdffa"/><stop offset="0.49" stop-color="#e5e8fa"/><stop offset="0.54" stop-color="#f0f1fa"/><stop offset="0.6" stop-color="#dcdff4"/><stop offset="0.72" stop-color="#afb6e5"/><stop offset="0.91" stop-color="#afb6e5"/><stop offset="0.96" stop-color="#bac0ea"/><stop offset="1" stop-color="#c8cdf1"/></linearGradient><linearGradient id="linear-gradient-21" x1="115.49" y1="1.69" x2="218.78" y2="208.63" gradientUnits="userSpaceOnUse"><stop offset="0" stop-color="#c9cff1"/><stop offset="0.19" stop-color="#d3d8f6"/><stop offset="0.28" stop-color="#d8dcf8"/><stop offset="0.41" stop-color="#dce1fa"/><stop offset="0.43" stop-color="#dde2fb"/><stop offset="0.49" stop-color="#e7eafb"/><stop offset="0.54" stop-color="#f4f5fb"/><stop offset="0.6" stop-color="#e0e3f5"/><stop offset="0.72" stop-color="#afb6e5"/><stop offset="0.91" stop-color="#afb6e5"/><stop offset="0.96" stop-color="#bac0ea"/><stop offset="1" stop-color="#c9cff1"/></linearGradient><linearGradient id="linear-gradient-22" x1="115.45" y1="1.72" x2="218.74" y2="208.65" gradientUnits="userSpaceOnUse"><stop offset="0" stop-color="#cbd0f2"/><stop offset="0.19" stop-color="#d5d9f7"/><stop offset="0.28" stop-color="#dadef9"/><stop offset="0.41" stop-color="#dfe3fc"/><stop offset="0.43" stop-color="#e0e4fd"/><stop offset="0.49" stop-color="#eaedfd"/><stop offset="0.54" stop-color="#f7f8fd"/><stop offset="0.6" stop-color="#e3e6f6"/><stop offset="0.72" stop-color="#b1b8e6"/><stop offset="0.72" stop-color="#afb6e5"/><stop offset="0.91" stop-color="#afb6e5"/><stop offset="0.95" stop-color="#bac0ea"/><stop offset="1" stop-color="#cbd0f2"/></linearGradient><linearGradient id="linear-gradient-23" x1="115.41" y1="1.75" x2="218.69" y2="208.67" gradientUnits="userSpaceOnUse"><stop offset="0" stop-color="#ccd1f2"/><stop offset="0.19" stop-color="#d6dbf7"/><stop offset="0.28" stop-color="#dbdffa"/><stop offset="0.41" stop-color="#e1e6fd"/><stop offset="0.43" stop-color="#e2e7fe"/><stop offset="0.48" stop-color="#eceffe"/><stop offset="0.54" stop-color="#fbfcfe"/><stop offset="0.59" stop-color="#e7eaf8"/><stop offset="0.71" stop-color="#b5bbe7"/><stop offset="0.72" stop-color="#afb6e5"/><stop offset="0.91" stop-color="#afb6e5"/><stop offset="0.95" stop-color="#bac0ea"/><stop offset="1" stop-color="#ccd1f2"/></linearGradient><linearGradient id="linear-gradient-24" x1="115.37" y1="1.79" x2="218.64" y2="208.7" gradientUnits="userSpaceOnUse"><stop offset="0" stop-color="#cdd2f3"/><stop offset="0.43" stop-color="#e5e9ff"/><stop offset="0.48" stop-color="#eff2ff"/><stop offset="0.54" stop-color="#fff"/><stop offset="0.59" stop-color="#ebedf9"/><stop offset="0.7" stop-color="#b9bfe8"/><stop offset="0.72" stop-color="#afb6e5"/><stop offset="0.91" stop-color="#afb6e5"/><stop offset="0.95" stop-color="#bac0ea"/><stop offset="1" stop-color="#cdd2f3"/></linearGradient><radialGradient id="radial-gradient" cx="93.38" cy="1484.61" r="31.79" gradientTransform="translate(-24.9 -797) scale(1 0.66)" gradientUnits="userSpaceOnUse"><stop offset="0.42" stop-color="#f5f6f8"/><stop offset="0.55" stop-color="#f2f3f8"/><stop offset="0.65" stop-color="#e9ebf7"/><stop offset="0.73" stop-color="#daddf5"/><stop offset="0.77" stop-color="#ced3f4"/><stop offset="0.84" stop-color="#d8dcf6"/><stop offset="0.96" stop-color="#f4f5fc"/><stop offset="1" stop-color="#fff"/></radialGradient><linearGradient id="linear-gradient-25" x1="125.06" y1="180.14" x2="59.17" y2="180.14" gradientUnits="userSpaceOnUse"><stop offset="0" stop-color="#b9bfea"/><stop offset="0.25" stop-color="#e5e9ff"/><stop offset="0.7" stop-color="#afb6e5"/><stop offset="0.95" stop-color="#bac0ea"/><stop offset="1" stop-color="#bdc3ec"/></linearGradient><radialGradient id="radial-gradient-2" cx="-43.35" cy="290.44" r="34.21" gradientTransform="translate(134.1 -95.9) scale(0.96)" gradientUnits="userSpaceOnUse"><stop offset="0.01" stop-color="#b0fbff"/><stop offset="1" stop-color="#5277f7"/></radialGradient><radialGradient id="radial-gradient-3" cx="-43.35" cy="290.44" r="34.21" gradientTransform="translate(134.1 -95.9) scale(0.96)" gradientUnits="userSpaceOnUse"><stop offset="0.5" stop-color="#fdfeff"/><stop offset="0.6" stop-color="#f5fbff"/><stop offset="0.76" stop-color="#e0f1ff"/><stop offset="0.95" stop-color="#bee1ff"/><stop offset="1" stop-color="#b4ddff"/></radialGradient><linearGradient id="linear-gradient-26" x1="77.68" y1="130.26" x2="99.03" y2="209.55" gradientUnits="userSpaceOnUse"><stop offset="0" stop-color="#afb6e5"/><stop offset="0.14" stop-color="#b6bce8"/><stop offset="0.35" stop-color="#c8cdf1"/><stop offset="0.58" stop-color="#e5e9ff"/><stop offset="0.95" stop-color="#f5f4fc"/><stop offset="1" stop-color="#f7f6fb"/></linearGradient><linearGradient id="linear-gradient-27" x1="76.69" y1="197.93" x2="77.48" y2="176.63" gradientUnits="userSpaceOnUse"><stop offset="0.04" stop-color="#836df3"/><stop offset="0.36" stop-color="#926df3"/><stop offset="0.99" stop-color="#bb6df3"/><stop offset="1" stop-color="#bb6df3"/></linearGradient><linearGradient id="linear-gradient-28" x1="115.67" y1="187.47" x2="100.52" y2="200.88" gradientUnits="userSpaceOnUse"><stop offset="0.01" stop-color="#5277f7"/><stop offset="0.9" stop-color="#836df3"/></linearGradient><linearGradient id="linear-gradient-29" x1="108.5" y1="178.31" x2="114.97" y2="187.3" gradientUnits="userSpaceOnUse"><stop offset="0.04" stop-color="#00c7c5"/><stop offset="0.23" stop-color="#0fc8ce"/><stop offset="0.62" stop-color="#38cae5"/><stop offset="1" stop-color="#6cf"/></linearGradient><linearGradient id="linear-gradient-30" x1="110.44" y1="177.95" x2="79.37" y2="175.59" gradientUnits="userSpaceOnUse"><stop offset="0.04" stop-color="#2be9a3"/><stop offset="0.19" stop-color="#3aeb9b"/><stop offset="0.49" stop-color="#63ef85"/><stop offset="0.9" stop-color="#a4f562"/><stop offset="1" stop-color="#b4f759"/></linearGradient><linearGradient id="linear-gradient-31" x1="92.95" y1="180.99" x2="105.1" y2="185.88" xlink:href="#linear-gradient-28"/><linearGradient id="linear-gradient-32" x1="103.31" y1="192.37" x2="85.64" y2="192.37" xlink:href="#linear-gradient-27"/><linearGradient id="linear-gradient-33" x1="83.04" y1="181.79" x2="85.09" y2="191.57" xlink:href="#linear-gradient-30"/><linearGradient id="linear-gradient-34" x1="5764.49" y1="-2451.89" x2="5770.98" y2="-2451.89" gradientTransform="matrix(1, -0.58, 0.87, 0.5, -3554.62, 4738.16)" xlink:href="#linear-gradient-29"/><linearGradient id="linear-gradient-35" x1="58.7" y1="199.91" x2="127.3" y2="199.91" gradientUnits="userSpaceOnUse"><stop offset="0" stop-color="#b9bfea"/><stop offset="0.11" stop-color="#e5e9ff"/><stop offset="0.17" stop-color="#fff"/><stop offset="0.4" stop-color="#dfe3fc"/><stop offset="0.7" stop-color="#afb6e5"/><stop offset="0.95" stop-color="#bac0ea"/><stop offset="1" stop-color="#bdc3ec"/></linearGradient><radialGradient id="Radial_Gradient_1" cx="-29.01" cy="283.91" r="24.11" gradientTransform="translate(134.1 -95.9) scale(0.96)" gradientUnits="userSpaceOnUse"><stop offset="0" stop-color="#fff"/><stop offset="1"/></radialGradient><radialGradient id="Radial_Gradient_1-2" cx="-56.18" cy="312.22" r="26.49" xlink:href="#Radial_Gradient_1"/><linearGradient id="linear-gradient-36" x1="4629.87" y1="204.35" x2="4633.17" y2="209.84" gradientTransform="matrix(-1, 0, 0, 1, 4748.43, 0)" xlink:href="#linear-gradient-35"/><linearGradient id="linear-gradient-37" x1="2451.03" y1="209.4" x2="2461.6" y2="207.03" gradientTransform="matrix(-1, 0, 0, 1, 2576.04, 0)" gradientUnits="userSpaceOnUse"><stop offset="0" stop-color="#9f79c8"/><stop offset="0.14" stop-color="#a580cb"/><stop offset="0.33" stop-color="#b492d3"/><stop offset="0.55" stop-color="#cdb0e1"/><stop offset="0.58" stop-color="#d1b4e3"/><stop offset="0.76" stop-color="#dbc4e9"/><stop offset="1" stop-color="#ebdef3"/></linearGradient><radialGradient id="radial-gradient-4" cx="2457.26" cy="207.37" r="2.02" gradientTransform="matrix(-1, 0, 0, 1, 2576.04, 0)" gradientUnits="userSpaceOnUse"><stop offset="0" stop-color="#fff"/><stop offset="0.02" stop-color="#f7f7f7"/><stop offset="0.13" stop-color="#bebebe"/><stop offset="0.25" stop-color="#8b8b8b"/><stop offset="0.37" stop-color="#606060"/><stop offset="0.49" stop-color="#3e3e3e"/><stop offset="0.62" stop-color="#232323"/><stop offset="0.74" stop-color="#0f0f0f"/><stop offset="0.87" stop-color="#040404"/><stop offset="1"/></radialGradient><linearGradient id="linear-gradient-38" x1="4610.78" y1="213.25" x2="4616.62" y2="222.96" gradientTransform="matrix(-1, 0, 0, 1, 4748.43, 0)" gradientUnits="userSpaceOnUse"><stop offset="0" stop-color="#3b3aba"/><stop offset="0.14" stop-color="#564bd7"/><stop offset="0.23" stop-color="#6152e3"/><stop offset="0.4" stop-color="#4528c9"/><stop offset="0.48" stop-color="#4221a9"/><stop offset="0.57" stop-color="#401b8d"/><stop offset="0.63" stop-color="#3f1982"/><stop offset="0.87" stop-color="#5e239e"/><stop offset="1" stop-color="#491c8b"/></linearGradient><linearGradient id="linear-gradient-39" x1="148.52" y1="225.45" x2="155.93" y2="229.76" gradientUnits="userSpaceOnUse"><stop offset="0.08" stop-color="#3f1982"/><stop offset="1" stop-color="#5e239e"/></linearGradient><radialGradient id="radial-gradient-5" cx="2426.97" cy="225.32" r="3.63" xlink:href="#radial-gradient-4"/><radialGradient id="radial-gradient-6" cx="4694.14" cy="548.91" r="17.94" gradientTransform="matrix(-1, 0, 0, 0.61, 4765.81, -153.36)" gradientUnits="userSpaceOnUse"><stop offset="0.01" stop-color="#fff"/><stop offset="0.02" stop-color="#f7f7f7"/><stop offset="0.18" stop-color="#b7b7b7"/><stop offset="0.34" stop-color="#7f7f7f"/><stop offset="0.5" stop-color="#515151"/><stop offset="0.64" stop-color="#2e2e2e"/><stop offset="0.78" stop-color="#151515"/><stop offset="0.9" stop-color="#050505"/><stop offset="1"/></radialGradient><radialGradient id="White_Black_Radial" cx="86.25" cy="186.16" r="32.28" gradientTransform="matrix(1, 0, 0, 1, 0, 0)" xlink:href="#Radial_Gradient_1"/><linearGradient id="linear-gradient-40" x1="136.93" y1="132.1" x2="78.7" y2="74.22" gradientUnits="userSpaceOnUse"><stop offset="0.11" stop-color="#84efa9"/><stop offset="0.14" stop-color="#80f0ad"/><stop offset="0.49" stop-color="#51f8d8"/><stop offset="0.77" stop-color="#34fdf3"/><stop offset="0.92" stop-color="#29fffd"/></linearGradient><linearGradient id="linear-gradient-41" x1="196.31" y1="83.9" x2="46.88" y2="136.18" gradientUnits="userSpaceOnUse"><stop offset="0.01" stop-color="#b4f759"/><stop offset="0.1" stop-color="#90ed6f"/><stop offset="0.32" stop-color="#35d5a5"/><stop offset="0.44" stop-color="#00c7c5"/><stop offset="0.6" stop-color="#2d9be0"/><stop offset="0.74" stop-color="#5277f7"/><stop offset="0.78" stop-color="#5b76f7"/><stop offset="0.85" stop-color="#7374f6"/><stop offset="0.94" stop-color="#9a70f4"/><stop offset="1" stop-color="#bb6df3"/></linearGradient><radialGradient id="Radial_Gradient_1-3" cx="191.61" cy="62.1" r="26.97" gradientTransform="matrix(1, 0, 0, 1, 0, 0)" xlink:href="#Radial_Gradient_1"/><radialGradient id="Radial_Gradient_1-4" cx="103.88" cy="118.34" r="46.5" gradientTransform="matrix(1, 0, 0, 1, 0, 0)" xlink:href="#Radial_Gradient_1"/><linearGradient id="linear-gradient-42" x1="141.02" y1="181.07" x2="99.07" y2="182.02" gradientUnits="userSpaceOnUse"><stop offset="0.07" stop-color="#00c7c5"/><stop offset="0.25" stop-color="#09beca"/><stop offset="0.54" stop-color="#21a7d9"/><stop offset="0.91" stop-color="#4881f1"/><stop offset="0.99" stop-color="#5277f7"/></linearGradient><linearGradient id="linear-gradient-43" x1="26.88" y1="74.11" x2="58.17" y2="133.57" gradientUnits="userSpaceOnUse"><stop offset="0.13" stop-color="#ffe585"/><stop offset="0.24" stop-color="#d9ee6f"/><stop offset="0.37" stop-color="#b4f759"/><stop offset="0.41" stop-color="#a7f361"/><stop offset="0.5" stop-color="#84ea76"/><stop offset="0.61" stop-color="#4cdb98"/><stop offset="0.74" stop-color="#00c7c5"/><stop offset="0.88" stop-color="#2d9be0"/><stop offset="1" stop-color="#5277f7"/></linearGradient><radialGradient id="Radial_Gradient_1-5" cx="2751.41" cy="117.53" r="20.18" gradientTransform="translate(-2714.4 -17.5)" xlink:href="#Radial_Gradient_1"/><linearGradient id="linear-gradient-44" x1="7.95" y1="77.68" x2="43.72" y2="141.39" xlink:href="#linear-gradient-43"/><radialGradient id="Radial_Gradient_1-6" cx="2739.46" cy="134.72" r="15.56" gradientTransform="translate(-2714.4 -17.5)" xlink:href="#Radial_Gradient_1"/><linearGradient id="linear-gradient-45" x1="2738.94" y1="159.67" x2="2732.14" y2="171.45" gradientTransform="translate(-2714.4 -17.5)" gradientUnits="userSpaceOnUse"><stop offset="0" stop-color="#5513ab"/><stop offset="1" stop-color="#be3bff"/></linearGradient><linearGradient id="linear-gradient-46" x1="-5.75" y1="82.21" x2="28.01" y2="149.72" xlink:href="#linear-gradient-43"/><radialGradient id="Radial_Gradient_1-7" cx="2727.67" cy="152.75" r="11.35" gradientTransform="translate(-2714.4 -17.5)" xlink:href="#Radial_Gradient_1"/><linearGradient id="linear-gradient-47" x1="193.09" y1="184.63" x2="201.64" y2="171.96" xlink:href="#linear-gradient-42"/><linearGradient id="linear-gradient-48" x1="91.65" y1="87.99" x2="87.21" y2="70.74" xlink:href="#linear-gradient-42"/><linearGradient id="linear-gradient-49" x1="214.79" y1="75.35" x2="217.79" y2="88.65" xlink:href="#linear-gradient-42"/><linearGradient id="linear-gradient-50" x1="169.44" y1="93.91" x2="190.02" y2="105.46" xlink:href="#linear-gradient-42"/><linearGradient id="linear-gradient-51" x1="169.51" y1="93.77" x2="190.09" y2="105.33" xlink:href="#linear-gradient-42"/><linearGradient id="linear-gradient-52" x1="169.59" y1="93.64" x2="190.17" y2="105.2" xlink:href="#linear-gradient-42"/></defs><g class="cls-1"><g id="Layer_1" data-name="Layer 1"><g class="cls-2"><path class="cls-3" d="M204.2,216.8a9.9,9.9,0,0,1-4.7-1.1l-56.2-32.8L87.1,150.1a5.1,5.1,0,0,1-2.7-4.3,5.8,5.8,0,0,1,3.3-4.9l.9-7.7a11.1,11.1,0,0,1,5.8-1.5,8.9,8.9,0,0,1,4.7,1.2l60,34.4,60,34.4a5.1,5.1,0,0,1,2.7,4.4,5.8,5.8,0,0,1-3.3,4.9l-8.5,4.4A12.4,12.4,0,0,1,204.2,216.8Z" transform="translate(-24.9 -17.5)"/><path class="cls-4" d="M88.6,133.7a12.1,12.1,0,0,1,5.7-1.5,8.8,8.8,0,0,1,4.7,1l3.1,1.7,56.7,32.6,3.8,2.2,55.9,32.1a5.2,5.2,0,0,1,2.8,4.2c.1,1.9-1.1,3.7-3.1,4.9l-4.6,2.4-3.9,2a12,12,0,0,1-5.7,1.3,10.2,10.2,0,0,1-4.7-1.2l-55.8-32.5-3.4-2L87.6,150.3a5.3,5.3,0,0,1-2.7-4.2,5.6,5.6,0,0,1,2.9-4.9V140C87.8,140,88.5,133.8,88.6,133.7Z" transform="translate(-24.9 -17.5)"/><path class="cls-5" d="M88.7,134.2a16.7,16.7,0,0,1,5.5-1.6,8.8,8.8,0,0,1,4.7,1,30.7,30.7,0,0,1,3.1,1.7l56.5,32.4,3.8,2.2,55.7,32c1.5.9,2.8,2.5,2.8,4.1a5.3,5.3,0,0,1-3,4.9l-4.5,2.4-3.9,1.9a11.5,11.5,0,0,1-5.6,1.2,9.8,9.8,0,0,1-4.6-1.2l-55.5-32.4-3.3-1.9L88.2,150.5a5.4,5.4,0,0,1-2.9-4.2,5.3,5.3,0,0,1,2.6-4.7v-1.2A32.9,32.9,0,0,1,88.7,134.2Z" transform="translate(-24.9 -17.5)"/><path class="cls-6" d="M88.7,134.7a16,16,0,0,1,5.5-1.6,9.2,9.2,0,0,1,4.7.8l3.1,1.7,56.2,32.3,3.8,2.2,55.4,31.8a6.4,6.4,0,0,1,3,4.1,5.2,5.2,0,0,1-2.9,4.8l-4.5,2.4-3.9,1.9a11.1,11.1,0,0,1-5.5,1.1,9.9,9.9,0,0,1-4.6-1.3l-55.1-32.1-3.3-1.9L88.7,150.6c-1.4-.8-2.9-2.5-2.9-4s.4-3.6,2.2-4.6v-1.2C87.7,140.7,88.4,134.9,88.7,134.7Z" transform="translate(-24.9 -17.5)"/><path class="cls-7" d="M88.8,135.2a17.3,17.3,0,0,1,5.3-1.6,9.2,9.2,0,0,1,4.7.7c.2,0,2.9,1.5,3.1,1.6l56,32.1,3.8,2.2L216.9,202a6.3,6.3,0,0,1,3,4c.2,1.7-.7,3.5-2.8,4.8l-4.4,2.3a28.1,28.1,0,0,1-3.9,1.9,10.9,10.9,0,0,1-5.4,1,10.8,10.8,0,0,1-4.5-1.3l-54.8-32-3.3-1.9-51.5-30c-1.4-.8-3-2.5-3-3.9s.1-3.6,1.8-4.5v-1.1C87.6,141,88.3,135.5,88.8,135.2Z" transform="translate(-24.9 -17.5)"/><path class="cls-8" d="M88.8,135.7A21.2,21.2,0,0,1,94,134a10.3,10.3,0,0,1,4.7.6,30.1,30.1,0,0,1,3.1,1.6l55.7,32,3.8,2.2,55,31.6c1.3.8,2.9,2.6,3.1,3.9a4.7,4.7,0,0,1-2.6,4.8l-4.4,2.4-3.8,1.8a10.8,10.8,0,0,1-5.4.9,11.3,11.3,0,0,1-4.5-1.4l-54.4-31.7-3.3-1.9L89.8,151c-1.3-.8-3-2.5-3-3.9s-.2-3.4,1.4-4.3v-1.1C87.6,141.4,88.3,136,88.8,135.7Z" transform="translate(-24.9 -17.5)"/><path class="cls-9" d="M88.8,136.2a26.4,26.4,0,0,1,5.2-1.7,8.8,8.8,0,0,1,4.6.5,17.7,17.7,0,0,1,3.1,1.5l55.5,31.9,3.8,2.2,54.8,31.5c1.2.7,2.9,2.5,3.1,3.8a4.3,4.3,0,0,1-2.5,4.7l-4.3,2.4-3.8,1.8a10.6,10.6,0,0,1-5.3.8,12.6,12.6,0,0,1-4.4-1.4l-54.1-31.5-3.3-1.9L90.4,151.2c-1.3-.7-3.1-2.5-3.1-3.8s-.5-3.4,1-4.3l-.2-1C87.6,141.8,88.2,136.6,88.8,136.2Z" transform="translate(-24.9 -17.5)"/><path class="cls-10" d="M88.9,136.8a21.5,21.5,0,0,1,5-1.9,7.9,7.9,0,0,1,4.6.5,18.3,18.3,0,0,1,3.2,1.4l55.2,31.8,3.8,2.2,54.5,31.3c1.2.7,3.3,2.6,3.3,3.8s-.3,3.5-2.4,4.7l-4.3,2.4-3.8,1.7a11.1,11.1,0,0,1-5.1.7,11.4,11.4,0,0,1-4.4-1.5l-53.8-31.3-3.3-1.8L90.9,151.4c-1.1-.7-3.2-2.5-3.2-3.7s-.7-3.4.7-4.2l-.2-1C87.5,142.1,88.1,137.2,88.9,136.8Z" transform="translate(-24.9 -17.5)"/><path class="cls-11" d="M88.9,137.3a24.7,24.7,0,0,1,5-1.9,7.6,7.6,0,0,1,4.5.3,18.3,18.3,0,0,1,3.2,1.4l55,31.7,3.8,2.1,54.3,31.3c1.1.6,3.3,2.5,3.3,3.6s-.1,3.5-2.2,4.7l-4.3,2.4a25.9,25.9,0,0,1-3.8,1.7,10.8,10.8,0,0,1-5,.6,14.3,14.3,0,0,1-4.4-1.5l-53.4-31.1-3.2-1.9L91.5,151.5c-1.1-.6-3.3-2.5-3.3-3.5s-1-3.4.3-4.1l-.3-1C87.5,142.5,88.1,137.8,88.9,137.3Z" transform="translate(-24.9 -17.5)"/><path class="cls-12" d="M88.9,137.8a29.2,29.2,0,0,1,4.9-1.9,7.2,7.2,0,0,1,4.6.2,16.9,16.9,0,0,1,3.1,1.3L156.3,169l3.8,2.1,54,31.2c1,.5,3.4,2.5,3.4,3.5s.1,3.4-2.1,4.7l-4.2,2.4a33.4,33.4,0,0,1-3.8,1.6,9.1,9.1,0,0,1-4.9.5,11.6,11.6,0,0,1-4.3-1.6l-53.1-30.8-3.2-1.9L92,151.7c-1-.6-3.3-2.5-3.3-3.5s-1.3-3.2-.1-3.9l-.3-1C87.4,142.8,88,138.3,88.9,137.8Z" transform="translate(-24.9 -17.5)"/><path class="cls-13" d="M89,138.3a51.1,51.1,0,0,1,4.7-2,8,8,0,0,1,4.6.1,14.4,14.4,0,0,1,3.1,1.3L156,169.2l3.7,2.1,53.9,31c.9.5,3.4,2.5,3.4,3.5s.2,3.4-1.9,4.6l-4.2,2.4a24.3,24.3,0,0,1-3.7,1.6,10.4,10.4,0,0,1-4.9.4,14.7,14.7,0,0,1-4.3-1.6l-52.7-30.7-3.2-1.8L92.5,151.9c-.9-.5-3.3-2.5-3.3-3.4s-1.6-3.2-.5-3.9l-.4-.9C87.4,143.2,87.9,138.9,89,138.3Z" transform="translate(-24.9 -17.5)"/><path class="cls-14" d="M89,138.8a51.1,51.1,0,0,1,4.7-2,6.9,6.9,0,0,1,4.5,0,14.3,14.3,0,0,1,3.1,1.2l54.4,31.3,3.7,2.2L213,202.4c.9.4,3.6,2.5,3.6,3.3s.3,3.4-1.9,4.6l-4.1,2.5a23.9,23.9,0,0,1-3.7,1.5,9.9,9.9,0,0,1-4.8.3,14.2,14.2,0,0,1-4.2-1.7l-52.4-30.4-3.2-1.8L93.1,152.1c-.8-.5-3.4-2.5-3.4-3.3s-1.9-3.2-.9-3.8l-.4-.9C87.4,143.6,87.9,139.5,89,138.8Z" transform="translate(-24.9 -17.5)"/><path class="cls-15" d="M89.1,139.3l4.5-2.1a7.7,7.7,0,0,1,4.5-.1,11.2,11.2,0,0,1,3.2,1.2l54.1,31.2,3.7,2.1,53.4,30.8c.7.5,3.6,2.5,3.6,3.3s.5,3.3-1.7,4.6l-4.1,2.4a16.9,16.9,0,0,1-3.7,1.5,9.4,9.4,0,0,1-4.7.2c-.8,0-3.6-1.4-4.2-1.7l-52-30.2-3.2-1.9L93.6,152.2c-.7-.4-3.4-2.4-3.4-3.2s-2.2-3.1-1.3-3.6l-.5-.9C87.3,143.9,87.8,140,89.1,139.3Z" transform="translate(-24.9 -17.5)"/><path class="cls-16" d="M89.1,139.8l4.4-2.1a7,7,0,0,1,4.5-.2,10.1,10.1,0,0,1,3.2,1.1l53.9,31.1,3.7,2.1,53.1,30.7c.7.4,3.7,2.5,3.7,3.2s.6,3.3-1.6,4.5l-4,2.5a14.9,14.9,0,0,1-3.7,1.4,9,9,0,0,1-4.6.1,18.9,18.9,0,0,1-4.1-1.8l-51.7-30-3.1-1.8L94.2,152.4c-.7-.4-3.6-2.4-3.6-3.1s-2.4-3.1-1.6-3.5l-.5-.8C87.3,144.3,87.7,140.6,89.1,139.8Z" transform="translate(-24.9 -17.5)"/><path class="cls-17" d="M89.1,140.3l4.4-2.1a7.6,7.6,0,0,1,4.5-.4,10.4,10.4,0,0,1,3.1,1.1l53.7,31,3.7,2.1,52.9,30.5c.6.4,3.8,2.5,3.8,3.1s.7,3.3-1.5,4.6l-4,2.4A14.9,14.9,0,0,1,206,214a8.6,8.6,0,0,1-4.5,0,24.3,24.3,0,0,1-4-1.8l-51.4-29.8-3.1-1.8-48.3-28c-.6-.3-3.6-2.4-3.6-3s-2.7-3-2-3.4l-.6-.8C87.2,144.6,87.7,141.2,89.1,140.3Z" transform="translate(-24.9 -17.5)"/><path class="cls-18" d="M89.2,140.8c.4-.2,3.6-2.2,4.2-2.2a9.8,9.8,0,0,1,4.5-.4,10.3,10.3,0,0,1,3.1,1l53.5,30.9,3.6,2.1,52.8,30.4c.4.3,3.8,2.5,3.8,3s.8,3.2-1.3,4.5l-4,2.5a13.5,13.5,0,0,1-3.7,1.3,9.3,9.3,0,0,1-4.4-.1,20.9,20.9,0,0,1-4-1.9l-51-29.6-3.1-1.7L95.3,152.8c-.5-.3-3.7-2.4-3.7-2.9s-3-3-2.4-3.4l-.6-.7C87.2,145,87.6,141.8,89.2,140.8Z" transform="translate(-24.9 -17.5)"/><path class="cls-19" d="M89.2,141.4a24.6,24.6,0,0,1,4.2-2.3,9.3,9.3,0,0,1,4.4-.6,15,15,0,0,1,3.2,1l53.2,30.8,3.6,2.1,52.5,30.3c.4.2,3.9,2.4,3.9,2.9,1.5,1.3,1,3.2-1.2,4.5l-3.8,2.4a12.6,12.6,0,0,1-3.7,1.3,9.3,9.3,0,0,1-4.4-.2,28.1,28.1,0,0,1-3.9-1.9l-50.7-29.4-3.1-1.8L95.8,152.9c-.4-.2-3.7-2.4-3.7-2.8s-3.3-2.9-2.8-3.2l-.7-.7C87.1,145.3,87.5,142.3,89.2,141.4Z" transform="translate(-24.9 -17.5)"/><path class="cls-20" d="M89.3,141.9a32.6,32.6,0,0,1,4-2.4,9.4,9.4,0,0,1,4.4-.6,8,8,0,0,1,3.2.9l53,30.6,3.6,2.1,52.3,30.2c.3.2,3.9,2.5,3.9,2.8,1.6,1.3,1.2,3.2-1,4.5l-3.8,2.5a12.3,12.3,0,0,1-3.7,1.2,7.7,7.7,0,0,1-4.3-.3,36,36,0,0,1-3.9-2l-50.3-29.1-3.1-1.8L96.4,153.1c-.4-.2-3.8-2.4-3.8-2.7s-3.6-2.9-3.2-3.1l-.7-.7C87.1,145.7,87.5,142.9,89.3,141.9Z" transform="translate(-24.9 -17.5)"/><path class="cls-21" d="M89.3,142.4a31.4,31.4,0,0,1,3.9-2.4,8.5,8.5,0,0,1,4.4-.7,6.3,6.3,0,0,1,3.2.9l52.8,30.4,3.6,2.1,52,30.1a32.3,32.3,0,0,1,4.1,2.7c1.6,1.2,1.2,3.2-1,4.4l-3.7,2.5a11.5,11.5,0,0,1-3.7,1.2,8.3,8.3,0,0,1-4.2-.4c-.2,0-3.6-1.9-3.8-2l-50-29-3-1.7-47-27.2a37.7,37.7,0,0,1-3.9-2.6c0-.3-3.8-2.9-3.5-3l-.8-.7C87.1,146.1,87.4,143.5,89.3,142.4Z" transform="translate(-24.9 -17.5)"/><path class="cls-22" d="M89.3,142.9c.2-.1,3.7-2.4,3.9-2.4a8.3,8.3,0,0,1,4.4-.9,6.3,6.3,0,0,1,3.1.9l52.6,30.3,3.6,2.1,51.8,29.9c.1.1,4.1,2.5,4.1,2.7,1.7,1.2,1.4,3.1-.8,4.4l-3.7,2.5a11.4,11.4,0,0,1-3.7,1.1,7.9,7.9,0,0,1-4.1-.5l-3.8-2.1-49.6-28.7-3-1.7-46.7-27c-.1-.1-3.9-2.4-3.9-2.6s-4.1-2.7-3.9-2.9l-.8-.6C87,146.4,87.3,144,89.3,142.9Z" transform="translate(-24.9 -17.5)"/><path class="cls-23" d="M89.4,143.4l3.7-2.5a8.3,8.3,0,0,1,4.4-.9,6.9,6.9,0,0,1,3.2.8L153,171l3.5,2.1,51.6,29.8,4.2,2.5c1.9,1.2,1.6,3.1-.7,4.4l-3.6,2.5a8.9,8.9,0,0,1-3.7,1.1,6.7,6.7,0,0,1-4-.6l-3.7-2.1-49.3-28.5-3-1.8L98,153.7c-.1-.1-4-2.4-4-2.5s-4.4-2.7-4.3-2.8l-.9-.6C87,146.8,87.3,144.6,89.4,143.4Z" transform="translate(-24.9 -17.5)"/><path class="cls-24" d="M200.1,212.6l-55.6-32.2L88.9,148.3c-2-1.2-1.7-3.1.5-4.4l3.6-2.5a8.5,8.5,0,0,1,7.6-.3l55.6,32.1,55.6,32.2c2,1.1,1.7,3.1-.5,4.4l-3.6,2.5A8.5,8.5,0,0,1,200.1,212.6Z" transform="translate(-24.9 -17.5)"/></g><path class="cls-25" d="M196.6,211.6,85.1,147.2c-5.7-3.3-10.3-12.1-10.3-19.7V29.3c0-7.6,4.6-11.1,10.3-7.8L196.6,85.9c5.7,3.3,10.3,12.1,10.3,19.7v98.2C206.9,211.4,202.3,214.9,196.6,211.6Z" transform="translate(-24.9 -17.5)"/><path class="cls-26" d="M199.6,208.3,86.3,142.8c-4.7-3-7.6-9-7.6-15.1V26.3a1.8,1.8,0,0,1,2.8-1.6l.4.2L195.3,90.4c5.6,3.2,7.6,9,7.6,15.1V206.7a2,2,0,0,1-3,1.7Z" transform="translate(-24.9 -17.5)"/><path class="cls-27" d="M195.3,90.4,81.9,24.9l-.4-.2a1.8,1.8,0,0,0-2.8,1.6V127.7c0,6.1,2.9,12.1,7.6,15.1l113.3,65.5h.3a2,2,0,0,0,3-1.7V105.5C202.9,99.4,200.9,93.6,195.3,90.4Zm6.4,116.3a.8.8,0,0,1-.8.8h-.4L86.9,141.8c-4.2-2.7-7-8.3-7-14.1V26.3a.7.7,0,0,1,.7-.7h.3L194.7,91.4c5.8,3.4,7,9.6,7,14.1Z" transform="translate(-24.9 -17.5)"/><path class="cls-28" d="M201.4,83.2,89.9,18.7a7.3,7.3,0,0,0-6.1-.9l-5.1,3h0c1.8-.9,4-.7,6.4.7L196.6,85.9c5.7,3.3,10.3,12.1,10.3,19.7v98.2c0,4.8-1.8,7.9-4.5,8.8l.9-.3,5.2-3.1c2-1.4,3.2-4.2,3.2-8.1V102.9C211.7,95.3,207.1,86.4,201.4,83.2Z" transform="translate(-24.9 -17.5)"/><path class="cls-29" d="M201.3,83.2,89.8,18.8a7.1,7.1,0,0,0-6-.9l-5.1,2.9h0c1.8-.9,4-.7,6.4.7L196.6,85.9c5.7,3.3,10.3,12.1,10.3,19.7v98.2c0,4.8-1.8,7.9-4.5,8.8l.9-.3,5.1-3.1c2-1.3,3.2-4.2,3.2-8.1V102.9C211.6,95.3,207,86.5,201.3,83.2Z" transform="translate(-24.9 -17.5)"/><path class="cls-30" d="M201.2,83.3,89.7,18.9a6.4,6.4,0,0,0-6-.9c-.2,0-4.8,2.7-5,2.8h0c1.8-.9,4-.7,6.4.7L196.6,85.9c5.7,3.3,10.3,12.1,10.3,19.7v98.2c0,4.8-1.8,7.9-4.5,8.8l.9-.3,5-3c2-1.4,3.2-4.2,3.2-8.1V103C211.5,95.4,206.9,86.6,201.2,83.3Z" transform="translate(-24.9 -17.5)"/><path class="cls-31" d="M201.1,83.3,89.6,18.9a7.1,7.1,0,0,0-6-.9l-4.9,2.8h0c1.8-.9,4-.7,6.4.7L196.6,85.9c5.7,3.3,10.3,12.1,10.3,19.7v98.2c0,4.8-1.8,7.9-4.5,8.8l.9-.3,4.9-2.9c2-1.4,3.2-4.2,3.2-8.1V103C211.4,95.4,206.8,86.6,201.1,83.3Z" transform="translate(-24.9 -17.5)"/><path class="cls-32" d="M201,83.4,89.5,19c-2.2-1.3-4.3-1.6-6-.9l-4.8,2.7h0c1.8-.9,4-.7,6.4.7L196.6,85.9c5.7,3.3,10.3,12.1,10.3,19.7v98.2c0,4.8-1.8,7.9-4.5,8.8l.9-.3,4.9-2.9c1.9-1.4,3.1-4.2,3.1-8.1V103.1C211.3,95.5,206.7,86.7,201,83.4Z" transform="translate(-24.9 -17.5)"/><path class="cls-33" d="M200.9,83.4,89.4,19a7.1,7.1,0,0,0-6-.9l-4.7,2.7h0c1.8-.9,4-.7,6.4.7L196.6,85.9c5.7,3.3,10.3,12.1,10.3,19.7v98.2c0,4.8-1.8,7.9-4.5,8.8l.9-.3,4.8-2.8c1.9-1.4,3.2-4.2,3.2-8.1V103.2C211.3,95.6,206.6,86.7,200.9,83.4Z" transform="translate(-24.9 -17.5)"/><path class="cls-34" d="M200.8,83.5,89.4,19.1c-2.3-1.3-4.4-1.6-6.1-.9l-4.6,2.6h0c1.8-.9,4-.7,6.4.7L196.6,85.9c5.7,3.3,10.3,12.1,10.3,19.7v98.2c0,4.8-1.8,7.9-4.5,8.8l.9-.3,4.7-2.8c1.9-1.3,3.2-4.2,3.2-8.1V103.2C211.2,95.6,206.5,86.8,200.8,83.5Z" transform="translate(-24.9 -17.5)"/><path class="cls-35" d="M200.8,83.6,89.3,19.1c-2.3-1.3-4.4-1.5-6.1-.8-.2,0-4.3,2.4-4.5,2.5h0c1.8-.9,4-.7,6.4.7L196.6,85.9c5.7,3.3,10.3,12.1,10.3,19.7v98.2c0,4.8-1.8,7.9-4.5,8.8l.9-.3,4.6-2.7c2-1.4,3.2-4.2,3.2-8.1V103.3C211.1,95.7,206.5,86.8,200.8,83.6Z" transform="translate(-24.9 -17.5)"/><path class="cls-36" d="M200.7,83.6,89.2,19.2a7.3,7.3,0,0,0-6.1-.9l-4.4,2.5h0c1.8-.9,4-.7,6.4.7L196.6,85.9c5.7,3.3,10.3,12.1,10.3,19.7v98.2c0,4.8-1.8,7.9-4.5,8.8l.9-.3,4.5-2.7c2-1.3,3.2-4.1,3.2-8.1V103.3C211,95.7,206.4,86.9,200.7,83.6Z" transform="translate(-24.9 -17.5)"/><path class="cls-37" d="M200.6,83.7,89.1,19.3c-2.3-1.4-4.3-1.6-6-.9s-4.2,2.3-4.4,2.4h0c1.8-.9,4-.7,6.4.7L196.6,85.9c5.7,3.3,10.3,12.1,10.3,19.7v98.2c0,4.8-1.8,7.9-4.5,8.8l.9-.3,4.4-2.6c2-1.4,3.2-4.2,3.2-8.1V103.4C210.9,95.8,206.3,87,200.6,83.7Z" transform="translate(-24.9 -17.5)"/><path class="cls-38" d="M200.5,83.7,89,19.3a7.1,7.1,0,0,0-6-.9l-4.3,2.4h0c1.8-.9,4-.7,6.4.7L196.6,85.9c5.7,3.3,10.3,12.1,10.3,19.7v98.2c0,4.8-1.8,7.9-4.5,8.8l.9-.3,4.3-2.5c2-1.4,3.2-4.2,3.2-8.1V103.5C210.8,95.9,206.2,87,200.5,83.7Z" transform="translate(-24.9 -17.5)"/><path class="cls-39" d="M200.4,83.8,88.9,19.4c-2.2-1.3-4.3-1.6-6-.9l-4.2,2.3h0c1.8-.9,4-.7,6.4.7L196.6,85.9c5.7,3.3,10.3,12.1,10.3,19.7v98.2c0,4.8-1.8,7.9-4.5,8.8l.9-.3,4.3-2.5c1.9-1.4,3.1-4.2,3.1-8.1V103.5C210.7,95.9,206.1,87.1,200.4,83.8Z" transform="translate(-24.9 -17.5)"/><path class="cls-40" d="M200.3,83.8,88.8,19.4a7.1,7.1,0,0,0-6-.9l-4.1,2.3h0c1.8-.9,4-.7,6.4.7L196.6,85.9c5.7,3.3,10.3,12.1,10.3,19.7v98.2c0,4.8-1.8,7.9-4.5,8.8l.9-.3,4.2-2.4c1.9-1.4,3.1-4.2,3.1-8.1V103.6C210.6,96,206,87.1,200.3,83.8Z" transform="translate(-24.9 -17.5)"/><path class="cls-41" d="M200.2,83.9,88.7,19.5c-2.2-1.3-4.3-1.6-6-.9l-4,2.2h0c1.8-.9,4-.7,6.4.7L196.6,85.9c5.7,3.3,10.3,12.1,10.3,19.7v98.2c0,4.8-1.8,7.9-4.5,8.8l.9-.3,4.1-2.4c1.9-1.3,3.2-4.2,3.2-8.1V103.6C210.6,96,205.9,87.2,200.2,83.9Z" transform="translate(-24.9 -17.5)"/><path class="cls-42" d="M200.2,84,88.7,19.5c-2.3-1.3-4.4-1.5-6.1-.8-.2,0-3.7,2-3.9,2.1h0c1.8-.9,4-.7,6.4.7L196.6,85.9c5.7,3.3,10.3,12.1,10.3,19.7v98.2c0,4.8-1.8,7.9-4.5,8.8l.9-.3,4-2.3c2-1.4,3.2-4.2,3.2-8.1V103.7C210.5,96.1,205.9,87.3,200.2,84Z" transform="translate(-24.9 -17.5)"/><path class="cls-43" d="M200.1,84,88.6,19.6a7.3,7.3,0,0,0-6.1-.9l-3.8,2.1h0c1.8-.9,4-.7,6.4.7L196.6,85.9c5.7,3.3,10.3,12.1,10.3,19.7v98.2c0,4.8-1.8,7.9-4.5,8.8l.9-.3,3.9-2.3c2-1.3,3.2-4.1,3.2-8.1V103.7C210.4,96.1,205.8,87.3,200.1,84Z" transform="translate(-24.9 -17.5)"/><path class="cls-44" d="M200,84.1,88.5,19.7c-2.3-1.3-4.4-1.6-6.1-.9l-3.7,2h0c1.8-.9,4-.7,6.4.7L196.6,85.9c5.7,3.3,10.3,12.1,10.3,19.7v98.2c0,4.8-1.8,7.9-4.5,8.8l.9-.3,3.8-2.2c2-1.4,3.2-4.2,3.2-8.1V103.8C210.3,96.2,205.7,87.4,200,84.1Z" transform="translate(-24.9 -17.5)"/><path class="cls-45" d="M199.9,84.1,88.4,19.7a7.1,7.1,0,0,0-6-.9l-3.7,2h0c1.8-.9,4-.7,6.4.7L196.6,85.9c5.7,3.3,10.3,12.1,10.3,19.7v98.2c0,4.8-1.8,7.9-4.5,8.8l.9-.3,3.7-2.1c2-1.4,3.2-4.2,3.2-8.1V103.9C210.2,96.3,205.6,87.4,199.9,84.1Z" transform="translate(-24.9 -17.5)"/><path class="cls-46" d="M199.8,84.2,88.3,19.8c-2.2-1.3-4.3-1.6-6-.9l-3.6,1.9h0c1.8-.9,4-.7,6.4.7L196.6,85.9c5.7,3.3,10.3,12.1,10.3,19.7v98.2c0,4.8-1.8,7.9-4.5,8.8l.9-.3,3.6-2.1c2-1.4,3.2-4.2,3.2-8.1V103.9C210.1,96.3,205.5,87.5,199.8,84.2Z" transform="translate(-24.9 -17.5)"/><path class="cls-47" d="M199.7,84.2,88.2,19.8a7.1,7.1,0,0,0-6-.9l-3.5,1.9h0c1.8-.9,4-.7,6.4.7L196.6,85.9c5.7,3.3,10.3,12.1,10.3,19.7v98.2c0,4.8-1.8,7.9-4.5,8.8l.9-.3,3.6-2c1.9-1.4,3.1-4.2,3.1-8.1V104C210,96.4,205.4,87.5,199.7,84.2Z" transform="translate(-24.9 -17.5)"/><path class="cls-48" d="M199.6,84.3,88.1,19.9c-2.2-1.3-4.3-1.6-6-.9l-3.4,1.8h0c1.8-.9,4-.7,6.4.7L196.6,85.9c5.7,3.3,10.3,12.1,10.3,19.7v98.2c0,4.8-1.8,7.9-4.5,8.8l.9-.3,3.5-2c1.9-1.3,3.2-4.2,3.2-8.1V104C210,96.4,205.3,87.6,199.6,84.3Z" transform="translate(-24.9 -17.5)"/><path class="cls-49" d="M199.5,84.4,88.1,19.9c-2.3-1.3-4.4-1.5-6.1-.8-.2,0-3.1,1.6-3.3,1.7h0c1.8-.9,4-.7,6.4.7L196.6,85.9c5.7,3.3,10.3,12.1,10.3,19.7v98.2c0,4.8-1.8,7.9-4.5,8.8l.9-.3,3.4-1.9c1.9-1.4,3.2-4.2,3.2-8.1V104.1C209.9,96.5,205.2,87.7,199.5,84.4Z" transform="translate(-24.9 -17.5)"/><path class="cls-50" d="M197.1,85.7,85.6,21.2c-2.3-1.3-4.5-1.5-6.2-.7a7.4,7.4,0,0,1,5,1.1L195.9,86c5.7,3.3,10.3,12.2,10.3,19.8V204c0,4.5-1.6,7.5-4.1,8.6,3.2-.5,5.3-3.8,5.3-9V105.4C207.4,97.8,202.8,89,197.1,85.7Z" transform="translate(-24.9 -17.5)"/><g class="cls-2"><path class="cls-3" d="M148.8,233.1a5.7,5.7,0,0,1-2.7-.6L129.4,223l-16.7-9.5a3,3,0,0,1-1.6-2.5,3.4,3.4,0,0,1,1.9-2.9l3.2-1.9a6.7,6.7,0,0,1,3.4-.9,5.7,5.7,0,0,1,2.7.7l16.7,9.5,16.7,9.5a3,3,0,0,1,1.6,2.5,3.3,3.3,0,0,1-1.9,2.8l-3.2,2A7.7,7.7,0,0,1,148.8,233.1Z" transform="translate(-24.9 -17.5)"/><path class="cls-51" d="M114.3,208.9l2.4-1.5.6-.3a6.6,6.6,0,0,1,3.2-.8l1.4.2,1.1.4,15.8,9,.4.2,15.3,8.8a2.6,2.6,0,0,1,1.4,1.7,1.3,1.3,0,0,1,.1.6,3.1,3.1,0,0,1-1.7,2.7l-2.5,1.5-.5.3a6.9,6.9,0,0,1-3.2.8l-1.4-.2-1.2-.4-15.7-9-.4-.2L114,213.9a2.9,2.9,0,0,1-1.4-1.7c0-.2-.1-.4-.1-.6A3.1,3.1,0,0,1,114.3,208.9Z" transform="translate(-24.9 -17.5)"/><path class="cls-52" d="M115.5,209.7l2.3-1.4.6-.3a5.7,5.7,0,0,1,2.9-.7l1.4.2,1.1.4,14.7,8.4.4.2,14.4,8.2a2.9,2.9,0,0,1,1.4,1.7,4.3,4.3,0,0,1,.1.5,2.6,2.6,0,0,1-1.6,2.5l-2.3,1.4-.6.3a5.7,5.7,0,0,1-2.9.8l-1.4-.2-1.1-.5-14.8-8.4-.3-.2-14.4-8.2a3.1,3.1,0,0,1-1.4-1.6,1.3,1.3,0,0,1-.1-.6A2.7,2.7,0,0,1,115.5,209.7Z" transform="translate(-24.9 -17.5)"/><path class="cls-53" d="M116.7,210.5l2.2-1.3.5-.3a5.2,5.2,0,0,1,2.8-.6h1.3l1,.5,13.8,7.8.4.3,13.4,7.6a3,3,0,0,1,1.3,1.5c.1.2.1.4.2.5a2.8,2.8,0,0,1-1.5,2.4l-2.2,1.3-.5.3a6.4,6.4,0,0,1-2.8.6,2.5,2.5,0,0,1-1.2-.2,1.5,1.5,0,0,1-1-.4l-13.9-7.9-.3-.2-13.5-7.6a3,3,0,0,1-1.3-1.5,1.1,1.1,0,0,1-.1-.5A2.5,2.5,0,0,1,116.7,210.5Z" transform="translate(-24.9 -17.5)"/><path class="cls-54" d="M118,211.3l2-1.2.5-.3a5.5,5.5,0,0,1,2.6-.6l1.1.2,1,.4,12.9,7.4.3.2,12.6,7.1a3.2,3.2,0,0,1,1.2,1.4c0,.1.1.3.1.4a2.2,2.2,0,0,1-1.3,2.2l-2,1.2-.5.3a5.8,5.8,0,0,1-2.6.6l-1.2-.2a2.5,2.5,0,0,1-.9-.4l-12.9-7.3-.4-.2L118,215.3a2.9,2.9,0,0,1-1.2-1.3l-.2-.5A2.3,2.3,0,0,1,118,211.3Z" transform="translate(-24.9 -17.5)"/><path class="cls-55" d="M119.2,212.1l1.9-1.1.4-.2a5.1,5.1,0,0,1,2.5-.6l1,.2.9.4,11.9,6.8.4.2,11.6,6.6c.4.3,1,.8,1.1,1.2s.2.3.2.5a2,2,0,0,1-1.2,2l-1.9,1.1-.4.2a5.1,5.1,0,0,1-2.5.6l-1-.2-.9-.4-11.9-6.8-.4-.2-11.6-6.6a3.3,3.3,0,0,1-1.1-1.3.5.5,0,0,1-.2-.4A2,2,0,0,1,119.2,212.1Z" transform="translate(-24.9 -17.5)"/><path class="cls-56" d="M120.5,212.9l1.7-1,.4-.2a4.2,4.2,0,0,1,2.2-.5l1,.2.8.3,11,6.3.3.2,10.7,6.1a3.8,3.8,0,0,1,1.1,1.1c0,.1.1.2.1.4a1.6,1.6,0,0,1-1,1.8l-1.8,1-.4.3a4,4,0,0,1-2.2.4h-1l-.8-.4-11-6.3-.3-.2-10.7-6.1a3.8,3.8,0,0,1-1.1-1.1v-.3C119.2,214.1,119.6,213.4,120.5,212.9Z" transform="translate(-24.9 -17.5)"/><path class="cls-57" d="M121.7,213.7l1.6-.9.4-.2a3.4,3.4,0,0,1,2-.4l.9.2.7.3,10.1,5.7.2.2,9.8,5.6a2.4,2.4,0,0,1,1,1l.2.3c.2.6-.1,1.2-.9,1.7l-1.6.9-.4.2a4.5,4.5,0,0,1-2,.4l-.9-.2-.7-.3L132,222.4h-.3l-9.7-5.6c-.3-.2-1-.7-1.1-1v-.3A1.4,1.4,0,0,1,121.7,213.7Z" transform="translate(-24.9 -17.5)"/><path class="cls-58" d="M122.9,214.5l1.5-.8.3-.2a3.1,3.1,0,0,1,1.9-.3h.8l.6.3,9.1,5.3h.3l8.8,5.1a3.9,3.9,0,0,1,1,.8l.2.3c.2.5-.1,1.1-.8,1.5l-1.5.8-.3.2a4.1,4.1,0,0,1-1.9.4l-.8-.2-.6-.3-9.1-5.2-.3-.2-8.8-5a9,9,0,0,1-1-.9l-.2-.3C121.9,215.5,122.2,214.9,122.9,214.5Z" transform="translate(-24.9 -17.5)"/><path class="cls-59" d="M124.2,215.3l1.3-.7.3-.2a4.7,4.7,0,0,1,1.7-.3l.7.2.5.3,8.2,4.7h.2L145,224c.2,0,.9.5.9.7a.2.2,0,0,1,.2.2c.3.5,0,1-.6,1.4l-1.3.7-.3.2a3.3,3.3,0,0,1-1.7.2h-.7l-.6-.3-8.1-4.7h-.3l-7.9-4.6-.9-.7-.2-.2C123.3,216.2,123.5,215.7,124.2,215.3Z" transform="translate(-24.9 -17.5)"/><path class="cls-60" d="M125.4,216.1l1.2-.6.2-.2a3.9,3.9,0,0,1,1.5-.2l.7.2.4.3,7.3,4.1h.2l6.9,4,.9.6.2.2c.3.4.1.9-.5,1.3l-1.2.5-.2.2a3,3,0,0,1-1.6.2l-.6-.2-.5-.2-7.2-4.2h-.2l-7-4-.8-.6-.2-.2C124.6,216.9,124.8,216.4,125.4,216.1Z" transform="translate(-24.9 -17.5)"/><path class="cls-61" d="M140.2,226l-6.9-4-6.8-3.9c-.6-.3-.5-.9.1-1.2l1-.5a2.5,2.5,0,0,1,2.2-.1l6.8,3.9,6.8,4c.6.3.5.8-.1,1.2l-1,.5A2.3,2.3,0,0,1,140.2,226Z" transform="translate(-24.9 -17.5)"/></g><ellipse class="cls-62" cx="68.5" cy="178.1" rx="41.9" ry="27.5"/><path class="cls-63" d="M115.4,175.1c-6-3.5-14-5.4-22.6-5.4s-16.4,1.9-22.4,5.3-8.8,7.5-8.8,12c0,.6.1,2.9.1,3.4.7-4,3.7-7.7,8.7-10.6s13.9-5.3,22.4-5.3,16.6,1.9,22.6,5.4,8.2,6.7,8.9,10.7c0-.5.1-2.8.1-3.3C124.4,182.7,121.2,178.4,115.4,175.1Z" transform="translate(-24.9 -17.5)"/><path class="cls-64" d="M92.8,170.7c-8.5,0-16.4,1.8-22.4,5.3s-8.8,7.5-8.8,12,3.2,8.9,9,12.3,14,5.4,22.6,5.4,16.4-1.9,22.4-5.4,8.8-7.5,8.8-12-3.2-8.9-9-12.2S101.4,170.7,92.8,170.7Z" transform="translate(-24.9 -17.5)"/><path class="cls-65" d="M92.8,170.7c-8.5,0-16.4,1.8-22.4,5.3s-8.8,7.5-8.8,12,3.2,8.9,9,12.3,14,5.4,22.6,5.4,16.4-1.9,22.4-5.4,8.8-7.5,8.8-12-3.2-8.9-9-12.2S101.4,170.7,92.8,170.7Z" transform="translate(-24.9 -17.5)"/><path class="cls-66" d="M93.2,207.6c-9.1,0-17.6-2.1-24.1-5.8S58.7,192.7,58.7,187s3.6-10.7,10.3-14.6,14.8-5.7,23.8-5.7,17.6,2.1,24.1,5.8,10.4,9.2,10.4,14.8-3.6,10.8-10.3,14.6S102.2,207.6,93.2,207.6Zm-.4-37.9c-8.5,0-16.4,1.9-22.4,5.3s-8.8,7.5-8.8,12,3.2,8.9,9,12.3,14,5.4,22.6,5.4,16.4-1.9,22.4-5.4,8.8-7.5,8.8-12-3.2-8.9-9-12.2S101.4,169.7,92.8,169.7Z" transform="translate(-24.9 -17.5)"/><path class="cls-67" d="M80.9,194.6c-6.9-3.9-6.9-10.3-.1-14.2l2.1-1.1-4.2-3.5a18.5,18.5,0,0,0-8.2,5.7c-5.8,7.1-.4,15.6,12,19l3.1-3.9A18,18,0,0,1,80.9,194.6Z" transform="translate(-24.9 -17.5)"/><path class="cls-68" d="M117.5,186.4l-6.9.3c.5,2.9-1.2,5.8-5,8a22.7,22.7,0,0,1-8.1,2.6l1.9,4.1C111.1,199.6,118.6,193.3,117.5,186.4Z" transform="translate(-24.9 -17.5)"/><path class="cls-69" d="M105.5,180.4c3.1,1.8,4.8,4,5.1,6.3l6.9-.3c-.5-3.5-2.9-6.4-7.2-8.9l-4.9,2.8Z" transform="translate(-24.9 -17.5)"/><path class="cls-70" d="M105.4,180.3l4.9-2.8c-8.6-5-21.7-5.7-31.6-1.7l4.2,3.5C89.7,176.5,99.2,176.8,105.4,180.3Z" transform="translate(-24.9 -17.5)"/><path class="cls-71" d="M92,179.5l.7,4.6a10.2,10.2,0,0,1,4.7,1,3.6,3.6,0,0,1,1.6,1.7l7.8-1.2a8.4,8.4,0,0,0-3.7-3.8A21.1,21.1,0,0,0,92,179.5Z" transform="translate(-24.9 -17.5)"/><path class="cls-72" d="M97.4,189.9a8.9,8.9,0,0,1-8.4,0l-.5-.3-6.6,2.7,1.4.9c5.5,3.2,14.4,3.2,19.9.1a9.7,9.7,0,0,0,2.6-2.2l-7.3-2Z" transform="translate(-24.9 -17.5)"/><path class="cls-73" d="M88.9,185.2l-5.8-3.4c-4.8,2.9-5.2,7.3-1.2,10.5l6.6-2.7C86.8,188.3,86.9,186.4,88.9,185.2Z" transform="translate(-24.9 -17.5)"/><path class="cls-74" d="M89,185.1a8.8,8.8,0,0,1,3.7-1l-.7-4.6a18.7,18.7,0,0,0-8.7,2.3h-.2l5.8,3.4Z" transform="translate(-24.9 -17.5)"/><path class="cls-75" d="M127.3,187.9c-.3,5.4-3.9,10.3-10.3,14s-14.8,5.7-23.8,5.7-17.6-2.1-24.1-5.8-10.3-8.9-10.4-14.4V192h0c.1,5.6,3.8,10.8,10.4,14.7s15,5.7,24.1,5.7,17.5-2,23.8-5.7,10.1-8.7,10.3-14.2h0Z" transform="translate(-24.9 -17.5)"/><g class="cls-76"><path class="cls-77" d="M115.4,174.7c-6-3.5-14-5.4-22.6-5.4s-16.4,1.9-22.4,5.3-8.8,7.6-8.8,12.1v.2c.1-4.4,3.3-8.6,8.8-11.8s13.9-5.3,22.4-5.3,16.6,1.9,22.6,5.4,8.9,7.5,9,12v-.3C124.4,182.4,121.2,178.1,115.4,174.7Z" transform="translate(-24.9 -17.5)"/><path class="cls-78" d="M117,201.5c-6.3,3.7-14.8,5.7-23.8,5.7s-17.6-2-24.1-5.7-10.3-9-10.4-14.6v.3c0,5.6,3.7,10.9,10.4,14.7s15,5.8,24.1,5.8,17.5-2,23.8-5.7,10.3-9,10.3-14.6v-.2C127.2,192.7,123.6,197.8,117,201.5Z" transform="translate(-24.9 -17.5)"/></g><path class="cls-79" d="M113.3,206.7c0,.5.2,1,.6,1.1l4.6,2.7c.3.2.1-.3.6-.6a4,4,0,0,0,1.9-3.2c0-.6.5-.6.2-.8l-4.7-2.6a1.5,1.5,0,0,0-1.3.1A4.4,4.4,0,0,0,113.3,206.7Z" transform="translate(-24.9 -17.5)"/><path class="cls-80" d="M118,209.3c0,1.2.8,1.7,1.8,1.1a4.1,4.1,0,0,0,1.9-3.2c0-1.2-.8-1.7-1.9-1.1A4.1,4.1,0,0,0,118,209.3Z" transform="translate(-24.9 -17.5)"/><path class="cls-81" d="M119.8,206a1.3,1.3,0,0,1,1.2-.1,1.5,1.5,0,0,0-1.1.2,4.2,4.2,0,0,0-1.9,3.2,1.6,1.6,0,0,0,.6,1.3,1.3,1.3,0,0,1-.7-1.3A4.1,4.1,0,0,1,119.8,206Z" transform="translate(-24.9 -17.5)"/><path class="cls-82" d="M117.3,210.6a2.5,2.5,0,0,0,1,2.2l30.2,18.1c.6.4.2-.4,1.1-.9a7.4,7.4,0,0,0,3.4-5.8c0-1.1.9-1.1.4-1.4L123,204.6a2.4,2.4,0,0,0-2.3.2A7.4,7.4,0,0,0,117.3,210.6Z" transform="translate(-24.9 -17.5)"/><path class="cls-83" d="M147.6,228.8c0,2.1,1.5,3,3.4,1.9a7.3,7.3,0,0,0,3.3-5.8c0-2.1-1.5-3-3.3-1.9A7.4,7.4,0,0,0,147.6,228.8Z" transform="translate(-24.9 -17.5)"/><path class="cls-84" d="M150.8,222.9a2.4,2.4,0,0,1,2.3-.2,2.3,2.3,0,0,0-2,.4,7.1,7.1,0,0,0-3.4,5.7,2.3,2.3,0,0,0,1.1,2.2c-.8-.2-1.3-1-1.3-2.3A7.6,7.6,0,0,1,150.8,222.9Z" transform="translate(-24.9 -17.5)"/><ellipse class="cls-85" cx="72.5" cy="181.1" rx="24.5" ry="15" transform="translate(-62.4 2.5) rotate(-12.5)"/><path class="cls-86" d="M115.4,176.1c-6-3.5-14-5.4-22.6-5.4a49.4,49.4,0,0,0-15.2,2.2c16.8,5,29.9,15.6,35.4,28.8l2.6-1.4c5.6-3.2,8.8-7.5,8.8-12S121.2,179.4,115.4,176.1Z" transform="translate(-24.9 -17.5)"/><g class="cls-2"><path class="cls-3" d="M88.8,159.1a3.9,3.9,0,0,0,2-.5l3.7-2.7a2.1,2.1,0,0,0,1.2-1.8,2.4,2.4,0,0,0-1.4-2.1l-12.7-7.8a5,5,0,0,0-2.4-.6,3.9,3.9,0,0,0-2,.5l-3.9,2.6a2.2,2.2,0,0,0-1.2,1.8,2.5,2.5,0,0,0,1.4,2.1l12.9,7.8A4.8,4.8,0,0,0,88.8,159.1Z" transform="translate(-24.9 -17.5)"/><path class="cls-4" d="M73.5,146.6a2.1,2.1,0,0,0,.1,3.8l6.4,4,4.6,2.8,1.4.8a4.4,4.4,0,0,0,2.3.6,3.8,3.8,0,0,0,1.9-.4l3.6-2.6a2.1,2.1,0,0,0-.1-3.8l-6.3-4L82.8,145l-1.3-.7a4.6,4.6,0,0,0-2.3-.6,4.2,4.2,0,0,0-2,.4Z" transform="translate(-24.9 -17.5)"/><path class="cls-5" d="M73.6,146.6a2.2,2.2,0,0,0-1.1,1.7,2.3,2.3,0,0,0,1.1,1.9c0,.1,6,3.8,6.1,3.9l4.5,2.7,1.3.8a4.6,4.6,0,0,0,2.3.6,4.8,4.8,0,0,0,1.8-.4l3.5-2.5a2.2,2.2,0,0,0,1.2-1.7,2.3,2.3,0,0,0-1.2-2l-6-3.8-4.5-2.7-1.2-.8a5.1,5.1,0,0,0-2.2-.5,2.8,2.8,0,0,0-1.9.4Z" transform="translate(-24.9 -17.5)"/><path class="cls-6" d="M73.8,146.5a2.2,2.2,0,0,0-1.1,1.7,2,2,0,0,0,1,1.8c-.1.1,5.6,3.7,5.8,3.8l4.3,2.6,1.3.8a5.1,5.1,0,0,0,2.2.5,3.1,3.1,0,0,0,1.7-.4l3.4-2.3a2.1,2.1,0,0,0,1.2-1.7,2,2,0,0,0-1-1.8c.1-.1-5.7-3.7-5.8-3.8l-4.3-2.6-1.2-.7a4,4,0,0,0-2.2-.6,4.3,4.3,0,0,0-1.7.4Z" transform="translate(-24.9 -17.5)"/><path class="cls-7" d="M74,146.5a1.9,1.9,0,0,0-.2,3.4c-.2.1,5.3,3.5,5.4,3.6l4.2,2.5,1.2.8a5,5,0,0,0,2.1.5,3.4,3.4,0,0,0,1.8-.4l3.2-2.2a2.2,2.2,0,0,0,1.1-1.6,1.8,1.8,0,0,0-.8-1.8c.1-.1-5.3-3.6-5.5-3.7l-4.1-2.5-1.2-.7a4.6,4.6,0,0,0-2.1-.5,3.3,3.3,0,0,0-1.7.4Z" transform="translate(-24.9 -17.5)"/><path class="cls-8" d="M74.2,146.4a2,2,0,0,0-1.1,1.5,2,2,0,0,0,.7,1.8,58.6,58.6,0,0,0,5.2,3.5l4,2.4,1.2.8a4.6,4.6,0,0,0,2,.5,3.3,3.3,0,0,0,1.7-.4l3.1-2.1a2,2,0,0,0,1.1-1.6,1.9,1.9,0,0,0-.7-1.7,46.8,46.8,0,0,0-5.2-3.5l-3.9-2.4-1.1-.7a4.6,4.6,0,0,0-2.1-.5,3.8,3.8,0,0,0-1.6.3Z" transform="translate(-24.9 -17.5)"/><path class="cls-9" d="M74.4,146.4c-.5.3-1.1.9-1.1,1.4s0,1.4.6,1.7,4.6,3.3,4.9,3.5l3.8,2.2a4.7,4.7,0,0,0,1.2.7,3.8,3.8,0,0,0,1.9.5,4.1,4.1,0,0,0,1.6-.3l3-2a2.3,2.3,0,0,0,1.1-1.5,1.8,1.8,0,0,0-.6-1.7,49.8,49.8,0,0,0-4.8-3.4l-3.9-2.3-1-.6a3.5,3.5,0,0,0-2-.5,4.1,4.1,0,0,0-1.6.3Z" transform="translate(-24.9 -17.5)"/><path class="cls-10" d="M74.6,146.3c-.5.3-1.1.9-1.1,1.4s-.1,1.3.5,1.6,4.2,3.2,4.5,3.4l3.7,2.2,1.1.6a3.8,3.8,0,0,0,1.9.5,3.7,3.7,0,0,0,1.5-.3c.2,0,2.8-1.9,2.9-1.9s1.1-1,1.1-1.4.1-1.3-.5-1.7-4.2-3.1-4.5-3.3L82,145.2l-1-.6a5.3,5.3,0,0,0-1.9-.5,3.7,3.7,0,0,0-1.5.3A30.5,30.5,0,0,0,74.6,146.3Z" transform="translate(-24.9 -17.5)"/><path class="cls-11" d="M74.7,146.2c-.4.3-1,.9-1,1.4s-.2,1.3.3,1.6,3.9,3,4.3,3.2l3.5,2.1,1.1.6a4.8,4.8,0,0,0,1.8.5,3.2,3.2,0,0,0,1.4-.3,26.8,26.8,0,0,0,2.8-1.8c.5-.3,1.1-.9,1.1-1.4s.2-1.2-.4-1.6-3.8-3-4.2-3.2l-3.5-2-1-.6a3.5,3.5,0,0,0-1.8-.5l-1.5.3C77.5,144.5,74.9,146.2,74.7,146.2Z" transform="translate(-24.9 -17.5)"/><path class="cls-12" d="M74.9,146.2c-.4.2-1.1.9-1.1,1.3s-.2,1.2.3,1.5,3.5,2.9,3.9,3.1l3.4,2,1,.6a3.3,3.3,0,0,0,1.7.4l1.4-.2a24.6,24.6,0,0,0,2.7-1.7c.4-.3,1.1-.9,1.1-1.3s.2-1.2-.3-1.5-3.5-2.9-3.9-3.1l-3.3-2-1-.6a4.7,4.7,0,0,0-1.7-.4,3.2,3.2,0,0,0-1.4.3C77.5,144.6,75.1,146.1,74.9,146.2Z" transform="translate(-24.9 -17.5)"/><path class="cls-13" d="M75.1,146.1c-.4.2-1.1.9-1.1,1.3s-.3,1.2.2,1.4,3.1,2.8,3.6,3l3.2,1.9,1,.6a4.2,4.2,0,0,0,1.6.4l1.4-.2,2.5-1.6c.4-.2,1.1-.9,1.1-1.3s.3-1.2-.1-1.4-3.2-2.8-3.7-3l-3.2-1.9-.9-.5a3.8,3.8,0,0,0-2.9-.2A23.4,23.4,0,0,0,75.1,146.1Z" transform="translate(-24.9 -17.5)"/><path class="cls-14" d="M75.3,146.1c-.4.2-1.1.8-1.1,1.2s-.4,1.1,0,1.4,2.9,2.6,3.3,2.8l3.1,1.8.9.6a4.1,4.1,0,0,0,1.6.3,1.9,1.9,0,0,0,1.3-.2c.2,0,2.2-1.3,2.4-1.4s1.1-.9,1.1-1.2.4-1.2,0-1.4-2.8-2.6-3.3-2.9l-3.1-1.8-.8-.5a4.1,4.1,0,0,0-1.6-.3,1.9,1.9,0,0,0-1.3.2C77.6,144.7,75.5,146,75.3,146.1Z" transform="translate(-24.9 -17.5)"/><path class="cls-15" d="M75.5,146c-.3.2-1.1.8-1.1,1.1s-.5,1.2-.1,1.4,2.5,2.5,3,2.8l2.9,1.6.9.5a2.4,2.4,0,0,0,1.5.4,2.5,2.5,0,0,0,1.2-.2,17.1,17.1,0,0,0,2.3-1.3c.3-.2,1.1-.8,1.1-1.1s.5-1.2.1-1.4-2.5-2.5-3-2.8l-2.9-1.6-.8-.5-1.5-.4-1.2.2A18.3,18.3,0,0,0,75.5,146Z" transform="translate(-24.9 -17.5)"/><path class="cls-16" d="M75.6,146c-.2.1-1,.8-1,1s-.6,1.1-.2,1.3,2.1,2.4,2.7,2.7l2.7,1.6.9.4a3.3,3.3,0,0,0,1.3.4l1.2-.2a15.5,15.5,0,0,0,2.2-1.2c.3-.2,1.1-.8,1.1-1.1s.5-1.1.2-1.3-2.1-2.3-2.7-2.6l-2.7-1.6-.8-.4a3.3,3.3,0,0,0-1.4-.4,2.5,2.5,0,0,0-1.2.2A12.7,12.7,0,0,0,75.6,146Z" transform="translate(-24.9 -17.5)"/><path class="cls-17" d="M75.8,145.9c-.2.1-1,.8-1,1s-.7,1.1-.4,1.2,1.8,2.2,2.4,2.6l2.6,1.5.8.4a3.1,3.1,0,0,0,1.3.3,2,2,0,0,0,1.1-.1,13.9,13.9,0,0,0,2.1-1.1c.3-.1,1-.8,1-1s.7-1.1.4-1.2-1.7-2.3-2.4-2.6l-2.6-1.5-.7-.4a2.8,2.8,0,0,0-1.3-.3H78A22.6,22.6,0,0,0,75.8,145.9Z" transform="translate(-24.9 -17.5)"/><path class="cls-18" d="M76,145.8c-.2.2-1,.8-1,1s-.7,1-.5,1.2,1.4,2,2.1,2.4l2.4,1.4.8.4a2.4,2.4,0,0,0,1.2.3h1a9.3,9.3,0,0,0,2-1c.2-.1,1-.8,1-1s.8-1,.5-1.1-1.4-2.1-2-2.5L81,145.5l-.7-.4a2.4,2.4,0,0,0-1.2-.3,1.6,1.6,0,0,0-1,.1A13.3,13.3,0,0,0,76,145.8Z" transform="translate(-24.9 -17.5)"/><path class="cls-19" d="M76.2,145.8c-.2.1-1,.7-1,.9s-.8,1-.6,1.1,1,1.9,1.7,2.3l2.3,1.3.7.4,1.2.3h.9a11.1,11.1,0,0,0,1.9-.9c.2-.1,1-.7,1-.9s.8-1,.6-1.1-1-1.9-1.7-2.4l-2.3-1.2-.7-.4-1.1-.3h-1A6.6,6.6,0,0,0,76.2,145.8Z" transform="translate(-24.9 -17.5)"/><path class="cls-20" d="M76.4,145.7c-.2.1-1,.7-1,.9s-.9.9-.8,1,.7,1.8,1.5,2.3l2.1,1.1.7.4,1.1.2h.9a5.3,5.3,0,0,0,1.7-.8c.1-.1,1-.7,1-.9s.9-.9.7-1-.7-1.8-1.4-2.2l-2.1-1.2-.6-.3-1.1-.3h-.9A9.6,9.6,0,0,0,76.4,145.7Z" transform="translate(-24.9 -17.5)"/><path class="cls-21" d="M76.6,145.7l-1,.8c0,.1-1,.9-.9.9s.4,1.7,1.2,2.2l1.9,1,.6.3a1.9,1.9,0,0,0,1,.3h.9l1.6-.7a8.7,8.7,0,0,0,1-.8c0-.1,1-.9.9-1s-.4-1.6-1.2-2.1l-2-1.1-.5-.2a1.9,1.9,0,0,0-1-.3h-.9A4.6,4.6,0,0,0,76.6,145.7Z" transform="translate(-24.9 -17.5)"/><path class="cls-22" d="M76.7,145.6l-1,.8s-1,.8-.9.9,0,1.5.8,2l1.8.9.6.3.9.3h.8a3.8,3.8,0,0,0,1.5-.5l1-.7,1-.9c.7-.5,0-1.6-.9-2.1l-1.8-.9-.5-.3-.9-.2h-.8A4.9,4.9,0,0,0,76.7,145.6Z" transform="translate(-24.9 -17.5)"/><path class="cls-23" d="M76.9,145.6l-1,.6a8.7,8.7,0,0,1-1.1.9c-.7.4-.3,1.4.6,1.9l1.6.9.6.2.8.2h.7a2.9,2.9,0,0,0,1.4-.4,6.1,6.1,0,0,0,1-.7l1.1-.8c.8-.5.3-1.4-.5-2l-1.7-.8-.5-.2-.8-.2h-.7A3.8,3.8,0,0,0,76.9,145.6Z" transform="translate(-24.9 -17.5)"/><path class="cls-24" d="M79.8,149.6l2.2-1.4c.8-.5.7-1.3-.2-1.8l-1.5-.8a3.6,3.6,0,0,0-3.2-.1l-2.2,1.4c-.8.5-.7,1.3.2,1.8l1.5.8A3.6,3.6,0,0,0,79.8,149.6Z" transform="translate(-24.9 -17.5)"/></g><polygon class="cls-87" points="126.2 130.7 133.1 126.8 184.1 91.9 177.3 95.8 126.2 130.7"/><polygon class="cls-88" points="54.6 134.9 61.4 131 96.8 105.8 89.9 109.7 54.6 134.9"/><polygon class="cls-89" points="90.3 98.6 97.2 94.7 133.3 115.6 126.4 119.5 90.3 98.6"/><polygon class="cls-90" points="166.3 84.6 173.1 80.7 200 72.3 193.2 76.2 166.3 84.6"/><polygon class="cls-91" points="182.1 100.8 189 96.9 200 72.3 193.2 76.2 182.1 100.8"/><polygon class="cls-92" points="166.3 84.6 171.2 89.5 171.3 89.7 126.4 119.5 90.3 98.6 46.5 130 54.6 134.9 89.9 109.7 126.3 130.7 177.3 95.8 177.4 96 182.1 100.8 193.2 76.2 166.3 84.6"/><polygon class="cls-93" points="193 76.6 199.6 72.6 192.7 76.3 166.3 84.6 166.8 85.1 193 76.6"/><polygon class="cls-94" points="90.3 99.3 126.4 120.2 171.3 90.4 171.2 90.2 171 90 126.4 119.5 90.3 98.6 46.5 130 47 130.3 90.3 99.3"/><polygon class="cls-95" points="189.2 155.6 185 156.5 186.5 151.7 182.4 145.8 187.5 148.7 189.2 144.1 190.8 150.6 195.9 153.7 191.9 154.9 193.3 161.3 189.2 155.6"/><polygon class="cls-96" points="191.9 154.9 193.3 161.3 193.3 161.3 193.3 161.3 194.3 160.7 192.9 154.6 191.9 154.9"/><polygon class="cls-96" points="187.5 148.7 187.8 147.7 183.3 145.2 182.5 145.9 183.7 146.6 187.5 148.7"/><polygon class="cls-96" points="191.8 150 190.1 143.5 189.2 144.1 189.2 144.1 190.8 150.6 195.9 153.7 195.9 153.7 196.9 153.1 191.8 150"/><polygon class="cls-50" points="191.9 154.9 193.3 161.3 193.3 161.3 193.3 161.3 192.2 154.8 191.9 154.9"/><polygon class="cls-50" points="187.5 148.7 187.6 148.4 182.5 145.9 183.7 146.6 187.5 148.7"/><polygon class="cls-50" points="191.1 150.5 189.2 144.1 189.2 144.1 190.8 150.6 195.9 153.7 195.9 153.7 191.1 150.5"/><polygon class="cls-95" points="174.4 147.1 170.2 148 171.7 143.3 167.6 137.4 172.7 140.2 174.4 135.7 176.1 142.2 181.2 145.2 177.1 146.4 178.6 152.9 174.4 147.1"/><polygon class="cls-96" points="177.1 146.4 178.6 152.9 178.6 152.9 178.6 152.9 179.5 152.3 178.1 146.1 177.1 146.4"/><polygon class="cls-96" points="172.7 140.2 173.1 139.3 168.6 136.8 167.8 137.5 169 138.2 172.7 140.2"/><polygon class="cls-96" points="177 141.6 175.3 135.1 174.4 135.7 174.4 135.7 176.1 142.2 181.2 145.2 181.2 145.2 182.1 144.6 177 141.6"/><polygon class="cls-50" points="177.1 146.4 178.6 152.9 178.6 152.9 178.6 152.9 177.4 146.3 177.1 146.4"/><polygon class="cls-50" points="172.7 140.2 172.8 139.9 167.8 137.5 169 138.2 172.7 140.2"/><polygon class="cls-50" points="176.4 142 174.4 135.7 174.4 135.7 176.1 142.2 181.2 145.2 181.2 145.2 176.4 142"/><polygon class="cls-95" points="159.7 138.7 155.5 139.6 157 134.9 152.9 129 158 131.8 159.7 127.2 161.3 133.7 166.4 136.8 162.4 138 163.8 144.4 159.7 138.7"/><polygon class="cls-96" points="162.4 138 163.8 144.4 163.8 144.4 163.8 144.4 164.8 143.8 163.4 137.7 162.4 138"/><polygon class="cls-96" points="158 131.8 158.3 130.9 153.8 128.4 153 129 154.2 129.7 158 131.8"/><polygon class="cls-96" points="162.3 133.1 160.6 126.6 159.7 127.2 159.7 127.2 161.3 133.7 166.4 136.8 166.4 136.8 167.4 136.2 162.3 133.1"/><polygon class="cls-50" points="162.4 138 163.8 144.4 163.8 144.4 163.8 144.4 162.7 137.9 162.4 138"/><polygon class="cls-50" points="158 131.8 158.1 131.5 153 129 154.2 129.7 158 131.8"/><polygon class="cls-50" points="161.6 133.6 159.7 127.2 159.7 127.2 161.3 133.7 166.4 136.8 166.4 136.8 161.6 133.6"/><polygon class="cls-95" points="144.9 130.3 140.7 131.2 142.2 126.4 138.1 120.5 143.2 123.4 144.9 118.8 146.6 125.3 151.7 128.4 147.6 129.6 149.1 136 144.9 130.3"/><polygon class="cls-96" points="147.6 129.6 149.1 136 149.1 136 149.1 136 150 135.4 148.6 129.3 147.6 129.6"/><polygon class="cls-96" points="143.2 123.4 143.6 122.4 139.1 119.9 138.3 120.6 139.5 121.3 143.2 123.4"/><polygon class="cls-96" points="147.5 124.7 145.8 118.2 144.9 118.8 144.9 118.8 146.6 125.3 151.7 128.4 151.7 128.4 152.6 127.8 147.5 124.7"/><polygon class="cls-50" points="147.6 129.6 149.1 136 149.1 136 149.1 136 147.9 129.5 147.6 129.6"/><polygon class="cls-50" points="143.2 123.4 143.3 123.1 138.3 120.6 139.5 121.3 143.2 123.4"/><polygon class="cls-50" points="146.9 125.2 144.9 118.8 144.9 118.8 146.6 125.3 151.7 128.4 151.7 128.4 146.9 125.2"/><path class="cls-27" d="M152.1,190.8l1.6.9-6.1,4.9-1.2-.7,1.2-.9h0l-1.3-.8-1.6.7-1.1-.6Zm-3.6,3.5,3.1-2.4h-.1l-4.1,1.8Z" transform="translate(-24.9 -17.5)"/><path class="cls-27" d="M155.4,192.7l1.5.8-3.3,3.2h0l4.4-2.5,1,.6-7.3,4.2-1.2-.7,4-3.9h0l-5.4,3.1-1-.6Z" transform="translate(-24.9 -17.5)"/><path class="cls-27" d="M160.8,195.8l1.5.9-6.1,4.9-1.1-.7,1.2-.9h0l-1.3-.8-1.6.7-1.1-.6Zm-3.6,3.5,3-2.3h0l-4.1,1.8Z" transform="translate(-24.9 -17.5)"/><path class="cls-27" d="M164.1,197.7l1.1.7L159,202l1.9,1.1-1.1.6-3-1.8Z" transform="translate(-24.9 -17.5)"/><path class="cls-27" d="M163.6,202.3l2.8-3.2,1.3.7-1.9,2h0l3.5-1.1,1.1.6-5.6,1.7-3.1,1.7-1.2-.6Z" transform="translate(-24.9 -17.5)"/><path class="cls-27" d="M170.8,202.8l-1.2-.7,1-.6,3.6,2-1,.6-1.2-.6-6.3,3.6-1.2-.7Z" transform="translate(-24.9 -17.5)"/><path class="cls-27" d="M174.8,203.9l1.1.6-7.3,4.2-1.1-.6Z" transform="translate(-24.9 -17.5)"/><path class="cls-27" d="M170.2,209.2c0-.3.3-.6.9-1L175,206a4.3,4.3,0,0,1,1.8-.6,3.7,3.7,0,0,1,1.7.5c.6.3.8.7.8,1s-.3.7-.9,1l-.8.5-1.1-.7.9-.4c.4-.3.5-.6.1-.8a1.2,1.2,0,0,0-1.3.1l-4,2.3c-.5.3-.5.5-.1.8a1.1,1.1,0,0,0,1.2-.1l1.1-.6,1.1.6-1,.6a4.1,4.1,0,0,1-1.8.5,2.6,2.6,0,0,1-1.7-.5C170.4,209.9,170.2,209.6,170.2,209.2Z" transform="translate(-24.9 -17.5)"/><path class="cls-27" d="M174.1,211.5c0-.4.4-.7.9-1l.5-.3,1,.6-.5.3c-.4.3-.5.6-.1.8a.8.8,0,0,0,.7.1,1.1,1.1,0,0,0,.7-.2,1.7,1.7,0,0,0,.6-.6,1.4,1.4,0,0,0,0-.9,2.2,2.2,0,0,1,1-2.1,3.5,3.5,0,0,1,3.6,0c.5.3.8.6.7,1s-.3.7-.9,1l-.3.2-1.1-.6.4-.3c.2-.1.4-.2.4-.4l-.3-.3a1.2,1.2,0,0,0-1.3.1,1.2,1.2,0,0,0-.5.5,1.4,1.4,0,0,0,0,.9,2.4,2.4,0,0,1-.2,1.3,1.5,1.5,0,0,1-.9.8,3.2,3.2,0,0,1-1.8.6,4.1,4.1,0,0,1-1.8-.5C174.3,212.2,174.1,211.8,174.1,211.5Z" transform="translate(-24.9 -17.5)"/><path class="cls-97" d="M145.4,189.9h-.2l-.3-.2c-.3-.2-.4-.5-.2-.7a.6.6,0,0,1,.7-.2l.3.2a.7.7,0,0,1,.2.7A.5.5,0,0,1,145.4,189.9Zm-2-1.3h-.3l-1.7-1a.5.5,0,0,1,.5-.9l1.8,1.1a.5.5,0,0,1,.1.7ZM93,188.2l-.5-.2a.6.6,0,0,1,.2-.7l1.8-1a.7.7,0,0,1,.7.2.6.6,0,0,1-.2.7l-1.8,1Zm47-1.7h-.3l-1.7-1a.6.6,0,0,1-.2-.7.7.7,0,0,1,.7-.2l1.7,1.1c.3.1.3.4.2.7Zm-43.5-.2c-.2,0-.4-.1-.4-.3s-.1-.5.2-.7l1.7-.9a.4.4,0,0,1,.7.2.5.5,0,0,1-.2.6l-1.8,1C96.7,186.3,96.6,186.3,96.5,186.3Zm40-1.9h-.2l-1.7-1.1a.4.4,0,0,1-.2-.7.6.6,0,0,1,.7-.2l1.7,1.1a.6.6,0,0,1,.2.7Zm-36.5-.1a.5.5,0,0,1-.4-.2.4.4,0,0,1,.2-.7l1.7-1a.6.6,0,0,1,.7.2c.1.3.1.6-.2.7l-1.7,1Zm3.5-1.9a.5.5,0,0,1-.4-.3.5.5,0,0,1,.2-.7l1.7-.9a.4.4,0,0,1,.7.2c.2.2.1.5-.2.6l-1.7,1Zm29.6-.1h-.3l-1.7-1.1a.5.5,0,0,1-.1-.7.5.5,0,0,1,.6-.2l1.8,1.1a.5.5,0,0,1,.1.7A.5.5,0,0,1,133.1,182.3Zm-26-1.9-.5-.2a.6.6,0,0,1,.2-.7l1.8-1a.7.7,0,0,1,.7.2.6.6,0,0,1-.2.7l-1.8,1Zm22.6-.2h-.3l-1.7-1.1c-.3-.1-.3-.4-.2-.7a.5.5,0,0,1,.7-.1l1.7,1c.3.1.3.5.2.7Zm-19.1-1.7a.5.5,0,0,1-.5-.3.7.7,0,0,1,.2-.7l1.8-.9a.5.5,0,0,1,.7.1.6.6,0,0,1-.2.7l-1.8,1Zm15.6-.4H126l-1.8-1.1a.5.5,0,1,1,.6-.8l1.7,1a.6.6,0,0,1,.2.7Zm-12.1-1.6-.4-.2a.5.5,0,0,1,.1-.7l1.8-1a.6.6,0,0,1,.7.2.7.7,0,0,1-.2.7l-1.8,1Zm8.7-.5h-.3l-1.7-1.1a.6.6,0,0,1-.2-.7.5.5,0,0,1,.7-.1l1.8,1a.5.5,0,0,1,.1.7C123.1,176,123,176,122.8,176Zm-5.2-1.4c-.2,0-.3-.1-.4-.3s-.1-.5.2-.7l1.7-.9.5.3a.5.5,0,0,1,.2.7.7.7,0,0,1-.7.2h0l-1.2.7Z" transform="translate(-24.9 -17.5)"/><path class="cls-98" d="M143.6,189.8c0,.8,1,1.3,2.2,1.3s2.3-.5,2.3-1.3-1-1.3-2.3-1.3S143.6,189.1,143.6,189.8Z" transform="translate(-24.9 -17.5)"/><g class="cls-2"><path class="cls-3" d="M45,172.5a7.4,7.4,0,0,0,3.8-.9l3.8-2.4a4.1,4.1,0,0,0,2.2-3.5,4.7,4.7,0,0,0-2.6-3.9l-9-6.9a8.8,8.8,0,0,0-4.6-1.2,7.9,7.9,0,0,0-3.8.9L27,158.2a4,4,0,0,0-2.1,3.5,4.5,4.5,0,0,0,2.6,3.9l12.9,5.8A10.1,10.1,0,0,0,45,172.5Z" transform="translate(-24.9 -17.5)"/><path class="cls-4" d="M27.6,158.5a4,4,0,0,0-2.1,3.4,4.6,4.6,0,0,0,2.6,3.8l.6.3,6.3,2.8,5.7,2.5a9.7,9.7,0,0,0,4.5,1.1,6.6,6.6,0,0,0,2.5-.4l1.2-.5,3.7-2.4a4,4,0,0,0,2.1-3.4,4.7,4.7,0,0,0-2.5-3.8l-.8-.6-5.7-4.4-2.3-1.7a9.1,9.1,0,0,0-4.5-1.1,6.9,6.9,0,0,0-3.6.9L33,156Z" transform="translate(-24.9 -17.5)"/><path class="cls-5" d="M28.3,158.8a3.6,3.6,0,0,0-2.1,3.3,4.4,4.4,0,0,0,2.5,3.7l.6.3,6.1,2.7,5.6,2.4a8.9,8.9,0,0,0,4.3,1.1,9.3,9.3,0,0,0,2.5-.4l1.1-.5,3.6-2.3a3.8,3.8,0,0,0,2.1-3.3,4.3,4.3,0,0,0-2.5-3.7l-.7-.6-5.6-4.2a18.4,18.4,0,0,0-2.2-1.7,8.9,8.9,0,0,0-4.3-1.1,6.6,6.6,0,0,0-3.6.9l-2.3,1Z" transform="translate(-24.9 -17.5)"/><path class="cls-6" d="M28.9,159.1a3.6,3.6,0,0,0-2,3.1,4.3,4.3,0,0,0,2.4,3.7l.6.2,5.9,2.7,5.4,2.3a9.1,9.1,0,0,0,4.3,1,6.1,6.1,0,0,0,2.4-.4l1.1-.5,3.5-2.2a3.6,3.6,0,0,0,2-3.2,4.4,4.4,0,0,0-2.4-3.6l-.7-.6-5.5-4L43.8,156a8.5,8.5,0,0,0-4.2-1.1,7.2,7.2,0,0,0-3.5.8l-2.2,1Z" transform="translate(-24.9 -17.5)"/><path class="cls-7" d="M29.5,159.3a3.6,3.6,0,0,0-2,3.1,4.1,4.1,0,0,0,2.4,3.5l.5.3,5.9,2.6,5.2,2.3a9.5,9.5,0,0,0,4.1.9,8.6,8.6,0,0,0,2.4-.4l1-.5,3.5-2.2a3.5,3.5,0,0,0,1.9-3,4.2,4.2,0,0,0-2.3-3.6l-.7-.5-5.3-3.9L44,156.3a9.5,9.5,0,0,0-4.1-1,7.1,7.1,0,0,0-3.4.8l-2.1.9Z" transform="translate(-24.9 -17.5)"/><path class="cls-8" d="M30.1,159.6a3.5,3.5,0,0,0-1.9,3,4,4,0,0,0,2.3,3.4l.5.3,5.7,2.5c.2.1,4.8,2.2,5.1,2.2a7.8,7.8,0,0,0,4,.8,5.1,5.1,0,0,0,2.2-.4l1.1-.4,3.3-2.1a3.5,3.5,0,0,0,1.9-3,4,4,0,0,0-2.2-3.4l-.8-.6-5.1-3.7-2-1.5a9.1,9.1,0,0,0-4-1,6.7,6.7,0,0,0-3.3.8l-2.1.9Z" transform="translate(-24.9 -17.5)"/><path class="cls-9" d="M30.7,159.9a3.3,3.3,0,0,0-1.8,2.9,3.9,3.9,0,0,0,2.2,3.3l.5.3,5.5,2.4,4.9,2.1a9,9,0,0,0,4,.8,7.1,7.1,0,0,0,2.1-.4l1-.5,3.3-2a3.5,3.5,0,0,0,1.8-2.9,4.2,4.2,0,0,0-2.2-3.3l-.7-.5-5-3.6-1.9-1.4a8.7,8.7,0,0,0-3.9-1,7.9,7.9,0,0,0-3.2.7l-2,.9Z" transform="translate(-24.9 -17.5)"/><path class="cls-10" d="M31.3,160.1a3.4,3.4,0,0,0-1.7,2.9,3.8,3.8,0,0,0,2.1,3.2l.5.2,5.3,2.4a48.9,48.9,0,0,0,4.8,2,9.6,9.6,0,0,0,3.8.8l2.1-.4,1-.5,3.1-1.9a3.2,3.2,0,0,0,1.8-2.8,3.6,3.6,0,0,0-2.1-3.2c0-.1-.6-.5-.7-.6l-4.8-3.4-2-1.4a7.7,7.7,0,0,0-6.8-.2l-1.9.9Z" transform="translate(-24.9 -17.5)"/><path class="cls-11" d="M32,160.4a3.2,3.2,0,0,0-1.8,2.7,4,4,0,0,0,2.1,3.2l.5.2,5.1,2.3a38.5,38.5,0,0,0,4.7,1.9,7.7,7.7,0,0,0,3.7.7,6.5,6.5,0,0,0,2-.4l.9-.4,3.1-1.9A3.1,3.1,0,0,0,54,166a3.7,3.7,0,0,0-2-3.1l-.7-.5-4.7-3.3a12.7,12.7,0,0,0-1.9-1.3,7.1,7.1,0,0,0-3.6-.9,5.8,5.8,0,0,0-3,.7l-1.8.8Z" transform="translate(-24.9 -17.5)"/><path class="cls-12" d="M32.6,160.7a3,3,0,0,0-1.7,2.6,3.4,3.4,0,0,0,2,3l.5.3,4.9,2.2,4.5,1.9a10.9,10.9,0,0,0,3.6.6l2-.4.9-.5,2.9-1.8a2.9,2.9,0,0,0,1.7-2.6,3.8,3.8,0,0,0-1.9-3l-.7-.4-4.6-3.2-1.8-1.3a7.8,7.8,0,0,0-3.5-.8,6.5,6.5,0,0,0-2.9.6l-1.8.8Z" transform="translate(-24.9 -17.5)"/><path class="cls-13" d="M33.2,161a2.8,2.8,0,0,0-1.6,2.5,3.5,3.5,0,0,0,1.9,2.9l.5.2,4.8,2.2a32.5,32.5,0,0,0,4.3,1.8,8.3,8.3,0,0,0,3.5.5,6.5,6.5,0,0,0,1.9-.4l.8-.4,2.9-1.7a3,3,0,0,0,1.6-2.5,3.3,3.3,0,0,0-1.9-2.9l-.6-.5-4.4-3-1.8-1.2a7.7,7.7,0,0,0-3.4-.8,6.4,6.4,0,0,0-2.8.6l-1.7.8Z" transform="translate(-24.9 -17.5)"/><path class="cls-14" d="M33.8,161.2a3,3,0,0,0-1.6,2.5,3.5,3.5,0,0,0,1.9,2.8l.5.2,4.6,2.1a21.7,21.7,0,0,0,4.2,1.7,7.4,7.4,0,0,0,3.3.5l1.8-.4.9-.4,2.7-1.7a2.6,2.6,0,0,0,1.6-2.4,3.4,3.4,0,0,0-1.8-2.8l-.6-.4L47,160a16.3,16.3,0,0,0-1.7-1.1,7.3,7.3,0,0,0-3.3-.8,6,6,0,0,0-2.7.6l-1.6.7Z" transform="translate(-24.9 -17.5)"/><path class="cls-15" d="M34.4,161.5a2.7,2.7,0,0,0-1.5,2.4,3.2,3.2,0,0,0,1.8,2.7l.4.2,4.5,2a18.4,18.4,0,0,0,4.1,1.6,6.7,6.7,0,0,0,3.2.4,4.7,4.7,0,0,0,1.7-.4l.8-.3,2.7-1.6a2.7,2.7,0,0,0,1.5-2.4,3.4,3.4,0,0,0-1.7-2.7l-.6-.4-4.2-2.7-1.6-1.1a11.4,11.4,0,0,0-3.2-.7,7.5,7.5,0,0,0-2.6.5l-1.6.7Z" transform="translate(-24.9 -17.5)"/><path class="cls-16" d="M35.1,161.8a2.7,2.7,0,0,0-1.5,2.3,3.3,3.3,0,0,0,1.7,2.6l.4.2,4.3,2a25.8,25.8,0,0,0,3.9,1.4,6.7,6.7,0,0,0,3.1.4l1.7-.4.8-.4,2.5-1.5a2.4,2.4,0,0,0,1.5-2.2,3.3,3.3,0,0,0-1.6-2.6l-.6-.4-4-2.6-1.6-1a10.1,10.1,0,0,0-3.1-.7,7,7,0,0,0-2.5.5l-1.5.7Z" transform="translate(-24.9 -17.5)"/><path class="cls-17" d="M35.7,162.1a2.4,2.4,0,0,0-1.5,2.1,2.9,2.9,0,0,0,1.7,2.5l.4.2,4.1,2a21.3,21.3,0,0,0,3.8,1.4,7.5,7.5,0,0,0,3,.3l1.6-.5.7-.3,2.5-1.5a2.4,2.4,0,0,0,1.4-2.1,3,3,0,0,0-1.6-2.5l-.5-.4-3.9-2.4-1.5-.9a7.3,7.3,0,0,0-3-.6,4.9,4.9,0,0,0-2.4.4l-1.4.6Z" transform="translate(-24.9 -17.5)"/><path class="cls-18" d="M36.3,162.3a2.6,2.6,0,0,0-1.4,2.1,2.9,2.9,0,0,0,1.6,2.4l.4.2,3.9,1.9a23.2,23.2,0,0,0,3.7,1.3,6.7,6.7,0,0,0,2.8.2,4.2,4.2,0,0,0,1.6-.4l.7-.3,2.4-1.4a2.6,2.6,0,0,0,1.3-2,2.8,2.8,0,0,0-1.5-2.4l-.5-.4-3.8-2.3-1.5-.9a8.2,8.2,0,0,0-2.8-.5,5.8,5.8,0,0,0-2.3.3,9.1,9.1,0,0,0-1.4.7Z" transform="translate(-24.9 -17.5)"/><path class="cls-19" d="M36.9,162.6a2.2,2.2,0,0,0-1.3,2,2.8,2.8,0,0,0,1.5,2.3l.4.2,3.7,1.8a24.2,24.2,0,0,0,3.5,1.2,8.8,8.8,0,0,0,2.8.2l1.4-.4.7-.4,2.3-1.3a2.2,2.2,0,0,0,1.3-1.9,2.9,2.9,0,0,0-1.4-2.3l-.5-.3-3.6-2.2a7.1,7.1,0,0,0-1.5-.8,7.5,7.5,0,0,0-2.6-.5,5.8,5.8,0,0,0-2.3.3l-1.3.6Z" transform="translate(-24.9 -17.5)"/><path class="cls-20" d="M37.5,162.9a2.3,2.3,0,0,0-1.2,1.9,2.8,2.8,0,0,0,1.4,2.2l.4.2,3.6,1.7A11.7,11.7,0,0,0,45,170a5.8,5.8,0,0,0,2.6.1,3.3,3.3,0,0,0,1.4-.4l.7-.3,2.2-1.2a2.3,2.3,0,0,0,1.2-1.9,2.7,2.7,0,0,0-1.4-2.2l-.4-.3-3.5-2a6.1,6.1,0,0,0-1.4-.7,5.6,5.6,0,0,0-2.5-.5,6.6,6.6,0,0,0-2.1.3l-1.3.5Z" transform="translate(-24.9 -17.5)"/><path class="cls-21" d="M38.1,163.2a2,2,0,0,0-1.2,1.8,2.8,2.8,0,0,0,1.4,2.1h.4l3.4,1.7a11,11,0,0,0,3.2,1.1h2.5l1.3-.4.6-.3,2.1-1.2a2,2,0,0,0,1.2-1.7,2.3,2.3,0,0,0-1.3-2.1l-.4-.3L48,162.1l-1.4-.7a6.4,6.4,0,0,0-2.4-.4,6.4,6.4,0,0,0-2,.3,2.9,2.9,0,0,0-1.3.5Z" transform="translate(-24.9 -17.5)"/><path class="cls-22" d="M38.8,163.4a2.1,2.1,0,0,0-1.2,1.7,2.6,2.6,0,0,0,1.3,2l.3.2,3.3,1.6a10.6,10.6,0,0,0,3,1h2.4l1.3-.5.6-.3,2-1.1a1.9,1.9,0,0,0,1.1-1.6,2.3,2.3,0,0,0-1.2-2l-.4-.3-3.2-1.7-1.3-.6a5.9,5.9,0,0,0-2.3-.4,5.5,5.5,0,0,0-1.9.2l-1.2.5Z" transform="translate(-24.9 -17.5)"/><path class="cls-23" d="M39.4,163.7a1.8,1.8,0,0,0-1.1,1.6,2.3,2.3,0,0,0,1.2,1.9l.3.2,3.1,1.5a9.8,9.8,0,0,0,2.9.9,5.9,5.9,0,0,0,2.3-.1l1.2-.4.5-.3,1.9-1a1.9,1.9,0,0,0,0-3.4l-.4-.3-3.1-1.6-1.2-.6a8.3,8.3,0,0,0-2.2-.3,5,5,0,0,0-1.8.2l-1.1.4Z" transform="translate(-24.9 -17.5)"/><path class="cls-24" d="M49.3,169.1l2.4-1.2c1.5-.9,1.3-2.4-.4-3.5L48.4,163a6.9,6.9,0,0,0-6.1-.2L40,164c-1.6.9-1.4,2.4.4,3.5l2.9,1.4A6.7,6.7,0,0,0,49.3,169.1Z" transform="translate(-24.9 -17.5)"/></g><g class="cls-2"><path class="cls-3" d="M56,165.8a7.9,7.9,0,0,0,3.8-.9l3.8-2.4a4.1,4.1,0,0,0,2.2-3.5,4.6,4.6,0,0,0-2.7-3.9l-9.3-6.7-9.3-6.7a9,9,0,0,0-4.6-1.2,7.4,7.4,0,0,0-3.8.9L28.3,145a4.1,4.1,0,0,0-2.2,3.5,4.6,4.6,0,0,0,2.6,3.9L40,158.5l11.4,6.2A9.8,9.8,0,0,0,56,165.8Z" transform="translate(-24.9 -17.5)"/><path class="cls-4" d="M29.3,145.6a4,4,0,0,0-2.1,3.3,4.7,4.7,0,0,0,2.5,3.9l3.4,1.8,7.6,4.1h.2l10.8,5.8a9.7,9.7,0,0,0,4.5,1.1h.7a7.5,7.5,0,0,0,3-.9l3.6-2.4a3.8,3.8,0,0,0,2.1-3.3,4.1,4.1,0,0,0-2.4-3.8l-9-6.5-6.1-4.3-3-2.2a9.7,9.7,0,0,0-4.5-1.1,7.5,7.5,0,0,0-3.7.9l-2,.9Z" transform="translate(-24.9 -17.5)"/><path class="cls-5" d="M30.4,146.2a3.6,3.6,0,0,0-2,3.2,4,4,0,0,0,2.4,3.7l3.2,1.8,7.4,4h.2c.1.1,10.3,5.5,10.5,5.5a7.6,7.6,0,0,0,4.3,1h.7a6.6,6.6,0,0,0,2.8-.9l3.6-2.2a3.8,3.8,0,0,0,2-3.2,4.1,4.1,0,0,0-2.3-3.7l-8.6-6.2-5.9-4.2-3-2.1a8.6,8.6,0,0,0-4.3-1.1,6.9,6.9,0,0,0-3.6.9l-2,.9Z" transform="translate(-24.9 -17.5)"/><path class="cls-6" d="M31.5,146.8a3.5,3.5,0,0,0-2,3.1,4.2,4.2,0,0,0,2.3,3.6l3.1,1.7,7.2,3.9h.2c.1.1,9.9,5.3,10.1,5.2a8.4,8.4,0,0,0,4.2,1h.6a7.7,7.7,0,0,0,2.8-.8l3.4-2.2a3.5,3.5,0,0,0,2-3.1,4.1,4.1,0,0,0-2.2-3.5l-8.2-6-5.8-4-2.8-2a8.6,8.6,0,0,0-4.3-1.1,7.1,7.1,0,0,0-3.4.8l-1.9.9Z" transform="translate(-24.9 -17.5)"/><path class="cls-7" d="M32.6,147.4a3.7,3.7,0,0,0-2,3,4,4,0,0,0,2.2,3.4l3,1.7,6.9,3.7h.2c.2.2,9.6,5.1,9.8,5.1a9.1,9.1,0,0,0,4.1.8h.6a7.7,7.7,0,0,0,2.7-.8l3.3-2.2a3.3,3.3,0,0,0,1.9-2.9,4,4,0,0,0-2.1-3.4l-7.8-5.8-5.6-3.9L47,144.3a9.2,9.2,0,0,0-4.1-1,7.4,7.4,0,0,0-3.4.8l-1.8.9Z" transform="translate(-24.9 -17.5)"/><path class="cls-8" d="M33.7,147.9a3.5,3.5,0,0,0-1.9,2.9,3.8,3.8,0,0,0,2.1,3.4,25.4,25.4,0,0,0,2.8,1.6l6.7,3.6h.2c.3.2,9.1,4.8,9.5,4.8a9.7,9.7,0,0,0,3.9.8h.6a6.7,6.7,0,0,0,2.5-.8l3.3-2a3.7,3.7,0,0,0,1.8-2.8,3.8,3.8,0,0,0-1.9-3.2c0-.2-7.3-5.5-7.5-5.6l-5.4-3.8c-.2,0-2.6-1.8-2.8-1.8a8.3,8.3,0,0,0-3.9-.9,6.7,6.7,0,0,0-3.3.7l-1.8.8Z" transform="translate(-24.9 -17.5)"/><path class="cls-9" d="M34.7,148.5a3.7,3.7,0,0,0-1.8,2.8,4.1,4.1,0,0,0,2,3.3l2.7,1.5,6.5,3.5h.2c.3.2,8.7,4.5,9.1,4.5a7.8,7.8,0,0,0,3.8.7h.5a6.1,6.1,0,0,0,2.5-.7l3.1-2a3.4,3.4,0,0,0,1.8-2.6,3.7,3.7,0,0,0-1.8-3.1c0-.2-6.8-5.2-7.1-5.4l-5.3-3.6-2.6-1.7a8.3,8.3,0,0,0-3.9-.9,5.9,5.9,0,0,0-3.1.7l-1.8.8Z" transform="translate(-24.9 -17.5)"/><path class="cls-10" d="M35.8,149.1a3.1,3.1,0,0,0-1.7,2.7,3.5,3.5,0,0,0,1.8,3.1,23.4,23.4,0,0,0,2.7,1.5l6.2,3.3h.1c.4.3,8.4,4.4,8.9,4.3a7,7,0,0,0,3.6.6h.5a6.2,6.2,0,0,0,2.4-.8l3-1.8a3.1,3.1,0,0,0,0-5.5c0-.2-6.4-4.9-6.7-5.1L51.5,148l-2.6-1.7a9.1,9.1,0,0,0-3.7-.8,6.2,6.2,0,0,0-3.1.7l-1.7.7Z" transform="translate(-24.9 -17.5)"/><path class="cls-11" d="M36.9,149.7a3.1,3.1,0,0,0-1.7,2.5,3.6,3.6,0,0,0,1.7,3.1l2.6,1.4,5.9,3.2h.2c.5.3,8,4.1,8.5,4a6.7,6.7,0,0,0,3.5.6h.5a8.8,8.8,0,0,0,2.3-.7l2.8-1.8a3.2,3.2,0,0,0,1.7-2.4,3.2,3.2,0,0,0-1.6-2.8c0-.2-5.9-4.7-6.3-4.9l-5-3.3L49.6,147a9.1,9.1,0,0,0-3.7-.8,6.5,6.5,0,0,0-2.9.6l-1.7.8Z" transform="translate(-24.9 -17.5)"/><path class="cls-12" d="M38,150.3a3.2,3.2,0,0,0-1.7,2.4,3.3,3.3,0,0,0,1.7,2.9c.1.2,2.2,1.3,2.4,1.5l5.7,3h.2c.5.3,7.5,3.8,8.1,3.8a7.3,7.3,0,0,0,3.3.4h.5a7.2,7.2,0,0,0,2.2-.8l2.8-1.7a2.6,2.6,0,0,0,1.5-2.2,3.1,3.1,0,0,0-1.3-2.7c0-.3-5.6-4.4-6-4.6l-4.8-3.2c-.2-.1-2.2-1.5-2.4-1.5a8.2,8.2,0,0,0-3.5-.8,6.5,6.5,0,0,0-2.9.6l-1.5.7Z" transform="translate(-24.9 -17.5)"/><path class="cls-13" d="M39.1,150.9a2.7,2.7,0,0,0-1.6,2.3A3.1,3.1,0,0,0,39,156l2.3,1.4,5.5,2.9h.1c.6.4,7.2,3.6,7.9,3.6a7.8,7.8,0,0,0,3.1.4h.5a6.5,6.5,0,0,0,2.1-.7l2.6-1.6a2.7,2.7,0,0,0,.3-4.7c0-.3-5.1-4.1-5.6-4.4l-4.6-3-2.4-1.5a9.3,9.3,0,0,0-3.3-.7,6.1,6.1,0,0,0-2.8.6l-1.5.7Z" transform="translate(-24.9 -17.5)"/><path class="cls-14" d="M40.1,151.4a3.2,3.2,0,0,0-1.5,2.2,3,3,0,0,0,1.4,2.7l2.2,1.4,5.3,2.7h.1c.6.4,6.8,3.4,7.5,3.3a7.5,7.5,0,0,0,3,.3h.5a4.8,4.8,0,0,0,2-.7l2.5-1.5a2.8,2.8,0,0,0,1.4-2,2.5,2.5,0,0,0-1.1-2.3c0-.4-4.7-3.9-5.2-4.2l-4.5-2.9L51.5,149a8.8,8.8,0,0,0-3.3-.7,5.3,5.3,0,0,0-2.6.6l-1.5.6Z" transform="translate(-24.9 -17.5)"/><path class="cls-15" d="M41.2,152a2.6,2.6,0,0,0-.1,4.7c.1.2,1.8,1.1,2,1.3l5,2.6h.2c.7.4,6.3,3.1,7.1,3a7.2,7.2,0,0,0,2.9.3h.5l1.9-.7,2.3-1.4a2.8,2.8,0,0,0,1.4-1.9,2.5,2.5,0,0,0-.9-2.2c-.1-.4-4.4-3.7-4.9-4L54.3,151l-2.2-1.3A7.8,7.8,0,0,0,49,149a6.6,6.6,0,0,0-2.6.6l-1.4.6Z" transform="translate(-24.9 -17.5)"/><path class="cls-16" d="M42.3,152.6a2.8,2.8,0,0,0-1.4,2,2.5,2.5,0,0,0,1.2,2.4,17.4,17.4,0,0,0,2,1.3l4.7,2.5h.1c.8.5,6,2.9,6.9,2.8a6.1,6.1,0,0,0,2.7.2h.4a7.6,7.6,0,0,0,1.8-.6l2.3-1.4a2.3,2.3,0,0,0,.5-3.8c0-.4-3.9-3.4-4.5-3.7l-4.2-2.6a7.2,7.2,0,0,0-2.1-1.2,7.3,7.3,0,0,0-3-.6,4.7,4.7,0,0,0-2.4.5l-1.4.5Z" transform="translate(-24.9 -17.5)"/><path class="cls-17" d="M43.4,153.2a2.6,2.6,0,0,0-1.4,1.9,2.7,2.7,0,0,0,1.1,2.3l1.9,1.2,4.5,2.3h.1c.8.5,5.6,2.7,6.5,2.6a5.7,5.7,0,0,0,2.6,0h.4l1.7-.7,2.2-1.3a2.5,2.5,0,0,0,1.2-1.5,2.2,2.2,0,0,0-.7-2c0-.4-3.5-3.1-4.1-3.5l-4-2.4-2-1.2a9.3,9.3,0,0,0-2.9-.5,6.1,6.1,0,0,0-2.4.4l-1.2.6Z" transform="translate(-24.9 -17.5)"/><path class="cls-18" d="M44.5,153.8a2.2,2.2,0,0,0-1.3,1.7,2.4,2.4,0,0,0,1,2.3,12.6,12.6,0,0,0,1.7,1.1l4.3,2.2h.1c.8.5,5.2,2.4,6.2,2.3a6.5,6.5,0,0,0,2.4,0h.4l1.6-.6,2-1.2a2.9,2.9,0,0,0,1.2-1.5,2.1,2.1,0,0,0-.6-1.8c0-.4-3-2.9-3.7-3.2L56,152.8a19.8,19.8,0,0,0-2-1.1,8.1,8.1,0,0,0-2.7-.5,5.6,5.6,0,0,0-2.3.4l-1.2.6Z" transform="translate(-24.9 -17.5)"/><path class="cls-19" d="M45.5,154.4a2.3,2.3,0,0,0-1.2,1.6,2.4,2.4,0,0,0,.9,2.1,9.1,9.1,0,0,0,1.6,1.1l4,2.1h.1c1,.6,4.8,2.2,5.9,2.1a5.9,5.9,0,0,0,2.3-.1h.3a6.7,6.7,0,0,0,1.5-.6l2-1.1a2.1,2.1,0,0,0,1-1.3,1.7,1.7,0,0,0-.3-1.7c-.1-.5-2.7-2.6-3.4-3l-3.7-2.1a11.4,11.4,0,0,0-1.9-1,7.5,7.5,0,0,0-2.6-.5,4.6,4.6,0,0,0-2.1.4l-1.2.5Z" transform="translate(-24.9 -17.5)"/><path class="cls-20" d="M46.6,154.9a2.3,2.3,0,0,0-1.2,1.6,2.4,2.4,0,0,0,.8,2l1.5,1,3.8,2h.1c1,.6,4.4,1.9,5.5,1.8a5.4,5.4,0,0,0,2.2-.1h.3l1.4-.6,1.8-1a2.2,2.2,0,0,0,1-1.2,1.6,1.6,0,0,0-.2-1.5c0-.6-2.2-2.4-3-2.8l-3.5-2.1-1.8-.9a10.9,10.9,0,0,0-2.5-.4,4.6,4.6,0,0,0-2.1.4,5.4,5.4,0,0,0-1.1.5Z" transform="translate(-24.9 -17.5)"/><path class="cls-21" d="M47.7,155.5a2.4,2.4,0,0,0-1.1,1.4,2,2,0,0,0,.6,1.9l1.4,1,3.6,1.8h.1c1,.6,4,1.7,5.2,1.5a4.4,4.4,0,0,0,2-.2h.3l1.3-.6,1.7-.9a1.7,1.7,0,0,0,.9-1,1.4,1.4,0,0,0-.1-1.4c0-.6-1.8-2.1-2.6-2.6l-3.4-1.9a8.9,8.9,0,0,0-1.7-.8,9.3,9.3,0,0,0-2.4-.4,4.1,4.1,0,0,0-1.9.4,4.9,4.9,0,0,0-1.1.4Z" transform="translate(-24.9 -17.5)"/><path class="cls-22" d="M48.8,156.1a2.2,2.2,0,0,0-1.1,1.3,1.7,1.7,0,0,0,.6,1.8,3.8,3.8,0,0,0,1.2.9l3.3,1.7h.1a10.7,10.7,0,0,0,4.9,1.4,5.8,5.8,0,0,0,1.9-.3H60l1.2-.6,1.5-.9a1.6,1.6,0,0,0,.9-.9,1.3,1.3,0,0,0,0-1.2c0-.6-1.3-1.9-2.2-2.4l-3.2-1.7a8.7,8.7,0,0,0-1.7-.7,5.7,5.7,0,0,0-2.2-.4,5.8,5.8,0,0,0-1.9.3l-1,.5Z" transform="translate(-24.9 -17.5)"/><path class="cls-23" d="M49.9,156.7a2.1,2.1,0,0,0-1.1,1.2,1.7,1.7,0,0,0,.5,1.6,4.2,4.2,0,0,0,1.2,1l3,1.5h.1a9.1,9.1,0,0,0,4.5,1.1l1.8-.4h.2l1.1-.5,1.5-.8a2,2,0,0,0,.8-.8,1.4,1.4,0,0,0,.2-1.1,4.1,4.1,0,0,0-1.9-2.1l-3.1-1.6-1.5-.7a5.3,5.3,0,0,0-2.2-.2l-1.7.2-.9.4Z" transform="translate(-24.9 -17.5)"/><path class="cls-24" d="M60.3,162.4l2.3-1.2c1.6-.9,1.4-2.4-.4-3.5l-2.9-1.4a6.7,6.7,0,0,0-6-.2l-2.4,1.2c-1.5.9-1.3,2.4.5,3.5l2.9,1.4A6.7,6.7,0,0,0,60.3,162.4Z" transform="translate(-24.9 -17.5)"/></g><g class="cls-2"><path class="cls-3" d="M67.8,159.8a7.4,7.4,0,0,0,3.8-.9l3.8-2.5a3.9,3.9,0,0,0,2.2-3.4,4.6,4.6,0,0,0-2.6-4l-11.7-7.7-11.8-7.7a9.8,9.8,0,0,0-4.6-1.2,8,8,0,0,0-3.8,1L35.3,137a3.9,3.9,0,0,0-2.2,3.4,4.8,4.8,0,0,0,2.7,4l13.7,7.1,13.7,7.1A9,9,0,0,0,67.8,159.8Z" transform="translate(-24.9 -17.5)"/><path class="cls-4" d="M36.6,137.7a3.7,3.7,0,0,0-2.1,3.3,4.4,4.4,0,0,0,2.5,3.8l4.5,2.4,8.8,4.5,13.3,6.9a8.2,8.2,0,0,0,4.4,1,7.2,7.2,0,0,0,3.7-.9l3.7-2.3a4,4,0,0,0,2.1-3.3,4.4,4.4,0,0,0-2.5-3.8c0-.1-11.2-7.5-11.2-7.5L57,137.4l-4.6-3a8.6,8.6,0,0,0-4.5-1.1,8.4,8.4,0,0,0-3.7.8l-1.5.7Z" transform="translate(-24.9 -17.5)"/><path class="cls-5" d="M37.9,138.3a3.9,3.9,0,0,0-2,3.3,4.4,4.4,0,0,0,2.4,3.7l4.3,2.3,8.5,4.3c.1.1,12.7,6.6,12.9,6.6a9.6,9.6,0,0,0,4.2,1,8,8,0,0,0,3.6-.9l3.5-2.3a3.7,3.7,0,0,0,2.1-3.2,4.4,4.4,0,0,0-2.4-3.6l-10.7-7.2L57.7,138l-4.5-2.9a8.8,8.8,0,0,0-4.3-1,8,8,0,0,0-3.6.8l-1.4.7Z" transform="translate(-24.9 -17.5)"/><path class="cls-6" d="M39.2,139a4,4,0,0,0-2,3.1,4.2,4.2,0,0,0,2.3,3.6l4.2,2.2,8.2,4.3,12.4,6.2a8.4,8.4,0,0,0,4.2.9,7.4,7.4,0,0,0,3.4-.8l3.4-2.2a4.2,4.2,0,0,0,2-3.1,4.3,4.3,0,0,0-2.2-3.5l-10.3-6.9-6.4-4.1L54,135.9a8.4,8.4,0,0,0-4.2-1,7.1,7.1,0,0,0-3.4.8l-1.4.6Z" transform="translate(-24.9 -17.5)"/><path class="cls-7" d="M40.6,139.7a3.4,3.4,0,0,0-2,3,4,4,0,0,0,2.2,3.4l4,2.2,7.9,4.1c.2.1,11.7,6,12,5.9a8.4,8.4,0,0,0,4,.9,6.6,6.6,0,0,0,3.2-.9l3.4-2.1a3.5,3.5,0,0,0,1.8-2.9,3.9,3.9,0,0,0-2-3.4l-9.8-6.6-6.2-4-4.2-2.7a9.1,9.1,0,0,0-4.1-.9,7.4,7.4,0,0,0-3.4.8l-1.3.6Z" transform="translate(-24.9 -17.5)"/><path class="cls-8" d="M41.9,140.4a3.2,3.2,0,0,0-1.9,2.8,3.9,3.9,0,0,0,2,3.4l3.9,2.1,7.6,3.9c.3.2,11.2,5.7,11.5,5.6a8.3,8.3,0,0,0,3.9.8,7.5,7.5,0,0,0,3.1-.8l3.2-2.1a3.2,3.2,0,0,0,1.8-2.7,3.4,3.4,0,0,0-1.9-3.2c0-.2-9-6.3-9.3-6.4l-6-3.8c-.1-.1-3.9-2.6-4.1-2.6a8.3,8.3,0,0,0-3.9-.9,6.7,6.7,0,0,0-3.3.8l-1.3.6Z" transform="translate(-24.9 -17.5)"/><path class="cls-9" d="M43.2,141.1a3,3,0,0,0-1.8,2.7,3.5,3.5,0,0,0,1.9,3.2l3.7,2.1,7.3,3.7c.3.2,10.7,5.4,11.1,5.3a7.7,7.7,0,0,0,3.7.7,6.1,6.1,0,0,0,3-.8l3.1-1.9a3.2,3.2,0,0,0-.1-5.7c.1-.2-8.5-5.9-8.8-6.1l-5.8-3.7c-.1-.1-3.7-2.4-3.9-2.4a8.6,8.6,0,0,0-3.9-.9,7.4,7.4,0,0,0-3.1.7l-1.3.6Z" transform="translate(-24.9 -17.5)"/><path class="cls-10" d="M44.5,141.7a3.5,3.5,0,0,0-1.8,2.7,3.8,3.8,0,0,0,1.8,3.1l3.5,1.9,7,3.7c.5.2,10.3,5,10.7,5a10.5,10.5,0,0,0,3.6.6,7,7,0,0,0,2.9-.8l2.9-1.9a3.3,3.3,0,0,0,1.7-2.5,3.3,3.3,0,0,0-1.6-2.9c0-.2-8-5.6-8.3-5.8l-5.7-3.5-3.8-2.4a9.1,9.1,0,0,0-3.7-.8,7,7,0,0,0-3,.7l-1.2.6Z" transform="translate(-24.9 -17.5)"/><path class="cls-11" d="M45.8,142.4a3.1,3.1,0,0,0,0,5.5l3.3,1.9,6.7,3.5c.5.3,9.7,4.8,10.3,4.7a7.6,7.6,0,0,0,3.4.5,5.7,5.7,0,0,0,2.7-.8l2.9-1.7a2.9,2.9,0,0,0,.1-5.1c0-.3-7.4-5.4-7.8-5.6l-5.5-3.4c-.2-.1-3.4-2.2-3.7-2.2a8.2,8.2,0,0,0-3.5-.8,7.3,7.3,0,0,0-3,.7l-1.1.5Z" transform="translate(-24.9 -17.5)"/><path class="cls-12" d="M47.1,143.1a2.8,2.8,0,0,0-1.6,2.4,3,3,0,0,0,1.5,2.8,33.7,33.7,0,0,0,3.2,1.9l6.4,3.3c.6.3,9.2,4.5,9.9,4.4a6.7,6.7,0,0,0,3.2.4,7.1,7.1,0,0,0,2.6-.7l2.7-1.7a2.6,2.6,0,0,0,1.5-2.2,2.7,2.7,0,0,0-1.3-2.6c.1-.3-6.9-5.1-7.3-5.3l-5.2-3.3-3.6-2.1a10.4,10.4,0,0,0-3.5-.7,6.4,6.4,0,0,0-2.8.7l-1.1.5Z" transform="translate(-24.9 -17.5)"/><path class="cls-13" d="M48.4,143.8a3,3,0,0,0-1.6,2.2,3,3,0,0,0,1.5,2.8c.1.2,2.7,1.6,3,1.8l6.1,3.1c.6.4,8.7,4.2,9.4,4.1a6.5,6.5,0,0,0,3.1.4,5.7,5.7,0,0,0,2.5-.8l2.6-1.6a2.8,2.8,0,0,0,1.4-2,2.7,2.7,0,0,0-1.2-2.5c.1-.3-6.3-4.7-6.8-5l-5-3.1-3.5-2a8.8,8.8,0,0,0-3.3-.7,7.7,7.7,0,0,0-2.7.7l-1.1.5Z" transform="translate(-24.9 -17.5)"/><path class="cls-14" d="M49.7,144.5a2.7,2.7,0,0,0-1.5,2.1,2.9,2.9,0,0,0,1.3,2.6c.1.2,2.6,1.6,2.9,1.8l5.8,2.9c.7.4,8.2,4,9,3.8a7,7,0,0,0,2.9.3,6.1,6.1,0,0,0,2.4-.7l2.4-1.5a2.8,2.8,0,0,0,1.4-1.9,2.9,2.9,0,0,0-1-2.4c0-.3-5.8-4.4-6.4-4.7l-4.8-3a22.1,22.1,0,0,0-3.4-1.8,5.4,5.4,0,0,0-3.1-.6,5.3,5.3,0,0,0-2.6.6l-1.1.4Z" transform="translate(-24.9 -17.5)"/><path class="cls-15" d="M51,145.1a3,3,0,0,0-1.4,2.1,2.6,2.6,0,0,0,1.2,2.5,21.4,21.4,0,0,0,2.7,1.6l5.5,2.9c.8.4,7.7,3.6,8.5,3.4a6.7,6.7,0,0,0,2.8.3,7.1,7.1,0,0,0,2.2-.7l2.4-1.5a2.6,2.6,0,0,0,1.3-1.8,2.3,2.3,0,0,0-.9-2.1c0-.4-5.3-4.2-5.9-4.5l-4.6-2.8c-.4-.2-2.8-1.7-3.2-1.8a6.3,6.3,0,0,0-3.1-.5,6.6,6.6,0,0,0-2.5.5l-.9.5Z" transform="translate(-24.9 -17.5)"/><path class="cls-16" d="M52.3,145.8a2.8,2.8,0,0,0-1.4,1.9,2.7,2.7,0,0,0,1.1,2.4l2.6,1.6,5.2,2.7c.8.5,7.2,3.3,8.1,3.2a7.5,7.5,0,0,0,2.6.1,6.5,6.5,0,0,0,2.1-.7l2.3-1.3a2.6,2.6,0,0,0,1.2-1.7,2.4,2.4,0,0,0-.8-2c.1-.4-4.7-3.9-5.4-4.2l-4.4-2.7a30.1,30.1,0,0,0-3.1-1.6,5.8,5.8,0,0,0-2.9-.5,6,6,0,0,0-2.4.5l-.9.4Z" transform="translate(-24.9 -17.5)"/><path class="cls-17" d="M53.6,146.5a2.6,2.6,0,0,0-1.3,1.8,2.3,2.3,0,0,0,1,2.2,13.4,13.4,0,0,0,2.3,1.6l5,2.5c.9.5,6.7,3.1,7.7,2.9a4.9,4.9,0,0,0,2.4,0,6.6,6.6,0,0,0,2-.6l2.1-1.3a2.9,2.9,0,0,0,1.2-1.5,2,2,0,0,0-.7-1.9c.1-.5-4.1-3.6-4.8-4l-4.3-2.4a17.3,17.3,0,0,0-3-1.6,8,8,0,0,0-2.7-.4,5.2,5.2,0,0,0-2.3.5l-.9.4Z" transform="translate(-24.9 -17.5)"/><path class="cls-18" d="M54.9,147.2a2.3,2.3,0,0,0-1.2,1.6,2.2,2.2,0,0,0,.8,2.2,21,21,0,0,0,2.2,1.5l4.7,2.3c.9.6,6.2,2.8,7.2,2.6h2.3a6.2,6.2,0,0,0,1.9-.7l2-1.2a2.1,2.1,0,0,0,1-1.3,1.7,1.7,0,0,0-.4-1.7c0-.6-3.7-3.3-4.4-3.8l-4.1-2.3a24.4,24.4,0,0,0-2.8-1.4,8,8,0,0,0-2.7-.4,4.6,4.6,0,0,0-2.1.5l-.9.4Z" transform="translate(-24.9 -17.5)"/><path class="cls-19" d="M56.2,147.9a2.6,2.6,0,0,0-1.2,1.5,2.1,2.1,0,0,0,.8,2,7.8,7.8,0,0,0,2,1.4l4.4,2.2c1,.6,5.6,2.5,6.8,2.3a5,5,0,0,0,2.1-.1,6.7,6.7,0,0,0,1.7-.6l1.9-1.1a1.9,1.9,0,0,0,1-1.2,1.5,1.5,0,0,0-.3-1.6c.1-.6-3.1-3-3.9-3.5l-3.9-2.1a11.3,11.3,0,0,0-2.7-1.3,6.9,6.9,0,0,0-2.5-.4,4.6,4.6,0,0,0-2.1.5l-.8.3Z" transform="translate(-24.9 -17.5)"/><path class="cls-20" d="M57.6,148.5a2.2,2.2,0,0,0-1.2,1.5,2.1,2.1,0,0,0,.6,1.9,7,7,0,0,0,1.9,1.3l4.1,2.1c1,.6,5.1,2.2,6.3,1.9a4.4,4.4,0,0,0,2-.2,7.6,7.6,0,0,0,1.6-.6l1.8-1a1.6,1.6,0,0,0,.9-1.1,1.4,1.4,0,0,0-.2-1.4c.1-.6-2.5-2.7-3.4-3.2l-3.7-2a14.2,14.2,0,0,0-2.5-1.2l-2.4-.3a6.5,6.5,0,0,0-2,.4l-.7.4Z" transform="translate(-24.9 -17.5)"/><path class="cls-21" d="M58.9,149.2a2.2,2.2,0,0,0-1.1,1.3,1.8,1.8,0,0,0,.5,1.8,8.4,8.4,0,0,0,1.7,1.3l3.8,1.9c1.1.6,4.6,1.9,5.9,1.6a3.6,3.6,0,0,0,1.8-.2l1.5-.6,1.6-.9a2.1,2.1,0,0,0,.9-1,1.5,1.5,0,0,0,0-1.3c0-.6-2.1-2.4-3-2.9L69,148.3a10.1,10.1,0,0,0-2.4-1,8.5,8.5,0,0,0-2.3-.3l-1.8.4-.7.4Z" transform="translate(-24.9 -17.5)"/><path class="cls-22" d="M60.2,149.9a2.1,2.1,0,0,0-1.1,1.2,2,2,0,0,0,.4,1.6,4.3,4.3,0,0,0,1.6,1.3l3.4,1.7a12.2,12.2,0,0,0,5.6,1.4l1.6-.4,1.4-.6,1.5-.8a2,2,0,0,0,.8-.8,1.4,1.4,0,0,0,.1-1.1c0-.7-1.5-2.1-2.5-2.7L69.7,149a12.2,12.2,0,0,0-2.3-1l-2.1-.2-1.7.4-.7.3Z" transform="translate(-24.9 -17.5)"/><path class="cls-23" d="M61.5,150.6a2.4,2.4,0,0,0-1,1,1.6,1.6,0,0,0,.3,1.6,5.1,5.1,0,0,0,1.3,1.2l3.2,1.5a9.3,9.3,0,0,0,5.1,1.1l1.5-.4,1.2-.6,1.4-.8a1.7,1.7,0,0,0,.8-.6,1.8,1.8,0,0,0,.2-1c.1-.7-1-1.8-2-2.4l-3.1-1.6a6.6,6.6,0,0,0-2.1-.8l-2-.2-1.7.4-.6.3Z" transform="translate(-24.9 -17.5)"/><path class="cls-24" d="M72.1,156.4l2.4-1.2c1.5-.9,1.3-2.5-.4-3.5l-2.9-1.4a6.9,6.9,0,0,0-6.1-.3l-2.3,1.3c-1.6.8-1.4,2.4.4,3.4l2.9,1.4A6.4,6.4,0,0,0,72.1,156.4Z" transform="translate(-24.9 -17.5)"/></g><polygon class="cls-100" points="43.7 81.9 51.9 86.6 43.7 91.3 35.6 86.6 43.7 81.9"/><polygon class="cls-101" points="51.9 136.5 43.7 141.2 43.7 91.3 51.9 86.6 51.9 136.5"/><polygon class="cls-27" points="43.7 141.2 35.6 136.5 35.6 86.6 43.7 91.3 43.7 141.2"/><polygon class="cls-102" points="35.6 86.6 43.7 91 51.9 86.6 44 91.5 43.7 141.2 43.4 91.4 35.6 86.6"/><polygon class="cls-100" points="31.8 102.7 39.9 107.4 31.8 112.1 23.7 107.4 31.8 102.7"/><polygon class="cls-103" points="39.9 142.8 31.8 147.5 31.8 112.1 39.9 107.4 39.9 142.8"/><polygon class="cls-27" points="31.8 147.5 23.7 142.8 23.7 107.4 31.8 112.1 31.8 147.5"/><polygon class="cls-104" points="23.7 107.4 31.8 111.7 39.9 107.4 32 112.2 31.8 147.5 31.4 112.2 23.7 107.4"/><polygon class="cls-100" points="20 124.2 28.1 128.9 20 133.6 11.9 128.9 20 124.2"/><polygon class="cls-105" points="20 145.2 28.1 150 20 154.7 11.9 149.9 20 145.2"/><polygon class="cls-106" points="28.1 150.1 20 154.8 20 133.6 28.1 128.9 28.1 150.1"/><polygon class="cls-27" points="20 154.8 11.9 150.1 11.9 128.9 20 133.6 20 154.8"/><polygon class="cls-107" points="11.9 128.9 20 133.2 28.1 128.9 20.3 133.8 20 154.8 19.6 133.7 11.9 128.9"/><path class="cls-27" d="M97.4,84.5l1.2.7v3.6l1.5-2.8,1.1.7L99.8,89l1.4,6.2-1.2-.7-1-4.3-.4.8v2.7L97.4,93Z" transform="translate(-24.9 -17.5)"/><path class="cls-27" d="M101.8,87l3.2,1.9v1.2l-2-1.2v2.3l1.6.9v1.2l-1.6-.9V95l2,1.2v1.2l-3.2-1.8Z" transform="translate(-24.9 -17.5)"/><path class="cls-27" d="M106.7,94.8l-1.4-5.7,1.2.7.8,3.6h.1l.8-2.7,1.1.7-1.4,4v3.7l-1.2-.7Z" transform="translate(-24.9 -17.5)"/><path class="cls-27" d="M109.5,91.5l1.2.7.5,6.8h0l.6-6.2,1.2.7.6,6.9h0l.5-6.2,1,.5-.7,8.1-1.5-.8-.5-6.1h0l-.6,5.5-1.5-.9Z" transform="translate(-24.9 -17.5)"/><path class="cls-27" d="M116.1,103.4a4.1,4.1,0,0,1-.5-1.9V97a1.6,1.6,0,0,1,.5-1.3c.3-.2.7-.1,1.3.2a4,4,0,0,1,1.3,1.3,4.1,4.1,0,0,1,.5,1.9v4.5a1.6,1.6,0,0,1-.5,1.3c-.3.2-.7.1-1.3-.2A3.3,3.3,0,0,1,116.1,103.4Zm1.9-.4V98.3a1.4,1.4,0,0,0-.6-1.2c-.4-.2-.6,0-.6.5v4.7a1.4,1.4,0,0,0,.6,1.2C117.8,103.7,118,103.5,118,103Z" transform="translate(-24.9 -17.5)"/><path class="cls-27" d="M120,97.5l1.7,1a4,4,0,0,1,1.3,1.3,2.9,2.9,0,0,1,.4,1.7v.5c0,.9-.2,1.3-.8,1.2h0a1.5,1.5,0,0,1,.6.9,2.7,2.7,0,0,1,.2,1.3v2.1a.9.9,0,0,1,.1.5l-1.1-.7a.6.6,0,0,1-.1-.4v-2.2a2,2,0,0,0-.2-.9.9.9,0,0,0-.6-.6l-.4-.2v3.6L120,106Zm1.5,4.6c.3.1.5.2.6.1s.1-.3.1-.6v-.7a1.5,1.5,0,0,0-.1-.7.8.8,0,0,0-.5-.5l-.5-.3v2.4Z" transform="translate(-24.9 -17.5)"/><path class="cls-27" d="M124.2,100l1.8,1a4,4,0,0,1,1.3,1.3,3.4,3.4,0,0,1,.4,1.8v4.3c0,.7-.1,1.2-.4,1.3s-.7.2-1.3-.2l-1.8-1Zm1.8,8.3h.4a.8.8,0,0,0,.2-.6v-4.4a1.4,1.4,0,0,0-.2-.7,1,1,0,0,0-.4-.5l-.6-.3V108Z" transform="translate(-24.9 -17.5)"/><path class="cls-27" d="M154.4,159.1l1.7,1a4.4,4.4,0,0,1,1.4,1.3,3.9,3.9,0,0,1,.4,1.7v.5c0,.9-.3,1.3-.8,1.2h0a1.5,1.5,0,0,1,.6.9,5.1,5.1,0,0,1,.2,1.3v2.1a.9.9,0,0,0,.1.5l-1.2-.7v-2.6a1.6,1.6,0,0,0-.2-1,.8.8,0,0,0-.5-.5l-.4-.2v3.6l-1.2-.7Zm1.6,4.6c.2.1.4.2.5.1a.8.8,0,0,0,.2-.6v-.7a1.5,1.5,0,0,0-.1-.7,1.2,1.2,0,0,0-.5-.5l-.5-.3v2.4Z" transform="translate(-24.9 -17.5)"/><path class="cls-27" d="M159.6,162.1l1.6.9,1.2,9.2-1.2-.6-.2-1.9h0l-1.3-.8-.2,1.5-1.1-.6Zm1.3,6.4-.6-4.5h0l-.5,3.9Z" transform="translate(-24.9 -17.5)"/><path class="cls-27" d="M162.9,164l1.5.9,1.1,5.7h0v-5.1l1.1.6v8.6l-1.2-.7-1.4-7.1h0v6.2l-1.1-.6Z" transform="translate(-24.9 -17.5)"/><path class="cls-27" d="M167.5,166.6l1.1.7v3.6l1.5-2.7,1.2.7-1.4,2.3,1.4,6.2-1.2-.7-1-4.4-.5.8v2.7l-1.1-.6Z" transform="translate(-24.9 -17.5)"/><path class="cls-27" d="M171.8,169.2l1.2.7v8.5l-1.2-.7Z" transform="translate(-24.9 -17.5)"/><path class="cls-27" d="M173.9,170.4l1.4.8,1.2,5.7h0v-5.1l1,.6V181l-1.2-.7-1.4-7h0v6.2l-1-.6Z" transform="translate(-24.9 -17.5)"/><path class="cls-27" d="M178.8,181.3a4.1,4.1,0,0,1-.5-1.9v-4.5a1.4,1.4,0,0,1,.5-1.3c.3-.2.7-.1,1.3.2a3.9,3.9,0,0,1,1.7,3.1v.8l-1.1-.7v-.8a1.4,1.4,0,0,0-.6-1.2c-.4-.2-.6,0-.6.5v4.7a1.4,1.4,0,0,0,.6,1.2c.4.2.6,0,.6-.5v-1.7l-.6-.3v-1.2l1.7.9v2.8a1.4,1.4,0,0,1-.5,1.3,1.1,1.1,0,0,1-1.2-.1A4,4,0,0,1,178.8,181.3Z" transform="translate(-24.9 -17.5)"/><path class="cls-27" d="M185.5,57.3l-1.3-.7V55.4l3.6,2.1v1.2l-1.2-.7v7.3l-1.1-.7Z" transform="translate(-24.9 -17.5)"/><path class="cls-27" d="M188.4,57.8l1.7,1a3.1,3.1,0,0,1,1.3,1.2,3.5,3.5,0,0,1,.5,1.8v.5c0,.9-.3,1.3-.8,1.2h0a2.1,2.1,0,0,1,.6,1,4.4,4.4,0,0,1,.2,1.3v2.1a1.1,1.1,0,0,0,.1.5l-1.2-.7c0-.2-.1-.3-.1-.4V65a2,2,0,0,0-.2-.9,1.2,1.2,0,0,0-.5-.5l-.4-.3V67l-1.2-.7Zm1.6,4.6h.5a.8.8,0,0,0,.2-.6v-.7a1.4,1.4,0,0,0-.2-.7.7.7,0,0,0-.4-.5l-.5-.3v2.4Z" transform="translate(-24.9 -17.5)"/><path class="cls-27" d="M193.6,60.8l1.6.9,1.2,9.2-1.2-.7-.2-1.8h0l-1.3-.7-.3,1.5-1-.6Zm1.2,6.4-.5-4.5h0l-.5,3.9Z" transform="translate(-24.9 -17.5)"/><path class="cls-27" d="M196.9,62.7l3.1,1.8v1.2l-1.9-1.1V67l1.5.8v1.3l-1.5-.9v3.7l-1.2-.7Z" transform="translate(-24.9 -17.5)"/><path class="cls-27" d="M200.6,64.8l3,1.8v1.2l-1.9-1.1v2.4l1.5.9v1.2l-1.5-.9V74l-1.1-.7Z" transform="translate(-24.9 -17.5)"/><path class="cls-27" d="M204.2,66.9l1.2.7v8.5l-1.2-.7Z" transform="translate(-24.9 -17.5)"/><path class="cls-27" d="M206.6,76.4a3.4,3.4,0,0,1-.4-1.8V70c0-.6.1-1.1.4-1.3s.7-.1,1.3.2a5.3,5.3,0,0,1,1.3,1.3,3.4,3.4,0,0,1,.4,1.8v.9l-1.1-.6v-1a1.1,1.1,0,0,0-.6-1.1c-.4-.3-.6-.1-.6.4v4.8a1.1,1.1,0,0,0,.6,1.1c.4.2.6.1.6-.5V74.7l1.1.7v1.2c0,.6-.1,1.1-.4,1.3a1.3,1.3,0,0,1-1.3-.2A3.3,3.3,0,0,1,206.6,76.4Z" transform="translate(-24.9 -17.5)"/><path class="cls-27" d="M122.8,70.7a4.1,4.1,0,0,1-.4-1.9V64.4c0-.7.1-1.2.4-1.4a1.3,1.3,0,0,1,1.3.2,4,4,0,0,1,1.8,3.2v4.5a1.4,1.4,0,0,1-.5,1.3c-.3.2-.7.1-1.3-.2A4,4,0,0,1,122.8,70.7Zm1.9-.4V65.6a1.1,1.1,0,0,0-.6-1.1c-.4-.3-.6-.1-.6.4v4.7a1.4,1.4,0,0,0,.6,1.2C124.5,71,124.7,70.8,124.7,70.3Z" transform="translate(-24.9 -17.5)"/><path class="cls-27" d="M126.7,64.8l1.7,1a4,4,0,0,1,1.3,1.3,3.4,3.4,0,0,1,.4,1.8v.9c0,.7-.1,1.1-.4,1.3s-.7.1-1.3-.2l-.5-.3V74l-1.2-.7Zm1.7,4.9h.4c.1,0,.2-.2.2-.5v-1a1.2,1.2,0,0,0-.2-.7,1,1,0,0,0-.4-.5l-.5-.3v2.6Z" transform="translate(-24.9 -17.5)"/><path class="cls-27" d="M131.7,68.9l-1.2-.7V67l3.6,2.1v1.2l-1.2-.7v7.3l-1.2-.7Z" transform="translate(-24.9 -17.5)"/><path class="cls-27" d="M134.7,69.4l1.1.7v8.5l-1.1-.7Z" transform="translate(-24.9 -17.5)"/><path class="cls-27" d="M136.7,70.6l1.6,1,.8,6.5h0l.8-5.7,1.6,1v8.5l-1.1-.6V74.8h0l-.9,6-.9-.6-.9-6.9h0v6.4l-1-.6Z" transform="translate(-24.9 -17.5)"/><path class="cls-27" d="M142.4,73.9l1.2.7v8.5l-1.2-.7Z" transform="translate(-24.9 -17.5)"/><path class="cls-27" d="M144.2,82.3l2.1-4.9-2-1.2V75l3.3,1.9v1.2L145.4,83l2.2,1.2v1.2l-3.4-2Z" transform="translate(-24.9 -17.5)"/><path class="cls-27" d="M149.2,77.8l1.5.9,1.2,9.2-1.1-.6-.2-1.9h0l-1.4-.8-.2,1.5-1.1-.6Zm1.2,6.4-.5-4.5h0l-.5,3.9Z" transform="translate(-24.9 -17.5)"/><path class="cls-27" d="M152.9,81.2l-1.2-.7V79.3l3.6,2.1v1.2l-1.2-.7v7.3l-1.2-.7Z" transform="translate(-24.9 -17.5)"/><path class="cls-27" d="M155.9,81.7l1.1.7v8.5l-1.1-.7Z" transform="translate(-24.9 -17.5)"/><path class="cls-27" d="M158.3,91.1a3.5,3.5,0,0,1-.5-1.8V84.8a1.4,1.4,0,0,1,.5-1.3c.3-.2.7-.1,1.3.2a3.3,3.3,0,0,1,1.3,1.3,4.1,4.1,0,0,1,.5,1.9v4.4a1.7,1.7,0,0,1-.5,1.4c-.3.2-.7.1-1.3-.2A3.5,3.5,0,0,1,158.3,91.1Zm1.9-.3V86.1a1.4,1.4,0,0,0-.6-1.2c-.4-.2-.6,0-.6.5v4.7a1.1,1.1,0,0,0,.6,1.1C160,91.5,160.2,91.3,160.2,90.8Z" transform="translate(-24.9 -17.5)"/><path class="cls-27" d="M162.1,85.3l1.5.8,1.1,5.8h.1V86.8l1,.6v8.5l-1.2-.7-1.4-7h0v6.2l-1.1-.6Z" transform="translate(-24.9 -17.5)"/><path class="cls-108" d="M198.1,188.1h-.2l-.3-.2a.6.6,0,0,1-.2-.7l.2-.2v-.9a.5.5,0,0,1,.5-.5.5.5,0,0,1,.5.5v1.5a.8.8,0,0,1-.2.5Zm-1.9-1.1h-.3l-1.6-1a.5.5,0,0,1-.2-.6c.1-.3.4-.3.7-.2l1.6.9a.6.6,0,0,1,.2.7Zm-3.3-1.9h-.3l-1.6-1a.4.4,0,0,1,.4-.8l1.7,1a.5.5,0,0,1,.2.6A.4.4,0,0,1,192.9,185.1Zm5.2-.5c-.2,0-.5-.2-.5-.4v-1.9a.5.5,0,0,1,.5-.5.5.5,0,0,1,.5.5v1.9A.5.5,0,0,1,198.1,184.6Zm-8.5-1.3h-.3l-1.6-.9a.5.5,0,0,1-.2-.7.5.5,0,0,1,.6-.2l1.7,1a.5.5,0,0,1,.2.6A.5.5,0,0,1,189.6,183.3Zm8.5-2.4a.6.6,0,0,1-.5-.5v-1.9a.5.5,0,0,1,.5-.5.5.5,0,0,1,.5.5v1.9A.5.5,0,0,1,198.1,180.9Zm0-3.8a.6.6,0,0,1-.5-.5v-1.9a.5.5,0,0,1,.5-.5.5.5,0,0,1,.5.5v1.9A.5.5,0,0,1,198.1,177.1Zm0-3.8a.6.6,0,0,1-.5-.5v-1.9a.5.5,0,0,1,.5-.5.5.5,0,0,1,.5.5v1.9A.5.5,0,0,1,198.1,173.3Z" transform="translate(-24.9 -17.5)"/><path class="cls-109" d="M93.9,88.8h-.3L92,87.9a.4.4,0,0,1-.3-.6c.2-.3.4-.4.7-.3l1.7.9a.5.5,0,0,1,.2.6A.5.5,0,0,1,93.9,88.8Zm-3.4-1.7h-.2l-1.5-.7c-.2-.1-.3-.2-.3-.4v-.3a.5.5,0,0,1,.5-.4.4.4,0,0,1,.4.4l1.3.6a.5.5,0,0,1,.2.6A.5.5,0,0,1,90.5,87.1ZM89,84.2a.5.5,0,0,1-.5-.5V81.8a.5.5,0,0,1,.5-.4.4.4,0,0,1,.4.4v1.9A.5.5,0,0,1,89,84.2Zm0-3.8a.5.5,0,0,1-.5-.5V78a.5.5,0,0,1,.5-.4.4.4,0,0,1,.4.4v1.9A.5.5,0,0,1,89,80.4Zm0-3.8a.5.5,0,0,1-.5-.5V74.2a.5.5,0,0,1,.5-.4.4.4,0,0,1,.4.4v1.9A.5.5,0,0,1,89,76.6Zm0-3.8a.5.5,0,0,1-.5-.5V70.4A.5.5,0,0,1,89,70a.4.4,0,0,1,.4.4v1.9A.5.5,0,0,1,89,72.8Z" transform="translate(-24.9 -17.5)"/><path class="cls-110" d="M217.2,89.9a.5.5,0,0,1-.4-.5V87.5a.5.5,0,0,1,.4-.5.5.5,0,0,1,.5.5v1.9A.5.5,0,0,1,217.2,89.9Zm0-3.8a.5.5,0,0,1-.4-.5V83.7a.5.5,0,0,1,.4-.5.5.5,0,0,1,.5.5v1.9A.5.5,0,0,1,217.2,86.1Zm0-3.8a.5.5,0,0,1-.4-.5V79.9a.5.5,0,0,1,.4-.5.5.5,0,0,1,.5.5v1.9A.5.5,0,0,1,217.2,82.3Zm0-3.8a.5.5,0,0,1-.4-.5v-.4l-.9-.4a.5.5,0,0,1-.2-.6.4.4,0,0,1,.6-.3l1.1.6c.2.1.3.2.3.4V78A.5.5,0,0,1,217.2,78.5Zm-2.8-2.1h-.2l-1.7-.8a.5.5,0,0,1-.2-.6c.1-.3.4-.4.6-.2l1.7.8a.4.4,0,0,1,.3.6A.5.5,0,0,1,214.4,76.4Z" transform="translate(-24.9 -17.5)"/><path class="cls-111" d="M189.2,105.5H189l-.8-.4a.5.5,0,0,1-.2-.7.5.5,0,0,1,.6-.2l.9.5a.5.5,0,0,1,.1.7C189.6,105.4,189.4,105.5,189.2,105.5Z" transform="translate(-24.9 -17.5)"/><path class="cls-112" d="M186.7,104h-.3l-1.7-1a.5.5,0,1,1,.5-.9l1.7,1a.7.7,0,0,1,.2.7Zm-3.5-2H183l-1.7-1a.5.5,0,0,1-.2-.7.6.6,0,0,1,.7-.2l1.7,1a.5.5,0,0,1,.1.7C183.6,101.9,183.4,102,183.2,102Zm-3.4-2h-.2l-1.8-1a.5.5,0,0,1-.1-.7.4.4,0,0,1,.6-.1l1.7.9a.5.5,0,0,1,.2.7C180.1,100,180,100,179.8,100Zm-3.5-2h-.2l-1.7-1a.6.6,0,0,1-.2-.7.5.5,0,0,1,.7-.1l1.7,1a.5.5,0,0,1,.2.6C176.7,98,176.5,98,176.3,98Zm-3.4-2h-.2l-1.8-1a.5.5,0,0,1-.1-.7.4.4,0,0,1,.6-.1l1.7,1a.4.4,0,0,1,.2.6C173.2,96,173.1,96,172.9,96Z" transform="translate(-24.9 -17.5)"/><path class="cls-113" d="M169.5,94h-.3l-.8-.5a.5.5,0,0,1-.2-.6c.2-.3.4-.3.7-.2l.8.5a.5.5,0,0,1,.2.6A.4.4,0,0,1,169.5,94Z" transform="translate(-24.9 -17.5)"/><path class="cls-98" d="M187.9,181.9c0,1.1-.8,1.5-1.7,1a4,4,0,0,1-1.7-2.9c0-1.1.8-1.5,1.7-1A3.7,3.7,0,0,1,187.9,181.9Z" transform="translate(-24.9 -17.5)"/><path class="cls-98" d="M95.7,89c0,1.1-.8,1.5-1.7,1a4,4,0,0,1-1.7-2.9c0-1.1.8-1.5,1.7-1A4,4,0,0,1,95.7,89Z" transform="translate(-24.9 -17.5)"/><path class="cls-98" d="M170.3,94.3c0,1-.7,1.5-1.6.9a3.4,3.4,0,0,1-1.7-2.9c0-1,.7-1.5,1.7-.9A3.6,3.6,0,0,1,170.3,94.3Z" transform="translate(-24.9 -17.5)"/><path class="cls-98" d="M214.4,76.1c0,1-.8,1.4-1.7.9a3.7,3.7,0,0,1-1.7-2.9,1,1,0,0,1,1.7-.9A3.7,3.7,0,0,1,214.4,76.1Z" transform="translate(-24.9 -17.5)"/></g></g></svg>