<svg id="Layer_1" data-name="Layer 1" xmlns="http://www.w3.org/2000/svg" viewBox="0 0 900 614.1"><defs><style>.cls-1{opacity:0.75;}.cls-2,.cls-4{fill:none;stroke:#4a4a3e;stroke-miterlimit:10;}.cls-2{stroke-width:0.06px;}.cls-3{fill:#050505;}.cls-4{stroke-width:0.04px;}</style></defs><g class="cls-1"><polygon id="triangle36" class="cls-2" points="886.4 13.6 755.3 422.3 709 378.6 886.4 13.6"/><polygon id="triangle36-2" data-name="triangle36" class="cls-2" points="755.3 422.3 711.6 404.3 709 378.6 755.3 422.3"/><polygon id="triangle36-3" data-name="triangle36" class="cls-2" points="755.3 422.3 711.6 404.3 688.5 558.5 755.3 422.3"/><polygon id="triangle36-4" data-name="triangle36" class="cls-2" points="886.4 13.6 711.6 11.1 642.2 111.3 886.4 13.6"/><polyline id="triangle36-5" data-name="triangle36" class="cls-2" points="709 378.6 642.2 111.3 886.4 13.6"/><polyline id="triangle36-6" data-name="triangle36" class="cls-2" points="529.1 26.5 431.4 227 380 85.6"/><polygon id="triangle36-7" data-name="triangle36" class="cls-2" points="426.3 599.6 336.3 548.2 313.2 432.6 426.3 599.6"/><polygon id="triangle36-8" data-name="triangle36" class="cls-2" points="336.3 548.2 313.2 432.6 282.4 512.2 336.3 548.2"/><polygon id="triangle36-9" data-name="triangle36" class="cls-2" points="426.3 599.6 336.3 548.2 233.5 553.4 426.3 599.6"/><polygon id="triangle36-10" data-name="triangle36" class="cls-2" points="336.3 548.2 282.4 512.2 233.5 553.4 336.3 548.2"/><polygon id="triangle36-11" data-name="triangle36" class="cls-2" points="313.2 432.6 282.4 512.2 143.6 555.9 313.2 432.6"/><polygon id="triangle36-12" data-name="triangle36" class="cls-2" points="282.4 512.2 233.5 553.4 143.6 555.9 282.4 512.2"/><polyline id="triangle36-13" data-name="triangle36" class="cls-2" points="233.5 553.4 143.6 555.9 58.8 609.9"/><polyline id="triangle36-14" data-name="triangle36" class="cls-2" points="4.8 72.8 159 198.7 84.5 8.5"/><polyline id="triangle36-15" data-name="triangle36" class="cls-2" points="141 234.7 159 198.7 4.8 72.8"/><line id="triangle36-16" data-name="triangle36" class="cls-2" x1="331.2" y1="247.5" x2="431.4" y2="227"/><path id="triangle36-17" data-name="triangle36" class="cls-2" d="M568.7,249.8" transform="translate(-188.6 -164.2)"/><polygon id="triangle36-18" data-name="triangle36" class="cls-2" points="313.2 432.6 138.4 293.8 331.2 247.5 313.2 432.6"/><polygon id="triangle36-19" data-name="triangle36" class="cls-2" points="755.3 422.3 688.5 558.5 791.3 540.5 755.3 422.3"/><polyline id="triangle36-20" data-name="triangle36" class="cls-2" points="886.4 13.6 755.3 422.3 896.6 594.5"/><polygon id="triangle36-21" data-name="triangle36" class="cls-2" points="791.3 540.5 755.3 422.3 896.6 594.5 791.3 540.5"/><polygon id="triangle36-22" data-name="triangle36" class="cls-2" points="791.3 540.5 688.5 558.5 896.6 594.5 791.3 540.5"/><path id="triangle36-23" data-name="triangle36" class="cls-2" d="M568.7,249.8" transform="translate(-188.6 -164.2)"/><path id="triangle36-24" data-name="triangle36" class="cls-2" d="M468.4,355.1" transform="translate(-188.6 -164.2)"/><line id="triangle36-25" data-name="triangle36" class="cls-2" x1="292.7" y1="18.8" x2="279.8" y2="191"/><polygon id="triangle36-26" data-name="triangle36" class="cls-2" points="331.2 247.5 138.4 293.8 279.8 191 331.2 247.5"/><polygon id="triangle36-27" data-name="triangle36" class="cls-2" points="159 198.7 141 234.7 279.8 191 159 198.7"/><polygon id="triangle36-28" data-name="triangle36" class="cls-2" points="141 234.7 138.4 293.8 279.8 191 141 234.7"/><polyline id="triangle36-29" data-name="triangle36" class="cls-2" points="431.4 227 524 327.2 585.6 216.7"/><polygon id="triangle36-30" data-name="triangle36" class="cls-2" points="431.4 227 331.2 247.5 524 327.2 431.4 227"/><polygon id="triangle36-31" data-name="triangle36" class="cls-2" points="426.3 599.6 313.2 432.6 524 327.2 426.3 599.6"/><polygon id="triangle36-32" data-name="triangle36" class="cls-2" points="331.2 247.5 313.2 432.6 524 327.2 331.2 247.5"/><polygon id="triangle36-33" data-name="triangle36" class="cls-2" points="711.6 404.3 709 378.6 524 327.2 711.6 404.3"/><polygon id="triangle36-34" data-name="triangle36" class="cls-2" points="711.6 404.3 688.5 558.5 524 327.2 711.6 404.3"/><polygon id="triangle36-35" data-name="triangle36" class="cls-2" points="709 378.6 585.6 216.7 524 327.2 709 378.6"/><polyline id="triangle36-36" data-name="triangle36" class="cls-2" points="426.3 599.6 524 327.2 688.5 558.5"/><path class="cls-3" d="M874.2,723.2a2.9,2.9,0,1,1,2.9,2.9A2.9,2.9,0,0,1,874.2,723.2Z" transform="translate(-188.6 -164.2)"/><path class="cls-3" d="M974,704.7a5.9,5.9,0,1,1,11.8,0,5.9,5.9,0,1,1-11.8,0Z" transform="translate(-188.6 -164.2)"/><circle class="cls-3" cx="755.3" cy="422.3" r="5.9"/><path class="cls-3" d="M897.4,568.5a2.8,2.8,0,0,1,2.8-2.8,2.7,2.7,0,0,1,2.8,2.8,2.8,2.8,0,0,1-2.8,2.8A2.9,2.9,0,0,1,897.4,568.5Z" transform="translate(-188.6 -164.2)"/><path class="cls-3" d="M893.9,542.8a3.8,3.8,0,1,1,7.5,0,3.8,3.8,0,0,1-7.5,0Z" transform="translate(-188.6 -164.2)"/><path class="cls-3" d="M899.3,535.2a2.1,2.1,0,0,1,2.1-2.1,2,2,0,0,1,2,2.1,2.1,2.1,0,1,1-4.1,0Z" transform="translate(-188.6 -164.2)"/><circle class="cls-3" cx="722.3" cy="408.7" r="1.4"/><path class="cls-3" d="M904.4,664.4a1.3,1.3,0,0,1,1.3-1.3,1.3,1.3,0,0,1,1.4,1.3,1.4,1.4,0,0,1-1.4,1.4A1.3,1.3,0,0,1,904.4,664.4Z" transform="translate(-188.6 -164.2)"/><path class="cls-3" d="M698.9,226.5a1.3,1.3,0,0,1,1.3-1.4,1.4,1.4,0,0,1,1.4,1.4,1.3,1.3,0,0,1-1.4,1.3A1.3,1.3,0,0,1,698.9,226.5Z" transform="translate(-188.6 -164.2)"/><path class="cls-3" d="M666.7,167.4a3.2,3.2,0,0,1,3.2-3.2,3.3,3.3,0,1,1,0,6.5A3.2,3.2,0,0,1,666.7,167.4Z" transform="translate(-188.6 -164.2)"/><circle class="cls-3" cx="649.2" cy="139.1" r="3.3"/><path class="cls-3" d="M755.4,304a2.1,2.1,0,0,1,2.2-2.1,2.1,2.1,0,0,1,2.1,2.1,2.1,2.1,0,0,1-2.1,2.2A2.2,2.2,0,0,1,755.4,304Z" transform="translate(-188.6 -164.2)"/><path class="cls-3" d="M743.3,305.9a1.2,1.2,0,0,1,1.2-1.1,1.1,1.1,0,0,1,1.2,1.1,1.2,1.2,0,0,1-1.2,1.2A1.2,1.2,0,0,1,743.3,305.9Z" transform="translate(-188.6 -164.2)"/><path class="cls-3" d="M964.4,707.1a1.5,1.5,0,0,1,3,0,1.5,1.5,0,0,1-3,0Z" transform="translate(-188.6 -164.2)"/><path class="cls-3" d="M887.5,698.6a1.5,1.5,0,0,1,1.4-1.5,1.5,1.5,0,0,1,0,3A1.5,1.5,0,0,1,887.5,698.6Z" transform="translate(-188.6 -164.2)"/><path class="cls-3" d="M710.8,202.1a1.4,1.4,0,0,1,1.4-1.4,1.4,1.4,0,0,1,0,2.8A1.4,1.4,0,0,1,710.8,202.1Z" transform="translate(-188.6 -164.2)"/><circle class="cls-3" cx="496.7" cy="92.6" r="1.4"/><path class="cls-3" d="M819.3,441.7a1.4,1.4,0,0,1,1.4-1.4,1.4,1.4,0,0,1,1.3,1.4,1.3,1.3,0,0,1-1.3,1.4A1.4,1.4,0,0,1,819.3,441.7Z" transform="translate(-188.6 -164.2)"/><path class="cls-3" d="M866.3,422.9a1.3,1.3,0,0,1,1.3-1.4,1.4,1.4,0,0,1,1.4,1.4,1.4,1.4,0,0,1-1.4,1.4A1.4,1.4,0,0,1,866.3,422.9Z" transform="translate(-188.6 -164.2)"/><path class="cls-3" d="M871.4,442.9a1.4,1.4,0,0,1,1.4-1.4,1.4,1.4,0,1,1,0,2.8A1.4,1.4,0,0,1,871.4,442.9Z" transform="translate(-188.6 -164.2)"/><path class="cls-3" d="M837.6,465.5a1.3,1.3,0,0,1,1.3-1.3,1.3,1.3,0,0,1,1.4,1.3,1.4,1.4,0,0,1-1.4,1.4A1.3,1.3,0,0,1,837.6,465.5Z" transform="translate(-188.6 -164.2)"/><path class="cls-3" d="M834.1,292.2a1.4,1.4,0,0,1,1.3-1.4,1.4,1.4,0,0,1,1.4,1.4,1.4,1.4,0,0,1-1.4,1.4A1.3,1.3,0,0,1,834.1,292.2Z" transform="translate(-188.6 -164.2)"/><path class="cls-3" d="M993.3,342.7a1.4,1.4,0,0,1,2.8,0,1.4,1.4,0,0,1-2.8,0Z" transform="translate(-188.6 -164.2)"/><path class="cls-3" d="M1067.5,177.8a7.5,7.5,0,1,1,7.5,7.5A7.6,7.6,0,0,1,1067.5,177.8Z" transform="translate(-188.6 -164.2)"/><path class="cls-3" d="M823.4,275.5a7.4,7.4,0,0,1,7.4-7.5,7.5,7.5,0,1,1,0,14.9A7.4,7.4,0,0,1,823.4,275.5Z" transform="translate(-188.6 -164.2)"/><path class="cls-3" d="M892.8,175.2a7.4,7.4,0,0,1,7.4-7.4,7.5,7.5,0,0,1,7.5,7.4,7.6,7.6,0,0,1-7.5,7.5A7.5,7.5,0,0,1,892.8,175.2Z" transform="translate(-188.6 -164.2)"/><path class="cls-3" d="M978.1,466.9a4,4,0,0,1,4.1-4,4.1,4.1,0,1,1,0,8.1A4.1,4.1,0,0,1,978.1,466.9Z" transform="translate(-188.6 -164.2)"/><path class="cls-3" d="M884.1,500.5a3.2,3.2,0,0,1,3.3-3.2,3.2,3.2,0,0,1,3.2,3.2,3.2,3.2,0,0,1-3.2,3.3A3.3,3.3,0,0,1,884.1,500.5Z" transform="translate(-188.6 -164.2)"/><path class="cls-3" d="M971.2,493.4a2.5,2.5,0,1,1,5,0,2.5,2.5,0,0,1-5,0Z" transform="translate(-188.6 -164.2)"/><circle class="cls-3" cx="524" cy="327.2" r="5.7"/><circle class="cls-3" cx="585.6" cy="216.7" r="5.7"/><path class="cls-3" d="M614.4,391.1a5.7,5.7,0,0,1,5.7-5.7,5.8,5.8,0,0,1,5.7,5.7,5.7,5.7,0,0,1-5.7,5.7A5.6,5.6,0,0,1,614.4,391.1Z" transform="translate(-188.6 -164.2)"/><path class="cls-3" d="M514.2,411.7a5.7,5.7,0,1,1,11.3,0,5.7,5.7,0,1,1-11.3,0Z" transform="translate(-188.6 -164.2)"/><circle class="cls-3" cx="138.4" cy="293.8" r="13.3"/><path class="cls-3" d="M488.6,596.7A13.3,13.3,0,1,1,501.9,610,13.2,13.2,0,0,1,488.6,596.7Z" transform="translate(-188.6 -164.2)"/><circle class="cls-3" cx="336.3" cy="548.2" r="9.6"/><circle class="cls-3" cx="426.3" cy="599.6" r="9.6"/><path class="cls-3" d="M325.4,720.1a6.8,6.8,0,1,1,6.8,6.8A6.8,6.8,0,0,1,325.4,720.1Z" transform="translate(-188.6 -164.2)"/><path class="cls-3" d="M243.2,774.1a4.2,4.2,0,1,1,4.2,4.2A4.2,4.2,0,0,1,243.2,774.1Z" transform="translate(-188.6 -164.2)"/><path class="cls-3" d="M506.9,495.6a4.2,4.2,0,1,1,8.4,0,4.2,4.2,0,1,1-8.4,0Z" transform="translate(-188.6 -164.2)"/><path class="cls-3" d="M401.6,520.7a4.3,4.3,0,1,1,4.3,4.3A4.2,4.2,0,0,1,401.6,520.7Z" transform="translate(-188.6 -164.2)"/><path class="cls-3" d="M417,531.5a2.9,2.9,0,1,1,2.9,3A2.9,2.9,0,0,1,417,531.5Z" transform="translate(-188.6 -164.2)"/><path class="cls-3" d="M660.7,627.6a2.9,2.9,0,1,1,2.9,2.9A2.9,2.9,0,0,1,660.7,627.6Z" transform="translate(-188.6 -164.2)"/><path class="cls-3" d="M656,641.8a2.9,2.9,0,1,1,2.9,2.9A2.9,2.9,0,0,1,656,641.8Z" transform="translate(-188.6 -164.2)"/><circle class="cls-3" cx="466.4" cy="488.7" r="2.9"/><path class="cls-3" d="M650.6,659.9a1.6,1.6,0,0,1,1.6-1.6,1.6,1.6,0,0,1,0,3.2A1.6,1.6,0,0,1,650.6,659.9Z" transform="translate(-188.6 -164.2)"/><circle class="cls-3" cx="403.4" cy="387.7" r="2.2"/><path class="cls-3" d="M587.1,562.3a2.8,2.8,0,0,1,2.8-2.8,2.8,2.8,0,1,1,0,5.5A2.8,2.8,0,0,1,587.1,562.3Z" transform="translate(-188.6 -164.2)"/><path class="cls-3" d="M648.4,522.2a2.8,2.8,0,1,1,5.6,0,2.8,2.8,0,1,1-5.6,0Z" transform="translate(-188.6 -164.2)"/><circle class="cls-3" cx="380" cy="85.6" r="2.8"/><path class="cls-3" d="M473.9,182.9a7.4,7.4,0,1,1,14.8,0,7.4,7.4,0,1,1-14.8,0Z" transform="translate(-188.6 -164.2)"/><path class="cls-3" d="M457.6,333.9a3.6,3.6,0,0,1,3.6-3.6,3.6,3.6,0,1,1,0,7.2A3.6,3.6,0,0,1,457.6,333.9Z" transform="translate(-188.6 -164.2)"/><path class="cls-3" d="M432,365a3.7,3.7,0,0,1,3.7-3.6,3.6,3.6,0,0,1,3.6,3.6,3.7,3.7,0,0,1-3.6,3.7A3.8,3.8,0,0,1,432,365Z" transform="translate(-188.6 -164.2)"/><path class="cls-3" d="M268.1,173.5a4.8,4.8,0,0,1,4.8-4.8,4.7,4.7,0,0,1,4.8,4.8,4.8,4.8,0,0,1-4.8,4.8A4.9,4.9,0,0,1,268.1,173.5Z" transform="translate(-188.6 -164.2)"/><path class="cls-3" d="M342.8,362.8a4.9,4.9,0,0,1,4.8-4.8,4.8,4.8,0,0,1,4.8,4.8,4.7,4.7,0,0,1-4.8,4.8A4.8,4.8,0,0,1,342.8,362.8Z" transform="translate(-188.6 -164.2)"/><path class="cls-3" d="M188.6,236.9a4.9,4.9,0,0,1,4.8-4.8,4.8,4.8,0,0,1,4.8,4.8,4.7,4.7,0,0,1-4.8,4.8A4.8,4.8,0,0,1,188.6,236.9Z" transform="translate(-188.6 -164.2)"/><path class="cls-3" d="M268.1,303.3a4.9,4.9,0,0,1,4.8-4.8,4.8,4.8,0,0,1,4.8,4.8,4.7,4.7,0,0,1-4.8,4.8A4.8,4.8,0,0,1,268.1,303.3Z" transform="translate(-188.6 -164.2)"/><path class="cls-3" d="M836.9,313.3a3.5,3.5,0,1,1,3.5,3.5A3.5,3.5,0,0,1,836.9,313.3Z" transform="translate(-188.6 -164.2)"/><circle class="cls-3" cx="282.4" cy="512.2" r="7.2"/><circle class="cls-3" cx="233.5" cy="553.4" r="7.2"/><path class="cls-3" d="M461.2,355.1a7.2,7.2,0,0,1,7.2-7.2,7.3,7.3,0,0,1,7.3,7.2,7.3,7.3,0,0,1-7.3,7.3A7.3,7.3,0,0,1,461.2,355.1Z" transform="translate(-188.6 -164.2)"/><circle class="cls-3" cx="528.5" cy="28.6" r="5.6"/></g><polygon id="triangle36-37" data-name="triangle36" class="cls-4" points="632.6 134.8 602 102.4 888.4 10.5 632.6 134.8"/><polygon id="triangle36-38" data-name="triangle36" class="cls-4" points="632.6 134.8 614.6 133 602 102.4 632.6 134.8"/><polygon id="triangle36-39" data-name="triangle36" class="cls-4" points="506.5 149.2 614.6 133 602 102.4 506.5 149.2"/><polygon id="triangle36-40" data-name="triangle36" class="cls-4" points="820 181.6 632.6 134.8 888.4 10.5 820 181.6"/><polyline id="triangle36-41" data-name="triangle36" class="cls-4" points="838 365.4 738.9 329.3 879.4 260.9"/><polygon id="triangle36-42" data-name="triangle36" class="cls-4" points="594.8 412.2 513.7 396 477.7 332.9 594.8 412.2"/><polygon id="triangle36-43" data-name="triangle36" class="cls-4" points="538.9 433.8 594.8 412.2 513.7 396 538.9 433.8"/><polygon id="triangle36-44" data-name="triangle36" class="cls-4" points="510.1 468 513.7 396 477.7 332.9 510.1 468"/><polygon id="triangle36-45" data-name="triangle36" class="cls-4" points="510.1 468 538.9 433.8 513.7 396 510.1 468"/><polygon id="triangle36-46" data-name="triangle36" class="cls-4" points="508.3 531.1 538.9 433.8 594.8 412.2 508.3 531.1"/><polygon id="triangle36-47" data-name="triangle36" class="cls-4" points="508.3 531.1 510.1 468 538.9 433.8 508.3 531.1"/><polyline id="triangle36-48" data-name="triangle36" class="cls-4" points="470.5 590.5 508.3 531.1 510.1 468"/><line id="triangle36-49" data-name="triangle36" class="cls-4" x1="738.9" y1="329.3" x2="724.5" y2="399.6"/><path id="triangle36-50" data-name="triangle36" class="cls-4" d="M1026.6,529.5" transform="translate(-188.6 -164.2)"/><polygon id="triangle36-51" data-name="triangle36" class="cls-4" points="724.5 399.6 692.1 534.7 594.8 412.2 724.5 399.6"/><polygon id="triangle36-52" data-name="triangle36" class="cls-4" points="519.1 77.1 506.5 149.2 602 102.4 519.1 77.1"/><polyline id="triangle36-53" data-name="triangle36" class="cls-4" points="481.3 3.3 602 102.4 888.4 10.5"/><polygon id="triangle36-54" data-name="triangle36" class="cls-4" points="481.3 3.3 602 102.4 519.1 77.1 481.3 3.3"/><polygon id="triangle36-55" data-name="triangle36" class="cls-4" points="481.3 3.3 506.5 149.2 519.1 77.1 481.3 3.3"/><path id="triangle36-56" data-name="triangle36" class="cls-4" d="M1026.6,529.5" transform="translate(-188.6 -164.2)"/><path id="triangle36-57" data-name="triangle36" class="cls-4" d="M952.8,599.8" transform="translate(-188.6 -164.2)"/><line id="triangle36-58" data-name="triangle36" class="cls-4" x1="764.1" y1="435.6" x2="884.8" y2="426.6"/><polygon id="triangle36-59" data-name="triangle36" class="cls-4" points="764.1 435.6 692.1 534.7 724.5 399.6 764.1 435.6"/><polygon id="triangle36-60" data-name="triangle36" class="cls-4" points="764.1 435.6 733.5 532.9 758.7 520.3 764.1 435.6"/><polygon id="triangle36-61" data-name="triangle36" class="cls-4" points="764.1 435.6 692.1 534.7 733.5 532.9 764.1 435.6"/><polyline id="triangle36-62" data-name="triangle36" class="cls-4" points="746.1 221.3 668.6 264.5 738.9 329.3"/><polygon id="triangle36-63" data-name="triangle36" class="cls-4" points="668.6 264.5 724.5 399.6 738.9 329.3 668.6 264.5"/><polygon id="triangle36-64" data-name="triangle36" class="cls-4" points="668.6 264.5 594.8 412.2 477.7 332.9 668.6 264.5"/><polygon id="triangle36-65" data-name="triangle36" class="cls-4" points="668.6 264.5 594.8 412.2 724.5 399.6 668.6 264.5"/><polygon id="triangle36-66" data-name="triangle36" class="cls-4" points="668.6 264.5 632.6 134.8 614.6 133 668.6 264.5"/><polygon id="triangle36-67" data-name="triangle36" class="cls-4" points="668.6 264.5 506.5 149.2 614.6 133 668.6 264.5"/><polygon id="triangle36-68" data-name="triangle36" class="cls-4" points="668.6 264.5 746.1 221.3 632.6 134.8 668.6 264.5"/><polyline id="triangle36-69" data-name="triangle36" class="cls-4" points="506.5 149.2 668.6 264.5 477.7 332.9"/><circle class="cls-3" cx="506.1" cy="149.2" r="5.9"/><circle class="cls-3" cx="519.1" cy="77.1" r="4.2"/><path class="cls-3" d="M790.6,270.7a4.2,4.2,0,0,0,4.2-4.2,4.1,4.1,0,0,0-4.2-4.1,4.1,4.1,0,0,0-4.1,4.1A4.1,4.1,0,0,0,790.6,270.7Z" transform="translate(-188.6 -164.2)"/><path class="cls-3" d="M803.2,299.1a2,2,0,1,0,0-3.9,2,2,0,0,0-1.9,1.9A2,2,0,0,0,803.2,299.1Z" transform="translate(-188.6 -164.2)"/><circle class="cls-3" cx="632.6" cy="134.8" r="5.2"/><path class="cls-3" d="M1008.6,351a5.2,5.2,0,0,0,5.2-5.2,5.2,5.2,0,1,0-10.4,0A5.2,5.2,0,0,0,1008.6,351Z" transform="translate(-188.6 -164.2)"/><circle class="cls-3" cx="754" cy="76.2" r="5.2"/><circle class="cls-3" cx="697.3" cy="71" r="3.7"/><path class="cls-3" d="M850.2,249.1a1.7,1.7,0,0,0,1.7-1.7,1.7,1.7,0,1,0-3.4,0A1.7,1.7,0,0,0,850.2,249.1Z" transform="translate(-188.6 -164.2)"/><path class="cls-3" d="M857.3,432.6a4,4,0,0,0,4-4,4,4,0,0,0-8,0A4,4,0,0,0,857.3,432.6Z" transform="translate(-188.6 -164.2)"/><circle class="cls-3" cx="746.1" cy="221.3" r="4"/><circle class="cls-3" cx="738.9" cy="329.3" r="4"/><path class="cls-3" d="M913.1,567.7a4,4,0,1,0-4-4A4,4,0,0,0,913.1,567.7Z" transform="translate(-188.6 -164.2)"/><path class="cls-3" d="M880.7,703a4.2,4.2,0,1,0-4.2-4.1A4.1,4.1,0,0,0,880.7,703Z" transform="translate(-188.6 -164.2)"/><circle class="cls-3" cx="733.5" cy="532.9" r="2.6"/><path class="cls-3" d="M783.4,581.3a5,5,0,1,0-4.9-4.9A4.9,4.9,0,0,0,783.4,581.3Z" transform="translate(-188.6 -164.2)"/><circle class="cls-3" cx="513.7" cy="396" r="2"/><circle class="cls-3" cx="495.4" cy="406.5" r="2"/><path class="cls-3" d="M701.7,522.6a1.4,1.4,0,0,0,1.4-1.4,1.4,1.4,0,0,0-1.4-1.4,1.4,1.4,0,0,0-1.3,1.4A1.3,1.3,0,0,0,701.7,522.6Z" transform="translate(-188.6 -164.2)"/><path class="cls-3" d="M693.5,545.9a1.4,1.4,0,0,0,0-2.8,1.4,1.4,0,0,0,0,2.8Z" transform="translate(-188.6 -164.2)"/><path class="cls-3" d="M674,512a1.3,1.3,0,0,0,1.4-1.3,1.4,1.4,0,0,0-2.8,0A1.3,1.3,0,0,0,674,512Z" transform="translate(-188.6 -164.2)"/><path class="cls-3" d="M681,508.6a1.3,1.3,0,0,0,1.3-1.4,1.3,1.3,0,0,0-1.3-1.3,1.3,1.3,0,0,0-1.4,1.3A1.4,1.4,0,0,0,681,508.6Z" transform="translate(-188.6 -164.2)"/><path class="cls-3" d="M670.1,513.7a1.1,1.1,0,0,0,1.1-1.1,1.1,1.1,0,0,0-2.2,0A1.1,1.1,0,0,0,670.1,513.7Z" transform="translate(-188.6 -164.2)"/><path class="cls-3" d="M698.5,486.6a1.1,1.1,0,1,0-1.1-1.1A1.1,1.1,0,0,0,698.5,486.6Z" transform="translate(-188.6 -164.2)"/><path class="cls-3" d="M705,484.3a1.1,1.1,0,1,0-1.1-1.1A1.1,1.1,0,0,0,705,484.3Z" transform="translate(-188.6 -164.2)"/><path class="cls-3" d="M720,479a1.1,1.1,0,0,0,1.2-1.1,1.1,1.1,0,0,0-1.2-1.1,1,1,0,0,0-1.1,1.1A1.1,1.1,0,0,0,720,479Z" transform="translate(-188.6 -164.2)"/><path class="cls-3" d="M806.6,531.1a1.1,1.1,0,1,0-1.1-1.1A1.1,1.1,0,0,0,806.6,531.1Z" transform="translate(-188.6 -164.2)"/><path class="cls-3" d="M666.3,501.6a4.5,4.5,0,1,0,0-9,4.5,4.5,0,0,0,0,9Z" transform="translate(-188.6 -164.2)"/><path class="cls-3" d="M697,700a4.8,4.8,0,1,0-4.8-4.7A4.7,4.7,0,0,0,697,700Z" transform="translate(-188.6 -164.2)"/><path class="cls-3" d="M659.1,757.7a3,3,0,1,0-2.9-3A3,3,0,0,0,659.1,757.7Z" transform="translate(-188.6 -164.2)"/><path class="cls-3" d="M854.3,572.8a3,3,0,1,0-3-2.9A3,3,0,0,0,854.3,572.8Z" transform="translate(-188.6 -164.2)"/><path class="cls-3" d="M836.7,646.6a3,3,0,1,0-3-3A3,3,0,0,0,836.7,646.6Z" transform="translate(-188.6 -164.2)"/><path class="cls-3" d="M829.1,635.9a2.1,2.1,0,0,0,2-2.1,2,2,0,0,0-4,0A2.1,2.1,0,0,0,829.1,635.9Z" transform="translate(-188.6 -164.2)"/><circle class="cls-3" cx="573.2" cy="298.8" r="2"/><path class="cls-3" d="M751.8,468.3a2,2,0,1,0,0-4,2,2,0,0,0,0,4Z" transform="translate(-188.6 -164.2)"/><path class="cls-3" d="M744.1,471a2,2,0,0,0,2-2,2,2,0,1,0-4,0A2,2,0,0,0,744.1,471Z" transform="translate(-188.6 -164.2)"/><circle class="cls-3" cx="550.5" cy="306.8" r="1.1"/><circle class="cls-3" cx="626.2" cy="349" r="1.5"/><path class="cls-3" d="M812.2,520.1a1.1,1.1,0,0,0,1.1-1.1,1.1,1.1,0,0,0-1.1-1.2A1.2,1.2,0,0,0,811,519,1.2,1.2,0,0,0,812.2,520.1Z" transform="translate(-188.6 -164.2)"/><path class="cls-3" d="M763.5,563.9a1.1,1.1,0,1,0,0-2.2,1.1,1.1,0,1,0,0,2.2Z" transform="translate(-188.6 -164.2)"/><path class="cls-3" d="M771,574.8a1.1,1.1,0,1,0-1.1-1.1A1.1,1.1,0,0,0,771,574.8Z" transform="translate(-188.6 -164.2)"/><path class="cls-3" d="M775.2,580.4a1.1,1.1,0,1,0-1.1-1.1A1.1,1.1,0,0,0,775.2,580.4Z" transform="translate(-188.6 -164.2)"/><path class="cls-3" d="M778.2,584.8a1.1,1.1,0,0,0,1.1-1.1,1.1,1.1,0,1,0-2.2,0A1.1,1.1,0,0,0,778.2,584.8Z" transform="translate(-188.6 -164.2)"/><path class="cls-3" d="M893,566.7a1.2,1.2,0,0,0,1.2-1.1,1.2,1.2,0,0,0-1.2-1.2,1.1,1.1,0,0,0-1.1,1.2A1.1,1.1,0,0,0,893,566.7Z" transform="translate(-188.6 -164.2)"/><path class="cls-3" d="M835.7,473.6a1.8,1.8,0,0,0,1.9-1.9,1.9,1.9,0,0,0-1.9-2,2,2,0,0,0-2,2A1.9,1.9,0,0,0,835.7,473.6Z" transform="translate(-188.6 -164.2)"/><path class="cls-3" d="M1026.6,531.5a2,2,0,0,0,2-2,1.9,1.9,0,0,0-2-1.9,1.8,1.8,0,0,0-1.9,1.9A1.9,1.9,0,0,0,1026.6,531.5Z" transform="translate(-188.6 -164.2)"/><path class="cls-3" d="M1073.4,596a5.2,5.2,0,0,0,5.2-5.2,5.2,5.2,0,1,0-5.2,5.2Z" transform="translate(-188.6 -164.2)"/><path class="cls-3" d="M967.6,607.4a2.6,2.6,0,1,0,0-5.1,2.6,2.6,0,0,0,0,5.1Z" transform="translate(-188.6 -164.2)"/><circle class="cls-3" cx="757.2" cy="458.6" r="2.6"/><path class="cls-3" d="M1085.3,762a3.4,3.4,0,1,0-3.4-3.4A3.4,3.4,0,0,0,1085.3,762Z" transform="translate(-188.6 -164.2)"/><path class="cls-3" d="M947.3,687.8a3.4,3.4,0,1,0,0-6.7,3.4,3.4,0,0,0,0,6.7Z" transform="translate(-188.6 -164.2)"/><path class="cls-3" d="M994.6,746.6a3.4,3.4,0,0,0,4.1-4.1,3.4,3.4,0,0,0-2.4-2.4,3.4,3.4,0,0,0-4.1,4.1A3.1,3.1,0,0,0,994.6,746.6Z" transform="translate(-188.6 -164.2)"/><path class="cls-3" d="M1059.7,732.2a3.4,3.4,0,0,0,4.1-4.1,3.4,3.4,0,0,0-2.4-2.4,3.4,3.4,0,0,0-4.1,4.1A3.1,3.1,0,0,0,1059.7,732.2Z" transform="translate(-188.6 -164.2)"/><path class="cls-3" d="M897.5,627.1a1.4,1.4,0,0,0,1.7-1.7,1.6,1.6,0,0,0-1-1,1.4,1.4,0,0,0-1.6,1.7A1.3,1.3,0,0,0,897.5,627.1Z" transform="translate(-188.6 -164.2)"/><path class="cls-3" d="M1001.2,407.9a1.4,1.4,0,0,0,1.7-1.6,1.6,1.6,0,0,0-1-1,1.4,1.4,0,0,0-1.7,1.6A1.3,1.3,0,0,0,1001.2,407.9Z" transform="translate(-188.6 -164.2)"/><path class="cls-3" d="M642.6,345.5a1.3,1.3,0,0,0,1.6-1.7,1.6,1.6,0,0,0-1-1,1.4,1.4,0,0,0-1.6,1.7A1.3,1.3,0,0,0,642.6,345.5Z" transform="translate(-188.6 -164.2)"/><path class="cls-3" d="M644.9,340.7a1.3,1.3,0,1,0,.6-2.6,1.3,1.3,0,1,0-.6,2.6Z" transform="translate(-188.6 -164.2)"/><path class="cls-3" d="M647.1,336a1.5,1.5,0,0,0,1.7-1.7,1.7,1.7,0,0,0-1-1,1.5,1.5,0,0,0-1.7,1.7A1.3,1.3,0,0,0,647.1,336Z" transform="translate(-188.6 -164.2)"/><path class="cls-3" d="M650.7,328.6a1.4,1.4,0,0,0,1.7-1.6,1.3,1.3,0,0,0-1-1,1.4,1.4,0,0,0-1.7,1.7A1.3,1.3,0,0,0,650.7,328.6Z" transform="translate(-188.6 -164.2)"/><path class="cls-3" d="M661.9,438.4a1.5,1.5,0,0,0,1.7-1.7,1.3,1.3,0,0,0-1-1,1.5,1.5,0,0,0-1.7,1.7A1.4,1.4,0,0,0,661.9,438.4Z" transform="translate(-188.6 -164.2)"/><path class="cls-3" d="M596.1,444.6a1.5,1.5,0,0,0,1.7-1.7,1.6,1.6,0,0,0-1-1,1.5,1.5,0,0,0-1.7,1.7A1.3,1.3,0,0,0,596.1,444.6Z" transform="translate(-188.6 -164.2)"/><path class="cls-3" d="M599.4,446a1.4,1.4,0,0,0,1.7-1.6,1.6,1.6,0,0,0-1-1,1.4,1.4,0,0,0-1.7,1.7A1.3,1.3,0,0,0,599.4,446Z" transform="translate(-188.6 -164.2)"/><ellipse class="cls-3" cx="606.2" cy="447.4" rx="1.4" ry="1.4" transform="translate(-327.4 395.5) rotate(-45)"/><ellipse class="cls-3" cx="575" cy="400.5" rx="1.4" ry="1.4" transform="translate(-303.4 359.7) rotate(-45)"/><path class="cls-3" d="M578.1,401a1.5,1.5,0,0,0,1.7-1.7,1.3,1.3,0,0,0-1-1,1.5,1.5,0,0,0-1.7,1.7A1.6,1.6,0,0,0,578.1,401Z" transform="translate(-188.6 -164.2)"/><path class="cls-3" d="M975.5,340.5a3.4,3.4,0,1,0-3.4-3.3A3.4,3.4,0,0,0,975.5,340.5Z" transform="translate(-188.6 -164.2)"/><path class="cls-3" d="M727.6,603a5,5,0,0,0,5-5,5,5,0,0,0-5-5.1,5.1,5.1,0,0,0-5.1,5.1A5,5,0,0,0,727.6,603Z" transform="translate(-188.6 -164.2)"/><path class="cls-3" d="M698.8,637.3a5.1,5.1,0,0,0,0-10.2,5.1,5.1,0,0,0,0,10.2Z" transform="translate(-188.6 -164.2)"/><path class="cls-3" d="M952.8,600.8a1.1,1.1,0,0,0,1-1,1,1,0,0,0-1-1,1,1,0,0,0-1.1,1A1.1,1.1,0,0,0,952.8,600.8Z" transform="translate(-188.6 -164.2)"/><path class="cls-3" d="M954.7,600.2a.6.6,0,0,0,.6-.5.6.6,0,0,0-.6-.6.6.6,0,0,0-.5.6A.5.5,0,0,0,954.7,600.2Z" transform="translate(-188.6 -164.2)"/><path class="cls-3" d="M949.4,604.9a.5.5,0,0,0,.5-.5.6.6,0,0,0-.5-.6.6.6,0,0,0-.6.6A.6.6,0,0,0,949.4,604.9Z" transform="translate(-188.6 -164.2)"/><path class="cls-3" d="M946,594.3a.6.6,0,0,0,.6-.5.6.6,0,0,0-.6-.6.6.6,0,0,0-.5.6A.5.5,0,0,0,946,594.3Z" transform="translate(-188.6 -164.2)"/><path class="cls-3" d="M952,613.2a.5.5,0,0,0,0-1,.5.5,0,1,0,0,1Z" transform="translate(-188.6 -164.2)"/><path class="cls-3" d="M1066.2,430.1a5.1,5.1,0,0,0,5.1-5.1,5,5,0,0,0-5.1-5,5,5,0,0,0-5,5A5,5,0,0,0,1066.2,430.1Z" transform="translate(-188.6 -164.2)"/></svg>