<svg id="Layer_1" data-name="Layer 1" xmlns="http://www.w3.org/2000/svg" xmlns:xlink="http://www.w3.org/1999/xlink" viewBox="0 0 50 40.5"><defs><style>.cls-1{fill:url(#linear-gradient);}.cls-2{fill:url(#linear-gradient-2);}.cls-3{fill:url(#linear-gradient-3);}.cls-4{fill:url(#linear-gradient-4);}.cls-5{fill:url(#linear-gradient-5);}.cls-6{fill:url(#linear-gradient-6);}.cls-7{fill:url(#linear-gradient-7);}.cls-8{fill:url(#linear-gradient-8);}.cls-9{fill:url(#linear-gradient-9);}.cls-10{fill:url(#linear-gradient-10);}.cls-11{fill:url(#linear-gradient-11);}.cls-12{fill:url(#linear-gradient-12);}.cls-13{fill:url(#linear-gradient-13);}.cls-14{fill:url(#linear-gradient-14);}.cls-15{fill:url(#linear-gradient-15);}.cls-16{fill:url(#linear-gradient-16);}</style><linearGradient id="linear-gradient" x1="12.02" y1="37.94" x2="62.02" y2="37.94" gradientUnits="userSpaceOnUse"><stop offset="0" stop-color="#ff7300"/><stop offset="0.18" stop-color="#f97c01"/><stop offset="0.47" stop-color="#ea9602"/><stop offset="0.55" stop-color="#e59e03"/><stop offset="0.87" stop-color="#e5c500"/><stop offset="1" stop-color="#bf6f00"/></linearGradient><linearGradient id="linear-gradient-2" x1="16.35" y1="38.95" x2="41.31" y2="38.95" xlink:href="#linear-gradient"/><linearGradient id="linear-gradient-3" x1="4.33" y1="18.28" x2="11.87" y2="18.28" xlink:href="#linear-gradient"/><linearGradient id="linear-gradient-4" x1="16.35" y1="33.01" x2="41.31" y2="33.01" xlink:href="#linear-gradient"/><linearGradient id="linear-gradient-5" x1="38.98" y1="23.98" x2="44.14" y2="23.98" xlink:href="#linear-gradient"/><linearGradient id="linear-gradient-6" x1="4.33" y1="12.34" x2="11.87" y2="12.34" xlink:href="#linear-gradient"/><linearGradient id="linear-gradient-7" x1="31.22" y1="23.98" x2="36.4" y2="23.98" xlink:href="#linear-gradient"/><linearGradient id="linear-gradient-8" x1="23.49" y1="23.98" x2="28.66" y2="23.98" xlink:href="#linear-gradient"/><linearGradient id="linear-gradient-9" x1="4.33" y1="24.24" x2="11.87" y2="24.24" xlink:href="#linear-gradient"/><linearGradient id="linear-gradient-10" x1="14.29" y1="12.34" x2="39.25" y2="12.34" xlink:href="#linear-gradient"/><linearGradient id="linear-gradient-11" x1="34.7" y1="6.29" x2="39.88" y2="6.29" xlink:href="#linear-gradient"/><linearGradient id="linear-gradient-12" x1="3.73" y1="6.29" x2="8.88" y2="6.29" xlink:href="#linear-gradient"/><linearGradient id="linear-gradient-13" x1="43.73" y1="33.01" x2="51.27" y2="33.01" xlink:href="#linear-gradient"/><linearGradient id="linear-gradient-14" x1="14.29" y1="18.28" x2="39.25" y2="18.28" xlink:href="#linear-gradient"/><linearGradient id="linear-gradient-15" x1="14.29" y1="24.24" x2="39.25" y2="24.24" xlink:href="#linear-gradient"/><linearGradient id="linear-gradient-16" x1="43.73" y1="38.95" x2="51.27" y2="38.95" xlink:href="#linear-gradient"/></defs><path class="cls-1" d="M59.27,22.1H55.6v-1a3.37,3.37,0,0,0-3.33-3.38H15.37A3.37,3.37,0,0,0,12,21.07V43a3.37,3.37,0,0,0,3.35,3.38h3.12v9.4l7-6.2H45.8l9.72,8.65V49.54h3.75A2.77,2.77,0,0,0,62,46.77V24.88A2.78,2.78,0,0,0,59.27,22.1ZM55,43a2.76,2.76,0,0,1-2.73,2.78H28.82L19.1,54.38V45.74H15.37A2.77,2.77,0,0,1,12.62,43V21.07a2.76,2.76,0,0,1,2.75-2.77h36.9A2.76,2.76,0,0,1,55,21.07Z" transform="translate(-12.02 -17.69)"/><path class="cls-2" d="M16.35,39.56h25V38.34h-25Z" transform="translate(-12.02 -17.69)"/><ellipse class="cls-3" cx="8.1" cy="18.28" rx="5.33" ry="0.86"/><path class="cls-4" d="M41.31,32.39h-25v1.24h25Z" transform="translate(-12.02 -17.69)"/><path class="cls-5" d="M40,26.46l1.58-.71,1.6.71c-.06-.59-.12-1.18-.18-1.74.4-.45.78-.89,1.17-1.32L42.43,23c-.28-.51-.58-1-.88-1.52-.28.5-.58,1-.86,1.52L39,23.4c.38.43.76.87,1.17,1.32C40.09,25.28,40,25.87,40,26.46Z" transform="translate(-12.02 -17.69)"/><rect class="cls-6" x="4.33" y="11.72" width="7.54" height="1.24"/><path class="cls-7" d="M32.23,26.46l1.58-.71,1.6.71c-.06-.59-.12-1.18-.18-1.74.38-.45.79-.89,1.17-1.32L34.69,23c-.3-.51-.58-1-.88-1.52-.28.5-.58,1-.88,1.52-.56.12-1.12.26-1.71.38.41.43.79.87,1.17,1.32C32.33,25.28,32.27,25.87,32.23,26.46Z" transform="translate(-12.02 -17.69)"/><path class="cls-8" d="M24.47,26.46l1.6-.71,1.59.71c-.06-.59-.1-1.18-.16-1.74.38-.45.76-.89,1.16-1.32L27,23c-.3-.51-.6-1-.88-1.52-.3.5-.58,1-.88,1.52l-1.7.38c.38.43.78.87,1.16,1.32C24.59,25.28,24.53,25.87,24.47,26.46Z" transform="translate(-12.02 -17.69)"/><rect class="cls-9" x="4.33" y="23.63" width="7.54" height="1.21"/><rect class="cls-10" x="14.29" y="11.72" width="24.96" height="1.24"/><polygon class="cls-11" points="37.29 3.81 36.41 5.33 34.7 5.71 35.87 7.03 35.69 8.77 37.29 8.06 38.87 8.77 38.71 7.03 39.88 5.71 38.17 5.33 37.29 3.81"/><polygon class="cls-12" points="4.71 8.77 6.29 8.06 7.9 8.77 7.72 7.03 8.88 5.71 7.18 5.33 6.29 3.81 5.43 5.33 3.73 5.71 4.89 7.03 4.71 8.77"/><path class="cls-13" d="M43.73,33.63h7.54V32.39H43.73Z" transform="translate(-12.02 -17.69)"/><ellipse class="cls-14" cx="26.77" cy="18.28" rx="17.65" ry="0.86"/><rect class="cls-15" x="14.29" y="23.63" width="24.96" height="1.21"/><path class="cls-16" d="M43.73,39.56h7.54V38.34H43.73Z" transform="translate(-12.02 -17.69)"/></svg>